<svg width="3001" height="3000" viewBox="0 0 3001 3000" fill="none" xmlns="http://www.w3.org/2000/svg">
<g clip-path="url(#clip0_1388_102)">
<mask id="mask0_1388_102" style="mask-type:luminance" maskUnits="userSpaceOnUse" x="0" y="0" width="3001" height="3000">
<path d="M3000.64 0H0.63501V3000H3000.64V0Z" fill="white"/>
</mask>
<g mask="url(#mask0_1388_102)">
<path d="M2376.71 2118.27H2575.94V2625.04H1116.33V1780.42V1390.6H1536.45V1932.02H1623.08V1148.04L1800.66 905.483V740.89L1830.98 697.576L1861.29 740.89V905.483L2034.54 1148.04V2144.26H2112.5V1563.85L2376.71 1763.1V2118.27Z" fill="#F1F1F1"/>
<path d="M689.242 2306.15C689.242 2293.7 699.338 2283.6 711.792 2283.6H1102.66C1115.12 2283.6 1125.21 2293.7 1125.21 2306.15V2614.34C1125.21 2626.79 1115.12 2636.89 1102.66 2636.89H711.792C699.338 2636.89 689.242 2626.79 689.242 2614.34V2306.15Z" fill="#F1F1F1"/>
<path d="M2192.59 2452.73C2192.59 2550.29 2113.5 2629.37 2015.94 2629.37C1918.39 2629.37 1839.3 2550.29 1839.3 2452.73C1839.3 2355.17 1918.39 2276.09 2015.94 2276.09C2113.5 2276.09 2192.59 2355.17 2192.59 2452.73Z" fill="#D12427"/>
<path d="M824.543 2306.15C824.543 2293.7 834.639 2283.6 847.093 2283.6H1237.96C1250.42 2283.6 1260.51 2293.7 1260.51 2306.15V2614.34C1260.51 2626.79 1250.42 2636.89 1237.96 2636.89H847.093C834.639 2636.89 824.543 2626.79 824.543 2614.34V2306.15Z" fill="#D12427"/>
<path fill-rule="evenodd" clip-rule="evenodd" d="M1117.68 1906.44L1125.2 2019.19L1110.2 2020.19L1102.68 1907.44L1117.68 1906.44ZM1880.62 1960.13L1869.35 2106.71L1854.36 2105.56L1865.63 1958.98L1880.62 1960.13Z" fill="#FEC900"/>
<path d="M1237.96 1207.89C1231.95 1274.03 1290.58 1308.11 1320.65 1316.88C1382.04 1358.22 1521.34 1441.66 1587.49 1444.66C1653.64 1447.67 1667.67 1395.8 1666.42 1369.5C1677.69 1366.99 1704 1352.21 1719.03 1313.12C1734.07 1274.03 1707.76 1244.22 1692.73 1234.2C1707.76 1225.43 1734.82 1196.61 1722.79 1151.51C1710.77 1106.41 1662.66 1105.16 1640.11 1110.17C1646.37 1093.88 1647.63 1053.04 1602.53 1019.97C1557.43 986.895 1501.05 1028.74 1478.5 1053.79C1470.98 1027.48 1438.66 980.88 1369.51 1004.93C1300.35 1028.99 1300.6 1095.13 1309.37 1125.2C1288.08 1125.2 1243.98 1141.74 1237.96 1207.89Z" fill="#212529"/>
<path d="M653.538 1700.55C683.605 1709.57 726.2 1769.46 743.739 1798.27L694.88 1869.68C687.363 1870.93 668.572 1867.42 653.538 1843.37C634.747 1813.3 589.646 1760.69 510.72 1760.69C431.795 1760.69 319.044 1730.62 304.011 1715.59C288.977 1700.55 304.011 1670.49 349.111 1689.28C385.191 1704.31 459.356 1703.06 491.929 1700.55C476.896 1685.52 473.137 1666.73 491.929 1662.97C510.721 1659.21 615.955 1689.28 653.538 1700.55Z" fill="#EFCB96"/>
<path d="M2342.92 1700.55C2312.85 1709.57 2270.26 1769.46 2252.72 1798.27L2301.58 1869.68C2309.1 1870.93 2327.89 1867.42 2342.92 1843.37C2361.71 1813.3 2406.81 1760.69 2485.74 1760.69C2564.66 1760.69 2677.41 1730.62 2692.45 1715.59C2707.48 1700.55 2692.45 1670.49 2647.35 1689.28C2611.27 1704.31 2537.1 1703.06 2504.53 1700.55C2519.56 1685.52 2523.32 1666.73 2504.53 1662.97C2485.74 1659.21 2380.5 1689.28 2342.92 1700.55Z" fill="#EFCB96"/>
<path d="M1365.75 1546.14C1356.73 1555.16 1329.42 1562.42 1316.89 1564.93C1309.37 1600.01 1295.84 1671.67 1301.86 1677.68C1309.37 1685.2 1414.61 1737.81 1429.64 1749.09C1441.67 1758.11 1554.92 1745.33 1610.04 1737.81L1655.14 1553.65C1640.11 1557.41 1607.04 1558.92 1595.01 1534.86C1582.98 1510.81 1590 1434.64 1595.01 1399.56C1608.79 1393.3 1637.1 1371.75 1640.11 1335.67C1643.12 1299.59 1611.3 1295.58 1595.01 1298.09C1579.98 1289.07 1571.21 1276.79 1568.7 1271.78C1564.94 1273.03 1552.92 1273.28 1534.88 1264.26C1516.84 1255.24 1512.33 1222.92 1512.33 1207.88C1502.3 1219.16 1475.49 1240.96 1448.43 1237.95C1421.37 1234.95 1399.58 1211.64 1392.06 1200.37C1385.79 1207.88 1363.4 1215.4 1358.23 1256.74C1350.72 1316.88 1325.66 1308.11 1316.89 1316.88C1316.89 1428.12 1354.47 1480.99 1373.27 1493.52C1374.52 1507.3 1374.77 1537.12 1365.75 1546.14Z" fill="#EFCB96"/>
<path d="M1116.62 2010.57C1130.66 2121.44 1110.77 2476.27 1099.06 2639.82H1864.42C1839.14 2498.99 1853.89 2214.08 1864.42 2089.23C1910.06 2159.14 2019.6 2290.74 2092.62 2257.78C2165.65 2224.82 2314.97 1979.36 2380.51 1860.75L2264.65 1748.38C2208.48 1824.54 2092.62 1973.87 2078.58 1961.88C2061.02 1946.9 1955.7 1684.71 1903.04 1624.78C1860.91 1576.84 1712.28 1549.87 1643.24 1542.38C1633.88 1582.33 1589.87 1662.24 1488.76 1662.24C1387.65 1662.24 1334.29 1582.33 1320.24 1542.38C1279.28 1549.87 1181.22 1575.34 1116.62 1617.29C1035.87 1669.73 905.969 1958.13 884.904 1939.41C868.052 1924.42 781.92 1810.81 740.961 1755.88L621.594 1868.24C675.426 1995.59 798.538 2250.29 860.328 2250.29C922.119 2250.29 1056.93 2090.48 1116.62 2010.57Z" fill="#FEC900"/>
<path d="M1289.75 1907.77C1289.75 1899.47 1296.48 1892.74 1304.78 1892.74H1990.89C1999.19 1892.74 2005.92 1899.47 2005.92 1907.77V2614.34C2005.92 2622.64 1999.19 2629.37 1990.89 2629.37H1304.78C1296.48 2629.37 1289.75 2622.64 1289.75 2614.34V1907.77Z" fill="#F1F1F1"/>
<path d="M982.812 1907.77C982.812 1899.47 989.543 1892.74 997.846 1892.74H1683.96C1692.26 1892.74 1698.99 1899.47 1698.99 1907.77V2614.34C1698.99 2622.64 1692.26 2629.37 1683.96 2629.37H997.846C989.543 2629.37 982.812 2622.64 982.812 2614.34V1907.77Z" fill="#F1F1F1"/>
<path d="M1238.59 1892.74H1412.52V2629.37H1238.59V1892.74Z" fill="#373272"/>
<path d="M1821.76 1892.74H1903.61V2629.37H1821.76V1892.74Z" fill="#373272"/>
<path d="M1855.52 2066.66L1698.99 1892.74H2002.85L2159.39 2066.66H1855.52Z" fill="#E5E5E5"/>
<path d="M1542.45 2066.66L1698.99 1892.74H996.112L839.577 2066.66H1542.45Z" fill="#E5E5E5"/>
<path d="M650.272 1137.02C618.104 1176.75 650.272 1194.96 670.377 1199.1C764.199 1201.86 959.083 1204.07 988.034 1190.83C1024.22 1174.27 1020.2 1137.02 975.971 1124.6C931.74 1112.18 931.74 1058.38 867.404 1058.38C803.069 1058.38 782.964 1124.6 754.817 1128.74C726.67 1132.88 690.481 1087.35 650.272 1137.02Z" fill="#F1F1F1"/>
<path d="M1341.98 824.144C1330.06 826.449 1318.22 818.656 1317.55 806.535C1317.12 798.779 1317.5 791.925 1318.67 785.972C1320.85 774.948 1326.87 762.175 1336.74 747.653C1346.7 732.977 1352.82 722.735 1355.09 716.927C1358.6 708.062 1359.47 699.036 1357.69 689.851C1355.34 677.69 1350.59 669.012 1343.45 663.817C1336.41 658.469 1327.22 656.89 1315.89 659.081C1305.06 661.174 1296.92 666.036 1291.47 673.665C1290.43 675.13 1289.52 676.659 1288.76 678.249C1283.21 689.824 1276.35 702.961 1263.75 705.398C1251.05 707.853 1238.27 699.352 1239.36 686.461C1240.47 673.3 1244.96 661.527 1252.83 651.141C1265.24 634.919 1283.72 624.434 1308.27 619.687C1333.58 614.794 1354.56 617.582 1371.21 628.051C1387.99 638.496 1398.67 655.556 1403.25 679.231C1407.33 700.319 1401.77 722.933 1386.58 747.074L1367.89 775.046C1364.16 781.606 1362.08 789.407 1361.64 798.446C1361.05 810.456 1353.78 821.862 1341.98 824.144ZM1328.85 889.289C1327.38 881.656 1328.52 875.061 1332.28 869.503C1336.01 863.815 1341.84 860.205 1349.78 858.671C1357.83 857.113 1364.67 858.342 1370.28 862.357C1375.86 866.243 1379.37 871.873 1380.79 879.247C1382.17 886.363 1381.05 892.752 1377.44 898.415C1373.84 904.078 1367.88 907.713 1359.57 909.32C1351.26 910.926 1344.37 909.774 1338.92 905.864C1333.58 901.929 1330.23 896.404 1328.85 889.289Z" fill="#FEC900"/>
<path d="M1202.83 911.693C1195.05 916.94 1184.27 914.978 1180.12 906.556C1177.47 901.167 1175.66 896.177 1174.7 891.585C1172.91 883.082 1173.33 872.172 1175.95 858.854C1178.6 845.396 1179.85 836.257 1179.71 831.437C1179.53 824.066 1177.41 817.382 1173.37 811.384C1168.01 803.443 1162.01 798.705 1155.36 797.17C1148.73 795.496 1141.71 797.153 1134.31 802.142C1127.24 806.908 1122.92 812.831 1121.35 819.908C1121.05 821.268 1120.87 822.629 1120.81 823.992C1120.36 833.908 1119.46 845.33 1111.23 850.878C1102.93 856.47 1091.27 854.287 1088.14 844.786C1084.95 835.086 1084.58 825.349 1087.04 815.576C1090.96 800.279 1100.94 787.226 1116.97 776.417C1133.5 765.276 1149.27 760.91 1164.29 763.319C1179.39 765.673 1192.15 774.58 1202.57 790.04C1211.85 803.81 1214.74 821.582 1211.24 843.355L1206.41 868.915C1205.74 874.712 1206.62 880.894 1209.04 887.459C1212.26 896.181 1210.54 906.496 1202.83 911.693ZM1213.21 962.018C1209.85 957.033 1208.66 951.995 1209.66 946.903C1210.59 941.726 1213.65 937.392 1218.83 933.9C1224.09 930.352 1229.33 929.158 1234.53 930.318C1239.68 931.393 1243.88 934.338 1247.12 939.153C1250.26 943.8 1251.4 948.684 1250.54 953.805C1249.69 958.926 1246.55 963.316 1241.13 966.974C1235.7 970.632 1230.45 971.896 1225.38 970.766C1220.4 969.58 1216.34 966.664 1213.21 962.018Z" fill="#FEC900"/>
<path d="M1515.64 838.173C1506.94 834.644 1502.55 824.605 1507.22 816.465C1510.21 811.256 1513.35 806.97 1516.62 803.606C1522.68 797.378 1531.96 791.635 1544.47 786.377C1557.12 781.062 1565.4 777.001 1569.32 774.194C1575.33 769.926 1579.7 764.44 1582.42 757.737C1586.02 748.863 1586.6 741.236 1584.16 734.858C1581.85 728.423 1576.56 723.527 1568.29 720.172C1560.39 716.966 1553.06 716.688 1546.31 719.338C1545.02 719.846 1543.79 720.455 1542.62 721.165C1534.14 726.329 1524.16 731.956 1514.97 728.224C1505.7 724.463 1501 713.569 1507.14 705.669C1513.4 697.605 1521.27 691.865 1530.76 688.451C1545.64 683.163 1562.03 684.154 1579.95 691.424C1598.42 698.918 1610.85 709.567 1617.23 723.373C1623.71 737.215 1623.44 752.775 1616.43 770.052C1610.19 785.441 1597.05 797.76 1577.04 807.01L1553.13 817.267C1547.95 819.947 1543.31 824.124 1539.21 829.799C1533.77 837.338 1524.25 841.669 1515.64 838.173ZM1479.67 874.875C1481.93 869.305 1485.45 865.51 1490.23 863.49C1495.05 861.377 1500.35 861.494 1506.14 863.843C1512.02 866.229 1515.93 869.905 1517.88 874.872C1519.86 879.745 1519.76 884.872 1517.58 890.253C1515.47 895.446 1512.05 899.118 1507.33 901.269C1502.6 903.42 1497.21 903.265 1491.14 900.804C1485.08 898.344 1481.1 894.696 1479.21 889.86C1477.41 885.062 1477.57 880.067 1479.67 874.875Z" fill="#FEC900"/>
<path fill-rule="evenodd" clip-rule="evenodd" d="M-2.29492 2636.89C-2.29492 2632.74 1.07043 2629.37 5.2218 2629.37H2993.12C2997.27 2629.37 3000.63 2632.74 3000.63 2636.89C3000.63 2641.04 2997.27 2644.41 2993.12 2644.41H5.2218C1.07043 2644.41 -2.29492 2641.04 -2.29492 2636.89Z" fill="#D12427"/>
</g>
</g>
<defs>
<clipPath id="clip0_1388_102">
<rect width="3001" height="3000" fill="white"/>
</clipPath>
</defs>
</svg>
