<?xml version="1.0" encoding="UTF-8"?>
<!DOCTYPE svg PUBLIC "-//W3C//DTD SVG 1.1//EN" "http://www.w3.org/Graphics/SVG/1.1/DTD/svg11.dtd">
<!-- Creator: CorelDRAW 2019 (64-Bit) -->
<svg xmlns="http://www.w3.org/2000/svg" xml:space="preserve" width="4.09633in" height="1.51042in" version="1.1" style="shape-rendering:geometricPrecision; text-rendering:geometricPrecision; image-rendering:optimizeQuality; fill-rule:evenodd; clip-rule:evenodd"
viewBox="0 0 3673.93 1354.67"
 xmlns:xlink="http://www.w3.org/1999/xlink">
 <defs>
  <style type="text/css">
   <![CDATA[
    .fil0 {fill:#252523;fill-rule:nonzero}
    .fil2 {fill:#373272;fill-rule:nonzero}
    .fil1 {fill:#D12427;fill-rule:nonzero}
    .fil3 {fill:#FEC900;fill-rule:nonzero}
   ]]>
  </style>
 </defs>
 <g id="Layer_x0020_1">
  <metadata id="CorelCorpID_0Corel-Layer"/>
  <g id="_2286013321072">
   <g>
    <path class="fil0" d="M2329.67 934.8l2.2 -2.73c-0.15,1.38 -2.2,26.79 -9.46,34.96 -6.4,7.22 -25.01,4.53 -35.66,4.44 -11.69,-0.12 -48.65,0.37 -58.47,-1.87 -4.9,-1.13 -10.01,-4.5 -14.42,-3.86l-1.56 33.34c34.07,0.06 68.03,-0.28 101.92,-0.43 35.57,-0.12 63.8,3.89 76.84,-24.18 6.4,-13.81 21.55,-98.7 26.67,-124.42 2.57,-13.04 7.38,-31.01 8.23,-43.9l-74.64 0c4.35,21.67 -5.66,53.73 -10.1,75.95 -1.65,8.24 -4.35,31.99 -9.7,35.24 -6.15,3.8 -35.45,1.74 -40.47,-1.44 -2.79,-14.17 17.85,-88.32 19.56,-109.75l-76.44 0c5.08,24.52 -0.06,35.94 -4.65,59.27 -3.27,16.68 -11.08,43.93 -5.48,60 6.98,20.08 24.22,20.73 47.73,20.7 11.57,0 23.48,0.28 35.02,-0.03 14.09,-0.4 16.32,-3.43 22.9,-11.3l0 -0zm-336.2 11.2l83.15 0.12c-1.01,-14.36 -3.8,-14.48 -0.55,-31.78l12.24 -61.44c4.32,-21.71 4.35,-19.25 37.29,-19.25 18.18,0 13.22,8.05 10.16,23.11 -3.77,18.55 -8.6,46.2 -12.74,63.25 -4.29,17.67 -9.52,19.26 -11.85,25.9l83.94 0.22c-1.74,-14.82 -3.76,-14.08 -0.64,-30.95 1.78,-9.74 3.8,-19.22 5.76,-29.21 3.43,-17.33 11.14,-43.44 4.96,-60.43 -7.2,-19.75 -26.88,-19.38 -50.88,-19.38 -11.66,0 -23.33,-0.09 -34.99,-0.06 -16.56,0.03 -15.61,6.06 -23.76,12.74l12.28 -63.83 -76.93 -0.03c5.36,20.58 1.23,30.61 -2.66,50.27 -3.21,16.14 -6.55,32.82 -9.77,48.83 -2.85,14.08 -11.42,60.49 -15.18,72.5 -2.85,9.21 -7.5,13.04 -9.83,19.44l0 0zm-663.87 -82.84c2.14,-5.72 34.84,-55.66 40.26,-62.61 2.75,3.64 13.13,53.85 14.23,62.73l-54.49 -0.12 0 0zm-95.45 82.75l51.43 0.19c-4.38,-27.28 12.98,-30.31 21.58,-51.03l81.46 -0.12c4.93,3.18 7.01,19.47 7.81,25.26 2.05,14.27 -1.99,17.17 -6.03,25.62l92.88 0.34c-0.98,-4.96 -6.4,-12.52 -8.63,-19.69 -3.55,-11.48 -12.52,-59.11 -15.49,-73.07 -3.31,-15.77 -17.27,-89.39 -20.57,-97.87l-85.04 -0.58c5.66,14.21 8.73,6.12 -4.44,25.68l-48.22 71.79c-16.26,24.19 -39.31,61.04 -57.31,82.57 -3.58,4.32 -7.34,6.55 -9.43,10.93zm485.75 -67.04c-0.16,8.17 -4.75,31.72 -9,36.25 -4.32,4.62 -33.65,5.63 -39.16,1.72 -5.97,-4.26 1.62,-32.73 5.6,-35.24 6.19,-3.92 33.31,-2.72 42.56,-2.72zm-97.39 -46.26l-1.38 6.64c3.18,-1.26 3.86,-2.42 6.77,-3.55 1.56,-0.61 2.02,-0.37 3.52,-0.64 25.29,-1.62 47.94,-1.41 73.19,-1.41 4.16,-0.03 8.48,-0.12 12.62,-0.03 19.19,0.4 8.63,15.64 4.13,17.05 -4.93,1.53 -61.14,0.67 -69.19,0.7 -33.74,0.31 -43.38,12.89 -49.75,42.89 -12.21,57.56 5.54,52.65 78.46,51.86 25.9,-0.3 23.21,-4.9 32.27,-14.48l0.86 14.05 69.31 0.43c-0.89,-6.95 -3.03,-7.93 -2.17,-16.99 3.28,-33.68 28.84,-97.66 6.4,-115.72 -13.32,-10.72 -53.7,-7.26 -74.18,-7.26 -26.48,0 -54.95,-1.01 -81.19,0.12 -3.49,4.47 -8.54,20.11 -9.68,26.33l-0 0zm183.41 80.27l-1.65 33.16c31.47,1.01 64.05,0.09 95.24,0.09 35.33,0 59.42,4.5 76.14,-19.84 8.85,-12.89 22.04,-64.47 3.43,-74.52 -18.09,-9.77 -77.42,1.31 -90.19,-5.97 -3.06,-19.07 18.31,-13.99 49.35,-13.99 10.8,0 20.57,-0.12 31.16,0.95 13.38,1.32 15.77,4.29 24.4,6.92l1.04 -33.52c-21.92,-0.12 -112.99,-1.07 -127.84,0.4 -18.34,1.78 -32.94,11.75 -39.37,24.16 -4.5,8.6 -11.33,41.48 -9.61,52.35 3.49,22.1 21.95,19.63 44.02,19.63l47.54 -0.03c6.65,0.3 8.45,1.22 7.5,8.54 -1.56,11.79 -11.6,9.3 -22.59,9.24 -10.81,0 -21.61,0 -32.45,0 -10.32,0 -21,0.18 -31.29,-0.58 -12.09,-0.92 -15.4,-3.8 -24.83,-6.98l-0 0zm-381.02 50.88l-2.02 35.3c30.73,-0.03 61.41,-0.12 91.9,-0.49 33.8,-0.4 43.75,-10.62 51.07,-39.77 1.74,-6.89 29.39,-142.02 30.31,-152.52l-76.54 -0.12c4.56,25.32 0.49,34.47 -4.31,58.17l-17.11 85.69c-2.14,10.22 -3.21,17.82 -13.01,20.6 -5.57,1.59 -41.91,1.5 -48.56,-1.1 -5.27,-2.08 -5.54,-4.29 -11.73,-5.76l0 0zm-65.7 160.66c-0.49,-5.82 4.81,-30.77 7.1,-35.54 8.54,-0.43 10.5,-1.1 18.4,0.19 0.77,6.98 -1.74,14.72 -3.09,21.43 -2.91,14.29 -0.22,16.99 -22.41,13.93l0 0zm16.65 10.04c0.12,0.24 0,0 0.12,2.2 -1.04,13.84 -6.86,12.15 -19.84,11.97 -21.15,-0.31 -22.5,-2.08 -29.66,-2.39l-0.16 15.03 57.98 0c7.29,-0.71 14.11,-2.57 19.07,-12.74 6.73,-13.81 8.11,-52.93 18.61,-72.16 -31.72,-0.12 -26.63,-2.63 -33.4,5.11 -3.25,-7.13 -8.91,-5.26 -17.48,-5.2 -23.82,0.06 -33.09,-2.73 -38.88,25.93 -2.39,11.66 -8.42,28.99 2.88,33.86 6.95,3 38.85,2.63 40.75,-1.62l0 0zm600.98 -9.46c-0.67,-6.74 4.07,-30.03 6.92,-35.64 5.85,-1.68 12.4,-1.17 18.46,-0.61 0.67,6.65 -4.16,30.61 -6.95,35.85 -5.91,1.5 -12.4,1.19 -18.43,0.4zm-31.9 20.91l-1.26 14.39 61.48 -0.83c14.08,-0.15 17.6,-13.59 20.3,-27.09 3.03,-15.15 5.51,-33.61 10.32,-47.76l3.73 -8.29 -30.46 0 -1.99 5.32c-2.45,-2.69 -2.91,-4.53 -7.65,-5.2 -2.97,-0.46 -8.05,-0.18 -11.21,-0.15 -26.48,0.06 -33,-1.96 -39.03,28.69 -6.89,34.78 -1.93,32.45 27.8,32.63 7.69,0.03 13.16,1.1 16.99,-4.62 0.28,15.03 -4.28,15.86 -18.21,15.67 -13.14,-0.19 -18.58,0.46 -30.8,-2.76l0 0zm143.34 -8.63c15.58,1.44 37.41,0.43 53.57,0.34 19.96,-0.15 24.31,-6.46 28.02,-24.46 3.73,-18.22 10.13,-32.21 -12.98,-33.16 -28.16,-1.13 -28.93,2.94 -28.81,-4.69 0.24,-10.84 15.28,-7.53 33.74,-7.5 6.83,0 11.18,1.78 15.74,1.81l0.21 -15.67c-76.47,-0.89 -75.19,-5.66 -83.27,37.59 -5.26,28.07 14.3,16.19 44.39,19.87l-1.84 11.6c-12.55,0.98 -20.02,0.71 -32.7,0.67 -5.51,0 -12.46,-2.18 -15.52,-1.84l-0.55 15.43 0 0zm-857.25 -48.06l0.18 -3.12 -3.18 0.31 -33.06 1.31 3.74 -19.93c14.94,-0.12 25.96,0.52 39.49,1.68l0.67 -15.46 -71.18 -0.12c0.43,16.72 -10.99,67.66 -16.59,83.67l72.68 0.03 5.57 -15.52c-13.63,2.33 -27.83,2.05 -41.64,1.53l4.04 -21.83c12.7,-1.65 24.86,0.34 36.95,1.29l2.33 -13.84 0 0zm995.35 35.36c-16.59,3.77 -22.41,-0.06 -14.3,-15.55 9.71,-0.92 9.55,-1.01 19.01,-0.58l-4.71 16.13zm-38.08 -37.26l-0.92 2.33c8.48,-1.31 38.11,-2.81 46.26,-0.18 0.98,8.11 -4.01,6.73 -11.79,6.67 -6.65,-0.06 -13.5,-0.18 -20.11,-0.03 -14.42,0.31 -19.17,4.53 -22.29,17.88 -3.77,15.92 -3.64,23.11 13.56,23.6 11.94,0.34 28.5,2.42 34.32,-5.72 2.17,7.13 -5.64,5.76 31.04,5.66 -3.21,-16.96 14.05,-50.27 0.83,-58.72 -6.98,-4.44 -55.68,-2.88 -67.44,-2.33l-3.46 10.84 0 0zm-504.4 14.27c0.52,-5.7 1.1,-8.66 3.15,-12.8l8.85 -0.55 10.59 0.73 -1.74 12.55 -20.85 0.06zm44.51 24.46l1.29 -2.12c-10.8,1.35 -21.18,1.56 -32.54,1.62 -14.97,0.03 -18.52,3.15 -16.23,-11.88l51.22 -0.09c1.56,-6.89 5.3,-21.65 4.41,-28.26 -1.47,-11.02 -14.27,-9.06 -24.4,-9.03 -57.46,0.12 -53.05,-5.3 -61.96,39.19 -2.08,10.44 -3.83,20.11 8.42,21.8 11.24,1.53 53.97,1.16 65.79,-0.03l4.01 -11.2 -0 0zm-135.53 -24.49c0.49,-4.81 1.62,-9.31 3.15,-12.64l7.41 -0.55 5.02 -0.06 7.04 0.55 -1.74 12.68 -20.88 0.03 0 0zm44.57 24.73l1.26 -2.51c-10.47,1.38 -38.36,3.18 -48.71,0.83 -1.35,-3.73 -0.73,-6.06 -0.06,-10.53l51.19 -0.49c11.79,-44.48 2.17,-37.2 -46.41,-37.29 -16.96,-0.06 -26.54,-0.15 -30.67,15.61 -13.56,51.64 -5.27,45.65 29.42,45.67 12.8,0.03 27.43,0.71 39.99,-0.24l4.01 -11.05 0 0zm-395.16 -49.93c3.18,13.84 -6.06,50.27 -11.88,61.17l36.16 0.03c-1.47,-9.46 3.43,-42.64 8.08,-47.85 4.35,-2.11 13.01,-2.02 18.43,-0.28 1.01,5.7 -2.54,18.67 -3.8,25.01 -2.27,11.51 -2.82,13.44 -7.2,23.11l36.09 0.03c-1.99,-17.2 9.28,-42.09 4.31,-53.91 -3.24,-7.75 -12.31,-7.41 -22.56,-7.41 -10.74,0.03 -20.79,-2.36 -25.11,5.05l-0.79 -1.71c-0.15,-0.25 -0.77,-1.26 -0.95,-1.5 -2.72,-3.7 -24.43,-1.81 -30.8,-1.74l0 0zm1106.82 25.17c0.46,-4.47 1.44,-9.03 3.06,-12.43 10.07,-1.04 9.22,-1.26 19.1,0.09 1.74,15.79 -3,12.52 -22.16,12.34zm48.4 11.82c7.96,-36.49 7.1,-37.1 -20.82,-37.04 -57.16,0.09 -52.26,-5.48 -61.17,38.79 -2.14,10.5 -4.07,20.08 7.78,22.1 13.9,2.36 50.15,0.43 66.31,0.4l4.47 -13.9c-11.45,1.96 -18,1.81 -29.88,1.87 -14.39,0 -20.7,3.92 -18.06,-11.14 10.13,-2.75 38.36,0.12 51.37,-1.07l-0 0zm-901.25 24.24c-1.44,-9.46 2.76,-33.64 5.82,-44.08 2.3,-7.93 9.67,-5.63 20.72,-4.01 1.9,11.94 -7.01,38.45 -10.99,48.06 11.78,0.06 24.77,0.67 36.31,-0.4 -2.45,-12.43 2.48,-25.29 4.75,-37.84 3.21,-17.63 -2.48,-23.05 -19.38,-23.02 -14.33,0 -24.52,-2.24 -28.96,4.81 -1.47,-2.12 -1.16,0.46 -1.29,-4.62l-31.26 -0.22c2.2,11.81 -1.41,22.41 -3.61,33.55 -2.63,13.2 -3.49,16.87 -8.21,27.71l36.09 0.06 0 0zm363.51 -60.95c3.8,14.17 -6.71,49.17 -11.75,60.98l36.12 -0.43c-2.14,-10.41 3.86,-40.29 7.96,-48.64l18.43 0.52c1.13,6.71 -2.39,18.61 -3.77,25.56 -2.3,11.94 -3.03,13.5 -7.22,22.93l36.37 -0.09c-2.94,-16.87 9.68,-42.13 3.86,-53.97 -3.64,-7.47 -13.23,-7.22 -22.78,-7.22 -11.69,0.03 -19.59,-2.24 -24.83,5.24 -0.15,-0.31 -0.31,-0.73 -0.4,-0.89l-2.24 -4.35 -29.76 0.37zm551.6 38.85c11.14,5.97 32.88,-0.46 41.69,4.53 -0.3,6.13 -1.35,6.25 -7.56,6.43l-28.84 -0.3c-5.17,-0.37 -7.72,-2.05 -12.15,-2.27l-0.58 13.65c13.81,0.28 27.7,0.09 41.45,0.09 15.58,-0.03 25.13,2.11 33.06,-8.24 4.35,-5.6 9.89,-27.46 2.63,-32.57 -7.22,-5.11 -29.94,-0.12 -39.49,-3.03 -0.92,-8.42 2.3,-6.15 20.02,-6.18 11.33,0 15.03,-0.09 25.26,3.06l0.46 -14.39c-15.1,0.06 -44.45,-1.65 -57.8,0.49 -16.53,2.66 -22.63,22.32 -18.16,38.72l0 0zm-108.89 21.59c-3.8,-18.95 12.86,-61.57 13.1,-83.21l-32.6 0.09c1.23,17.05 -10.07,68.11 -16.59,83.67l36.09 -0.55zm-772.18 -345.24l68.18 0.06 7.53 -36.77 -68.58 -0.12 -7.13 36.83 0 0zm206.61 345.66l36.15 0.03c-1.9,-10.62 1.13,-24.67 4.01,-34.93 3.74,-13.35 21.89,-9.61 29.7,-6.55l4.13 -19.47c-18.4,-1.35 -22.63,-1.59 -32.36,8.29l0.28 -8.51 -30.09 0.03c2.91,14.23 -5.97,46.26 -11.81,61.1l-0 0zm-275 -61.23l-33.37 0.18c2.02,11.97 -3.31,33.46 -6.37,47.15 -1.41,6.28 -3.34,8.51 -5.36,13.99l35.97 0c-2.45,-17.23 6.77,-42.98 9.12,-61.32l0 0zm378.45 61.32c-1.71,-20.14 7.07,-41.36 9.4,-61.29l-33.34 0c2.79,17.33 -6,47.57 -11.88,61.26l35.82 0.03 0 0zm-16.19 -82.53l-3.06 14.54 29.7 0.49 3.18 -16.1c-8.91,-0.09 -23.11,-2.27 -29.82,1.07l0 0zm-390.97 14.88l30.13 0.12 2.91 -16.1 -29.73 0 -3.31 15.98 -0 -0z"/>
    <g>
     <polygon class="fil1" points="1428.76,619.32 1915.25,112.66 1891.34,0 "/>
     <polygon class="fil2" points="2117.18,703.57 2229.75,723.93 1907.38,22.47 "/>
     <polygon class="fil3" points="1432.34,638.98 1506.37,554.42 2206.48,733.66 "/>
    </g>
    <path class="fil0" d="M2487.27 770.8c9.74,0 18.58,3.95 24.98,10.35 6.4,6.4 10.38,15.25 10.38,25.01 0,9.77 -3.98,18.61 -10.38,25.01 -6.4,6.4 -15.24,10.35 -24.98,10.35 -9.77,0 -18.62,-3.95 -25.01,-10.38 -6.4,-6.4 -10.38,-15.25 -10.38,-24.98 0,-9.77 3.98,-18.61 10.38,-25.01 6.4,-6.4 15.25,-10.35 25.01,-10.35zm20.3 15.03c-5.2,-5.2 -12.37,-8.42 -20.3,-8.42 -7.96,0 -15.12,3.21 -20.33,8.42 -5.2,5.2 -8.42,12.37 -8.42,20.33 0,7.93 3.21,15.12 8.39,20.3 5.24,5.2 12.4,8.42 20.36,8.42 7.93,0 15.09,-3.21 20.3,-8.39 5.2,-5.2 8.42,-12.4 8.42,-20.33 0,-7.93 -3.21,-15.12 -8.42,-20.33l0 0z"/>
    <path class="fil0" d="M2481.52 809.71l0 13.47 -9.18 0 0 -35.58 14.02 0c4.68,0 8.11,0.77 10.29,2.36 2.2,1.56 3.31,4.04 3.31,7.44 0,2.36 -0.58,4.29 -1.72,5.82 -1.13,1.5 -2.85,2.6 -5.14,3.31 1.25,0.3 2.39,0.95 3.37,1.96 1.01,1.01 2.02,2.54 3.03,4.59l4.99 10.1 -9.8 0 -4.32 -8.85c-0.89,-1.78 -1.78,-3 -2.66,-3.64 -0.89,-0.65 -2.08,-0.98 -3.58,-0.98l-2.6 0 0 0zm3.86 -6.34c1.93,0 3.31,-0.37 4.13,-1.07 0.83,-0.7 1.25,-1.9 1.25,-3.52 0,-1.62 -0.43,-2.79 -1.25,-3.49 -0.83,-0.7 -2.2,-1.04 -4.13,-1.04l-3.86 0 0 9.12 3.86 0z"/>
   </g>
   <g>
    <path class="fil1" d="M43.15 1305.61l5.71 29.66 29.15 0c-0.69,-0.62 -1.26,-1.21 -1.71,-1.76 -0.45,-0.55 -0.83,-1.11 -1.14,-1.66 -0.31,-0.55 -0.57,-1.19 -0.78,-1.92 -0.21,-0.73 -0.41,-1.57 -0.62,-2.54l-4.36 -21.78c0.41,0.07 0.79,0.1 1.14,0.1 0.35,0 0.66,0 0.94,0 1.66,0 3.28,-0.24 4.87,-0.73 1.59,-0.48 2.87,-1.14 3.84,-1.97 0.42,-0.35 0.76,-0.69 1.04,-1 0.28,-0.31 0.55,-0.72 0.83,-1.24 0.28,-0.52 0.55,-1.23 0.83,-2.13 0.28,-0.9 0.62,-2.14 1.04,-3.75l3 -11.74c0.14,-0.42 0.28,-1.19 0.42,-2.3 0.14,-1.11 0.21,-1.87 0.21,-2.28 0,-1.8 -0.54,-3.66 -1.61,-5.56 -1.07,-1.9 -2.44,-3.44 -4.1,-4.63 -0.76,-0.48 -1.47,-0.9 -2.13,-1.24 -0.66,-0.35 -1.43,-0.59 -2.33,-0.73 -0.9,-0.14 -1.99,-0.24 -3.27,-0.31 -1.28,-0.07 -2.92,-0.11 -4.93,-0.11l-51.65 0c0.28,0.76 0.45,1.4 0.52,1.92 0.07,0.52 0.1,1.09 0.1,1.71 0,0.69 -0.07,1.65 -0.21,2.87 -0.14,1.21 -0.28,2.09 -0.41,2.64l-12.45 48.4c-0.42,1.52 -0.79,2.82 -1.14,3.89 -0.35,1.07 -0.69,2.04 -1.04,2.92 -0.35,0.87 -0.76,1.68 -1.24,2.44 -0.48,0.76 -1.04,1.59 -1.66,2.49l31.01 0c-0.35,-0.76 -0.55,-1.38 -0.62,-1.86 -0.07,-0.49 -0.1,-1.07 -0.1,-1.77 0,-0.69 0.07,-1.59 0.21,-2.69 0.14,-1.11 0.31,-2.04 0.52,-2.8l5.29 -20.53 6.85 0zm-3.73 -11.83l4.15 -16.29 13.28 0c1.45,0 2.49,0.19 3.11,0.57 0.62,0.38 0.93,1.05 0.93,2.02 0,0.76 -0.14,1.56 -0.41,2.39l-1.77 6.95c-0.2,0.97 -0.45,1.73 -0.72,2.28 -0.28,0.55 -0.66,0.99 -1.14,1.3 -0.49,0.31 -1.09,0.52 -1.81,0.62 -0.73,0.1 -1.65,0.16 -2.75,0.16l-12.86 0zm107.14 30.49c-1.31,0.41 -2.59,0.69 -3.82,0.83 -1.25,0.14 -2.98,0.2 -5.19,0.2l-24.41 0c-0.97,0 -1.73,-0.02 -2.28,-0.05 -0.55,-0.04 -0.97,-0.05 -1.23,-0.05 -0.28,0 -0.48,-0.02 -0.62,-0.05 -0.14,-0.03 -0.28,-0.08 -0.42,-0.16 -0.55,-0.14 -1.03,-0.48 -1.45,-1.02 -0.41,-0.55 -0.62,-1.14 -0.62,-1.74 0,-0.28 0.04,-0.69 0.1,-1.25 0.07,-0.53 0.17,-1.05 0.31,-1.54l1.25 -4.62 41.69 0 3.22 -12.71c0.48,-1.66 0.73,-3.35 0.73,-5.08 0,-3.68 -1.32,-6.74 -3.94,-9.16 -1.38,-1.4 -3.06,-2.33 -5.03,-2.82 -1.97,-0.48 -4.86,-0.72 -8.66,-0.72l-31.84 0c-4.5,0 -8.05,0.93 -10.68,2.8 -2.63,1.88 -4.46,4.79 -5.49,8.73l-5.81 22.46c-0.35,1.52 -0.52,2.9 -0.52,4.15 0,3.47 1.42,6.51 4.25,9.16 2.49,2.42 6.4,3.63 11.72,3.63l44.29 0 4.46 -10.99zm-35.89 -19.4l1.45 -5.76c0.28,-1.02 0.55,-1.85 0.83,-2.45 0.28,-0.62 0.62,-1.12 1.04,-1.5 0.41,-0.36 0.93,-0.6 1.55,-0.71 0.62,-0.11 1.42,-0.16 2.39,-0.16l7.78 0c2.49,0 3.74,0.83 3.74,2.47 0,0.19 -0.04,0.5 -0.11,0.91 -0.07,0.42 -0.17,0.9 -0.31,1.43l-1.56 5.76 -16.8 0zm85.26 -38.79l-27.28 0c0.28,0.76 0.45,1.4 0.52,1.92 0.07,0.52 0.1,1.09 0.1,1.71 0,0.69 -0.07,1.64 -0.2,2.85 -0.14,1.21 -0.28,2.09 -0.42,2.64l-12.45 48.23c-0.42,1.59 -0.79,2.92 -1.14,3.99 -0.35,1.07 -0.69,2.02 -1.04,2.85 -0.35,0.83 -0.76,1.65 -1.24,2.44 -0.48,0.79 -1.04,1.64 -1.66,2.54l29.25 0c-0.28,-0.76 -0.45,-1.38 -0.52,-1.86 -0.07,-0.49 -0.11,-1.07 -0.11,-1.77 0,-0.76 0.07,-1.73 0.21,-2.9 0.14,-1.18 0.28,-2.04 0.41,-2.6l15.56 -60.05zm35.68 0l-24.89 0 -3.53 13.48 24.89 0 3.52 -13.48zm-4.77 18.36l-27.28 0c0.35,0.76 0.55,1.4 0.62,1.92 0.07,0.52 0.1,1.09 0.1,1.71 0,0.76 -0.07,1.69 -0.2,2.8 -0.14,1.11 -0.31,2.01 -0.52,2.7l-7.68 29.87c-0.42,1.59 -0.79,2.92 -1.14,3.99 -0.35,1.07 -0.69,2.02 -1.04,2.85 -0.35,0.83 -0.76,1.65 -1.24,2.44 -0.48,0.79 -1.04,1.64 -1.66,2.54l29.25 0c-0.28,-0.76 -0.45,-1.38 -0.52,-1.86 -0.07,-0.49 -0.1,-1.07 -0.1,-1.77 0,-0.76 0.07,-1.73 0.21,-2.9 0.14,-1.18 0.28,-2.04 0.41,-2.6l10.79 -41.69zm11.2 -0.1l-5.49 11.93c1.52,-0.76 3.06,-1.28 4.62,-1.56 1.55,-0.28 3.61,-0.41 6.17,-0.41l24.68 0c2.01,0 3.41,0.19 4.2,0.57 0.79,0.38 1.19,1.09 1.19,2.13 0,0.76 -0.14,1.47 -0.42,2.13 -0.28,0.66 -0.59,1.16 -0.93,1.51 -0.42,0.34 -0.78,0.53 -1.09,0.57 -0.31,0.04 -1.13,0.05 -2.44,0.05l-23.75 0c-1.45,0 -2.68,0.04 -3.68,0.1 -1,0.07 -1.9,0.17 -2.7,0.31 -0.79,0.14 -1.5,0.33 -2.13,0.57 -0.62,0.24 -1.24,0.57 -1.87,0.99 -1.59,0.97 -2.85,2.23 -3.79,3.79 -0.93,1.55 -1.74,3.65 -2.44,6.27l-1.25 4.88c-0.28,0.83 -0.47,1.66 -0.57,2.49 -0.11,0.83 -0.16,1.59 -0.16,2.28 0,1.73 0.36,3.37 1.09,4.93 0.73,1.56 1.81,2.92 3.27,4.1 1.38,1.18 2.94,2.02 4.67,2.54 1.73,0.52 3.84,0.78 6.33,0.78l14.73 0c2.56,0 4.6,-0.38 6.12,-1.14 1.52,-0.76 2.77,-2.04 3.74,-3.84l0 1.45c0,0.69 0.03,1.26 0.1,1.71 0.07,0.45 0.24,1.06 0.52,1.81l24.58 0c-0.35,-0.76 -0.55,-1.4 -0.62,-1.92 -0.07,-0.52 -0.1,-1.09 -0.1,-1.71 0,-0.78 0.07,-1.71 0.21,-2.82 0.14,-1.11 0.31,-2.01 0.52,-2.69l5.7 -22.04c0.35,-1.17 0.61,-2.42 0.78,-3.73 0.17,-1.31 0.26,-2.39 0.26,-3.23 0,-1.73 -0.4,-3.47 -1.19,-5.24 -0.79,-1.76 -1.85,-3.28 -3.16,-4.53 -1.31,-1.18 -2.63,-1.97 -3.94,-2.39 -1.31,-0.42 -3.08,-0.62 -5.29,-0.62l-46.47 0zm32.15 26.66l-2.8 10.79c-0.21,0.83 -0.43,1.49 -0.67,1.97 -0.24,0.48 -0.55,0.85 -0.93,1.09 -0.38,0.24 -0.88,0.4 -1.5,0.47 -0.62,0.07 -1.49,0.11 -2.59,0.11l-6.12 0c-1.86,0 -3.15,-0.21 -3.83,-0.62 -0.69,-0.41 -1.04,-1.21 -1.04,-2.38 0,-0.28 0.02,-0.5 0.05,-0.67 0.04,-0.17 0.16,-0.64 0.36,-1.4l1.35 -5.18c0.21,-0.9 0.43,-1.63 0.67,-2.18 0.24,-0.55 0.57,-0.97 0.99,-1.25 0.42,-0.28 0.94,-0.47 1.56,-0.57 0.62,-0.11 1.45,-0.16 2.49,-0.16l12.03 0zm71.57 -44.91l-27.28 0c0.28,0.76 0.45,1.4 0.52,1.92 0.07,0.52 0.11,1.09 0.11,1.71 0,0.76 -0.07,1.73 -0.21,2.9 -0.14,1.18 -0.28,2.04 -0.42,2.6l-12.44 48.23c-0.42,1.52 -0.8,2.82 -1.14,3.89 -0.35,1.07 -0.69,2.04 -1.04,2.91 -0.35,0.86 -0.76,1.69 -1.25,2.49 -0.48,0.79 -1.04,1.64 -1.66,2.54l26.86 0 1.25 -4.72c0.55,1.81 1.43,3.06 2.64,3.71 1.21,0.67 3.3,1 6.27,1l18.57 0c4.5,0 8,-1.03 10.53,-3.11 2.52,-2.07 4.37,-5.43 5.55,-10.06l4.67 -18.26c0.28,-0.97 0.5,-2.11 0.67,-3.42 0.17,-1.32 0.26,-2.46 0.26,-3.43 0,-3.59 -1.52,-6.64 -4.56,-9.13 -1.59,-1.31 -3.16,-2.21 -4.72,-2.69 -1.56,-0.49 -3.75,-0.73 -6.59,-0.73l-14.63 0c-1.11,0 -2.02,0.04 -2.75,0.1 -0.73,0.07 -1.35,0.21 -1.87,0.42 -0.52,0.21 -0.99,0.48 -1.4,0.83 -0.41,0.35 -0.87,0.79 -1.35,1.35l5.4 -21.06zm-9.75 59.22c-3.11,0 -4.67,-0.93 -4.67,-2.8 0,-0.35 0.02,-0.64 0.05,-0.88 0.04,-0.24 0.19,-0.88 0.47,-1.92l5.29 -20.54c0.55,-2.14 1.18,-3.51 1.86,-4.1 0.69,-0.59 1.97,-0.88 3.84,-0.88l6.02 0c3.39,0 5.08,1.04 5.08,3.11 0,0.28 -0.03,0.55 -0.1,0.83 -0.07,0.28 -0.28,1.11 -0.62,2.49l-4.67 17.94c-0.42,1.52 -0.78,2.73 -1.09,3.63 -0.31,0.9 -0.73,1.57 -1.25,2.02 -0.52,0.45 -1.14,0.75 -1.87,0.88 -0.72,0.14 -1.71,0.2 -2.96,0.2l-5.39 0zm84.64 -59.22l-27.28 0c0.28,0.76 0.45,1.4 0.52,1.92 0.07,0.52 0.11,1.09 0.11,1.71 0,0.69 -0.07,1.64 -0.21,2.85 -0.14,1.21 -0.28,2.09 -0.42,2.64l-12.44 48.23c-0.42,1.59 -0.8,2.92 -1.14,3.99 -0.35,1.07 -0.69,2.02 -1.04,2.85 -0.35,0.83 -0.76,1.65 -1.25,2.44 -0.48,0.79 -1.04,1.64 -1.66,2.54l29.25 0c-0.28,-0.76 -0.45,-1.38 -0.52,-1.86 -0.07,-0.49 -0.1,-1.07 -0.1,-1.77 0,-0.76 0.07,-1.73 0.2,-2.9 0.14,-1.18 0.28,-2.04 0.42,-2.6l15.56 -60.05zm59.23 58.19c-1.31,0.41 -2.6,0.69 -3.82,0.83 -1.25,0.14 -2.97,0.2 -5.19,0.2l-24.41 0c-0.97,0 -1.73,-0.02 -2.28,-0.05 -0.55,-0.04 -0.97,-0.05 -1.23,-0.05 -0.28,0 -0.48,-0.02 -0.62,-0.05 -0.14,-0.03 -0.28,-0.08 -0.41,-0.16 -0.55,-0.14 -1.04,-0.48 -1.45,-1.02 -0.42,-0.55 -0.62,-1.14 -0.62,-1.74 0,-0.28 0.04,-0.69 0.11,-1.25 0.07,-0.53 0.17,-1.05 0.31,-1.54l1.24 -4.62 41.7 0 3.22 -12.71c0.48,-1.66 0.72,-3.35 0.72,-5.08 0,-3.68 -1.31,-6.74 -3.94,-9.16 -1.38,-1.4 -3.06,-2.33 -5.03,-2.82 -1.97,-0.48 -4.86,-0.72 -8.66,-0.72l-31.84 0c-4.5,0 -8.06,0.93 -10.68,2.8 -2.63,1.88 -4.46,4.79 -5.5,8.73l-5.81 22.46c-0.35,1.52 -0.52,2.9 -0.52,4.15 0,3.47 1.42,6.51 4.25,9.16 2.49,2.42 6.39,3.63 11.72,3.63l44.29 0 4.46 -10.99zm-35.89 -19.4l1.45 -5.76c0.28,-1.02 0.55,-1.85 0.83,-2.45 0.28,-0.62 0.62,-1.12 1.03,-1.5 0.42,-0.36 0.94,-0.6 1.56,-0.71 0.62,-0.11 1.42,-0.16 2.39,-0.16l7.78 0c2.49,0 3.73,0.83 3.73,2.47 0,0.19 -0.04,0.5 -0.1,0.91 -0.07,0.42 -0.17,0.9 -0.31,1.43l-1.55 5.76 -16.8 0zm102.06 5.91l28.11 0c2.28,0 4.17,-0.04 5.65,-0.1 1.49,-0.07 2.76,-0.21 3.84,-0.42 1.07,-0.2 2.01,-0.52 2.8,-0.93 0.79,-0.42 1.64,-0.97 2.54,-1.66 0.9,-0.64 1.68,-1.31 2.33,-2.04 0.66,-0.72 1.25,-1.54 1.77,-2.44 0.52,-0.9 1,-1.97 1.45,-3.22 0.45,-1.26 0.88,-2.71 1.3,-4.37l3.11 -12.27c0.35,-1.25 0.57,-2.18 0.67,-2.8 0.11,-0.62 0.16,-1.28 0.16,-1.97 0,-1.74 -0.36,-3.42 -1.09,-5.05 -0.72,-1.62 -1.71,-3.03 -2.96,-4.22 -0.76,-0.62 -1.5,-1.16 -2.23,-1.61 -0.72,-0.45 -1.59,-0.79 -2.59,-1.04 -1,-0.24 -2.14,-0.41 -3.42,-0.52 -1.28,-0.11 -2.78,-0.16 -4.51,-0.16l-54.35 0c0.28,0.76 0.45,1.4 0.52,1.92 0.07,0.52 0.1,1.09 0.1,1.71 0,0.69 -0.07,1.65 -0.21,2.87 -0.14,1.21 -0.28,2.09 -0.41,2.64l-12.45 48.3c-0.42,1.52 -0.79,2.82 -1.14,3.89 -0.34,1.07 -0.69,2.04 -1.03,2.92 -0.35,0.86 -0.76,1.69 -1.25,2.49 -0.48,0.79 -1.03,1.64 -1.66,2.54l31.01 0c-0.34,-0.76 -0.55,-1.38 -0.62,-1.86 -0.07,-0.49 -0.1,-1.07 -0.1,-1.77 0,-0.76 0.07,-1.69 0.21,-2.8 0.14,-1.11 0.31,-2.01 0.52,-2.7l3.94 -15.35zm3.01 -11.51l5.6 -21.78 12.86 0c2.01,0 3.39,0.24 4.15,0.73 0.76,0.48 1.14,1.36 1.14,2.68 0,0.69 -0.1,1.38 -0.31,2.06l-2.49 9.92c-0.35,1.37 -0.71,2.47 -1.09,3.3 -0.38,0.83 -0.88,1.47 -1.5,1.96 -0.62,0.48 -1.4,0.79 -2.33,0.93 -0.93,0.14 -2.13,0.21 -3.58,0.21l-12.44 0zm78.62 -14.83l-23.34 0c0.35,0.76 0.55,1.4 0.62,1.92 0.07,0.52 0.11,1.09 0.11,1.71 0,0.76 -0.07,1.69 -0.21,2.8 -0.14,1.11 -0.31,2.01 -0.52,2.7l-7.68 29.87c-0.41,1.52 -0.79,2.82 -1.14,3.89 -0.35,1.07 -0.69,2.04 -1.04,2.91 -0.34,0.86 -0.76,1.69 -1.24,2.49 -0.48,0.79 -1.04,1.64 -1.66,2.54l29.25 0c-0.28,-0.76 -0.45,-1.38 -0.52,-1.86 -0.07,-0.49 -0.1,-1.07 -0.1,-1.77 0,-0.76 0.07,-1.73 0.21,-2.9 0.14,-1.18 0.28,-2.04 0.41,-2.6l6.02 -23.34c0.48,-1.66 1.21,-2.8 2.18,-3.42 0.97,-0.62 2.56,-0.94 4.77,-0.94l8.71 0c1.87,0 3.47,0.21 4.82,0.62 1.35,0.41 2.57,1.07 3.68,1.97l4.35 -16.6 -14.11 0c-1.87,0 -3.49,0.14 -4.88,0.42 -1.38,0.28 -2.61,0.74 -3.68,1.4 -1.07,0.66 -2.06,1.54 -2.96,2.64 -0.9,1.11 -1.8,2.49 -2.7,4.15l0.31 -2.7 0.1 -3.52 0.21 -2.39zm48.54 -0.1c-3.46,0 -6.17,0.12 -8.14,0.36 -1.97,0.24 -3.71,0.71 -5.24,1.4 -1.87,0.83 -3.47,2.11 -4.82,3.86 -1.35,1.73 -2.3,3.7 -2.85,5.91l-5.81 22.35c-0.2,0.97 -0.36,1.75 -0.46,2.33 -0.11,0.59 -0.16,1.26 -0.16,2.02 0,2.02 0.38,3.87 1.14,5.56 0.76,1.69 1.9,3.18 3.43,4.43 0.69,0.62 1.35,1.11 1.97,1.45 0.62,0.35 1.37,0.6 2.23,0.78 0.87,0.17 1.94,0.29 3.22,0.36 1.28,0.07 2.92,0.1 4.93,0.1l30.7 0c2.01,0 3.74,-0.05 5.19,-0.16 1.45,-0.1 2.75,-0.28 3.89,-0.52 1.14,-0.24 2.13,-0.55 2.96,-0.93 0.83,-0.38 1.62,-0.85 2.38,-1.4 0.83,-0.62 1.52,-1.26 2.08,-1.88 0.55,-0.62 1.05,-1.31 1.5,-2.08 0.45,-0.76 0.87,-1.64 1.25,-2.64 0.38,-1 0.74,-2.2 1.09,-3.59l4.77 -18.7c0.34,-1.25 0.59,-2.32 0.72,-3.22 0.14,-0.9 0.21,-1.73 0.21,-2.49 0,-1.61 -0.24,-3.13 -0.73,-4.58 -0.48,-1.45 -1.14,-2.73 -1.97,-3.84 -1.38,-1.81 -3.03,-3.08 -4.93,-3.8 -1.9,-0.73 -4.48,-1.09 -7.73,-1.09l-30.81 0zm3.1 14.4c0.21,-0.9 0.47,-1.64 0.76,-2.21 0.31,-0.59 0.73,-1.04 1.25,-1.35 0.52,-0.31 1.18,-0.54 1.97,-0.67 0.78,-0.14 1.76,-0.2 2.94,-0.2l6.19 0c1.86,0 3.21,0.28 4.03,0.83 0.83,0.55 1.24,1.42 1.24,2.57 0,0.42 -0.04,0.85 -0.1,1.3 -0.07,0.45 -0.28,1.23 -0.62,2.33l-5.06 19.64c-0.21,0.97 -0.45,1.73 -0.71,2.27 -0.28,0.55 -0.66,0.99 -1.14,1.3 -0.48,0.31 -1.09,0.52 -1.81,0.62 -0.73,0.11 -1.62,0.16 -2.73,0.16l-7.33 0c-3.16,0 -4.76,-0.93 -4.76,-2.78 0,-0.21 0.02,-0.47 0.05,-0.78 0.04,-0.31 0.19,-1.06 0.47,-2.23l5.38 -20.78zm125 -32.71l-27.28 0c0.35,0.76 0.55,1.4 0.62,1.92 0.07,0.52 0.11,1.09 0.11,1.71 0,0.69 -0.07,1.63 -0.21,2.8 -0.14,1.18 -0.31,2.08 -0.52,2.7l-3.63 14.21c-0.76,-1.95 -1.74,-3.28 -2.96,-3.98 -1.21,-0.71 -3.03,-1.05 -5.44,-1.05l-18.26 0c-4.7,0 -8.37,0.97 -11,2.9 -2.63,1.95 -4.5,5.03 -5.6,9.25l-5.19 20.28c-0.28,1.04 -0.5,1.87 -0.67,2.49 -0.17,0.62 -0.29,1.14 -0.36,1.56 -0.07,0.41 -0.1,0.79 -0.1,1.14 0,0.35 0,0.78 0,1.26 0,3.32 1.21,6.08 3.63,8.32 1.52,1.38 3.13,2.35 4.82,2.9 1.69,0.55 4.06,0.83 7.1,0.83l14.11 0c1.25,0 2.33,-0.07 3.27,-0.2 0.94,-0.14 1.75,-0.36 2.44,-0.67 0.69,-0.31 1.31,-0.75 1.87,-1.3 0.55,-0.55 1.11,-1.28 1.66,-2.18l0 4.35 26.14 0c-0.35,-0.76 -0.55,-1.4 -0.62,-1.92 -0.07,-0.52 -0.11,-1.09 -0.11,-1.71 0,-0.69 0.07,-1.64 0.21,-2.85 0.14,-1.23 0.28,-2.11 0.42,-2.66l15.56 -60.09zm-50.72 59.38c-1.8,0 -3.09,-0.21 -3.89,-0.62 -0.8,-0.41 -1.19,-1.11 -1.19,-2.07 0,-0.76 0.14,-1.52 0.41,-2.28l0.52 -1.66 4.57 -17.74c0.41,-1.52 0.78,-2.72 1.09,-3.58 0.31,-0.87 0.67,-1.54 1.09,-2.02 0.41,-0.48 0.95,-0.8 1.61,-0.94 0.66,-0.14 1.5,-0.2 2.54,-0.2l5.91 0c3.11,0 4.67,1.03 4.67,3.11 0,0.41 -0.07,1.07 -0.21,1.97 -0.14,0.9 -0.28,1.62 -0.41,2.18l-4.98 19.29c-0.48,1.87 -1.11,3.1 -1.87,3.68 -0.76,0.59 -2.14,0.88 -4.15,0.88l-5.71 0zm122.5 -41.07l-27.28 0c0.28,0.83 0.45,1.49 0.52,1.97 0.07,0.48 0.1,1.04 0.1,1.66 0,0.76 -0.07,1.73 -0.2,2.9 -0.14,1.18 -0.28,2.04 -0.42,2.59l-7.16 27.59c-0.41,1.66 -1,2.78 -1.76,3.37 -0.76,0.59 -2.01,0.88 -3.73,0.88l-6.85 0c-2.7,0 -4.05,-0.97 -4.05,-2.9 0,-0.35 0.02,-0.59 0.05,-0.73 0.04,-0.14 0.12,-0.52 0.26,-1.14l9.34 -36.2 -27.28 0c0.35,0.76 0.55,1.4 0.62,1.92 0.07,0.52 0.1,1.09 0.1,1.71 0,0.76 -0.07,1.73 -0.2,2.9 -0.14,1.18 -0.28,2.04 -0.42,2.59l-6.43 24.58c-0.14,0.76 -0.29,1.66 -0.47,2.7 -0.17,1.04 -0.26,1.8 -0.26,2.28 0,1.8 0.47,3.58 1.4,5.32 0.93,1.75 2.19,3.22 3.79,4.39 1.18,0.91 2.56,1.55 4.15,1.95 1.59,0.38 3.56,0.57 5.91,0.57l18.88 0c2.01,0 3.55,-0.29 4.62,-0.9 1.07,-0.59 1.98,-1.66 2.75,-3.18l0.31 4.08 22.92 0c-0.34,-0.76 -0.55,-1.4 -0.62,-1.88 -0.07,-0.48 -0.1,-1.09 -0.1,-1.78 0,-0.78 0.07,-1.69 0.21,-2.78 0.14,-1.09 0.31,-2.01 0.52,-2.78l10.79 -41.69zm63.48 0l-38.79 0c-1.73,0 -3.2,0.04 -4.41,0.1 -1.21,0.07 -2.27,0.17 -3.16,0.31 -0.9,0.14 -1.71,0.36 -2.44,0.67 -0.72,0.31 -1.43,0.67 -2.13,1.09 -3.11,1.94 -5.29,5.2 -6.53,9.77l-5.5 21.21c-0.35,1.45 -0.59,2.57 -0.73,3.37 -0.14,0.79 -0.2,1.61 -0.2,2.45 0,3.46 1.48,6.4 4.46,8.83 1.38,1.18 2.99,1.99 4.82,2.44 1.83,0.45 4.34,0.67 7.52,0.67l33.81 0 4.56 -11.2c-1.18,0.48 -2.4,0.81 -3.68,0.99 -1.28,0.17 -3.03,0.26 -5.24,0.26l-14.42 0c-2.49,0 -4.27,-0.26 -5.34,-0.78 -1.07,-0.52 -1.61,-1.37 -1.61,-2.52 0,-0.35 0.04,-0.69 0.11,-1.04 0.07,-0.34 0.2,-0.9 0.41,-1.66l5.08 -19.85c0.28,-1.11 0.57,-1.98 0.88,-2.63 0.31,-0.66 0.73,-1.18 1.25,-1.55 0.52,-0.38 1.18,-0.64 1.97,-0.78 0.79,-0.14 1.78,-0.2 2.96,-0.2l17.01 0c1.8,0 3.34,0.14 4.62,0.41 1.28,0.28 2.4,0.69 3.37,1.24l1.35 -11.61zm57.05 0l-20.12 0 2.91 -11.2 -25.21 1.56 -2.59 9.65 -10.37 0 -2.6 9.96 10.48 0 -6.33 24.17c-0.34,1.52 -0.52,2.9 -0.52,4.15 0,1.59 0.28,3.09 0.83,4.51 0.55,1.42 1.31,2.66 2.28,3.74 0.97,1.07 2.11,1.95 3.42,2.64 1.31,0.69 2.76,1.14 4.36,1.35 1.18,0.14 2.56,0.24 4.15,0.31 1.59,0.07 2.87,0.1 3.84,0.1l25.31 0 2.91 -11.51c-1.59,0.55 -3.01,0.95 -4.25,1.19 -1.24,0.24 -2.7,0.36 -4.36,0.36l-6.64 0c-2.49,0 -4.27,-0.31 -5.34,-0.93 -1.07,-0.62 -1.61,-1.62 -1.61,-2.99 0,-0.42 0.07,-0.9 0.21,-1.45l6.64 -25.64 20.12 0 2.49 -9.96zm63.48 0l-45.01 0c-4.84,0 -8.4,0.69 -10.68,2.07 -1.38,0.76 -2.64,2.01 -3.79,3.74 -1.14,1.73 -1.99,3.59 -2.54,5.6l-2.59 10.37c-0.28,0.83 -0.41,1.83 -0.41,3.01 0,3.8 1.42,6.71 4.25,8.71 1.11,0.83 2.47,1.4 4.1,1.71 1.62,0.31 4.06,0.47 7.31,0.47l15.04 0c1.04,0 1.73,0.11 2.08,0.31 0.35,0.21 0.52,0.66 0.52,1.35 0,2.42 -1.25,3.63 -3.74,3.63l-20.02 0 -4.36 -0.1 -4.25 -0.21c-0.76,-0.07 -1.52,-0.19 -2.28,-0.36 -0.76,-0.17 -1.77,-0.47 -3.01,-0.88l-1.14 11.51 43.05 0c2.01,0 3.72,-0.05 5.13,-0.16 1.42,-0.1 2.68,-0.28 3.79,-0.52 1.11,-0.24 2.09,-0.59 2.96,-1.03 0.87,-0.45 1.71,-0.99 2.54,-1.61 1.52,-1.11 2.71,-2.4 3.58,-3.89 0.87,-1.49 1.64,-3.55 2.33,-6.17l2.08 -7.88c0.2,-0.83 0.38,-1.73 0.52,-2.7 0.14,-0.97 0.21,-1.76 0.21,-2.39 0,-1.24 -0.29,-2.52 -0.88,-3.83 -0.59,-1.31 -1.36,-2.46 -2.33,-3.43 -1.04,-1.03 -2.18,-1.78 -3.43,-2.23 -1.24,-0.45 -2.87,-0.67 -4.87,-0.67l-18.05 0c-1.66,0 -2.73,-0.11 -3.22,-0.31 -0.48,-0.2 -0.73,-0.69 -0.73,-1.45 0,-1.8 1.18,-2.69 3.53,-2.69l21.37 0c1.66,0 3.08,0.04 4.25,0.1 1.18,0.05 2.23,0.16 3.16,0.29 0.93,0.12 1.8,0.31 2.59,0.54 0.79,0.23 1.61,0.5 2.44,0.83l0.52 -11.72zm26.03 18.98l-3.22 12.34 36.51 0 3.21 -12.34 -36.51 0zm136.18 -37.34l-39.1 0c-3.67,-0.14 -6.86,0.02 -9.6,0.47 -2.73,0.45 -5.06,1.24 -7,2.38 -1.94,1.14 -3.53,2.64 -4.77,4.53 -1.24,1.87 -2.21,4.15 -2.9,6.85l-9.44 36.45c-0.48,1.81 -0.79,3.11 -0.94,3.91 -0.14,0.79 -0.2,1.61 -0.2,2.44 0,2.28 0.6,4.39 1.81,6.33 1.21,1.95 2.82,3.41 4.82,4.37 0.69,0.35 1.31,0.6 1.86,0.78 0.55,0.17 1.28,0.31 2.18,0.42 0.9,0.1 2.13,0.17 3.68,0.2 1.56,0.04 3.68,0.09 6.38,0.16l35.58 0 5.6 -13.9c-3.18,1.59 -6.71,2.39 -10.58,2.39l-17.63 0c-1.59,0 -2.57,-0.02 -2.96,-0.05 -0.38,-0.04 -0.85,-0.12 -1.4,-0.26 -1.59,-0.48 -2.39,-1.45 -2.39,-2.91 0,-0.35 0.04,-0.72 0.1,-1.12 0.07,-0.42 0.24,-1.07 0.52,-1.97l8.92 -34.78c0.28,-1.11 0.59,-1.99 0.94,-2.68 0.35,-0.69 0.81,-1.23 1.4,-1.61 0.59,-0.38 1.35,-0.62 2.28,-0.73 0.93,-0.1 2.19,-0.16 3.79,-0.16l18.26 0c1.03,0 1.94,0.02 2.69,0.05 0.76,0.04 1.47,0.14 2.13,0.31 0.66,0.17 1.33,0.4 2.02,0.67 0.69,0.28 1.52,0.62 2.49,1.03l1.45 -13.59zm21.57 18.36c-3.45,0 -6.17,0.12 -8.14,0.36 -1.97,0.24 -3.72,0.71 -5.24,1.4 -1.86,0.83 -3.47,2.11 -4.82,3.86 -1.35,1.73 -2.3,3.7 -2.85,5.91l-5.81 22.35c-0.2,0.97 -0.36,1.75 -0.47,2.33 -0.1,0.59 -0.16,1.26 -0.16,2.02 0,2.02 0.38,3.87 1.14,5.56 0.76,1.69 1.9,3.18 3.43,4.43 0.69,0.62 1.35,1.11 1.97,1.45 0.62,0.35 1.37,0.6 2.23,0.78 0.87,0.17 1.94,0.29 3.22,0.36 1.28,0.07 2.92,0.1 4.93,0.1l30.7 0c2.01,0 3.74,-0.05 5.19,-0.16 1.45,-0.1 2.75,-0.28 3.89,-0.52 1.14,-0.24 2.13,-0.55 2.96,-0.93 0.83,-0.38 1.62,-0.85 2.38,-1.4 0.83,-0.62 1.52,-1.26 2.08,-1.88 0.55,-0.62 1.05,-1.31 1.5,-2.08 0.45,-0.76 0.87,-1.64 1.25,-2.64 0.38,-1 0.74,-2.2 1.09,-3.59l4.77 -18.7c0.35,-1.25 0.59,-2.32 0.72,-3.22 0.14,-0.9 0.21,-1.73 0.21,-2.49 0,-1.61 -0.24,-3.13 -0.72,-4.58 -0.49,-1.45 -1.14,-2.73 -1.97,-3.84 -1.38,-1.81 -3.02,-3.08 -4.93,-3.8 -1.9,-0.73 -4.48,-1.09 -7.73,-1.09l-30.81 0zm3.1 14.4c0.21,-0.9 0.47,-1.64 0.76,-2.21 0.31,-0.59 0.73,-1.04 1.25,-1.35 0.52,-0.31 1.18,-0.54 1.97,-0.67 0.78,-0.14 1.76,-0.2 2.94,-0.2l6.19 0c1.87,0 3.21,0.28 4.03,0.83 0.83,0.55 1.24,1.42 1.24,2.57 0,0.42 -0.04,0.85 -0.1,1.3 -0.07,0.45 -0.28,1.23 -0.62,2.33l-5.06 19.64c-0.21,0.97 -0.45,1.73 -0.71,2.27 -0.28,0.55 -0.66,0.99 -1.14,1.3 -0.48,0.31 -1.09,0.52 -1.81,0.62 -0.73,0.11 -1.62,0.16 -2.73,0.16l-7.33 0c-3.16,0 -4.75,-0.93 -4.75,-2.78 0,-0.21 0.02,-0.47 0.05,-0.78 0.04,-0.31 0.19,-1.06 0.47,-2.23l5.38 -20.78z"/>
    <path class="fil1" d="M1323.18 1284.35l-26.35 0c0.35,0.76 0.55,1.4 0.62,1.92 0.07,0.52 0.1,1.09 0.1,1.71 0,0.78 -0.07,1.71 -0.2,2.82 -0.14,1.11 -0.31,2.01 -0.52,2.69l-7.68 29.94c-0.41,1.59 -0.79,2.92 -1.14,3.99 -0.35,1.07 -0.69,2.02 -1.04,2.85 -0.34,0.83 -0.76,1.66 -1.24,2.46 -0.48,0.79 -1.04,1.64 -1.66,2.54l29.25 0c-0.28,-0.76 -0.45,-1.38 -0.52,-1.86 -0.07,-0.49 -0.1,-1.07 -0.1,-1.77 0,-0.76 0.07,-1.73 0.21,-2.9 0.14,-1.18 0.28,-2.04 0.41,-2.6l6.85 -26.35c0.55,-2.35 1.26,-3.85 2.13,-4.51 0.87,-0.66 2.44,-0.99 4.72,-0.99l6.22 0c1.25,0 2.25,0.28 3.01,0.83 0.76,0.55 1.14,1.31 1.14,2.28 0,0.14 0,0.28 0,0.41 0,0.14 -0.03,0.33 -0.1,0.57 -0.07,0.24 -0.14,0.57 -0.21,0.99 -0.07,0.41 -0.2,1.04 -0.41,1.87l-5.81 22.2c-0.41,1.59 -0.79,2.92 -1.14,3.99 -0.35,1.07 -0.69,2.02 -1.03,2.85 -0.35,0.83 -0.76,1.65 -1.25,2.44 -0.48,0.79 -1.04,1.64 -1.66,2.54l29.35 0c-0.35,-0.76 -0.55,-1.38 -0.62,-1.86 -0.07,-0.49 -0.1,-1.07 -0.1,-1.77 0,-0.76 0.07,-1.69 0.2,-2.8 0.14,-1.11 0.31,-2.01 0.52,-2.7l6.85 -26.76c0.55,-2.08 1.21,-3.44 1.97,-4.1 0.76,-0.66 2.11,-0.99 4.05,-0.99l6.12 0c3.25,0 4.87,1.11 4.87,3.32 0,0.41 -0.05,0.88 -0.16,1.4 -0.1,0.52 -0.22,1.12 -0.36,1.81l-5.81 22.61c-0.42,1.52 -0.79,2.82 -1.14,3.89 -0.34,1.07 -0.71,2.04 -1.09,2.91 -0.38,0.86 -0.79,1.69 -1.25,2.49 -0.45,0.79 -0.98,1.64 -1.61,2.54l29.32 0c-0.35,-0.76 -0.55,-1.38 -0.62,-1.86 -0.07,-0.49 -0.1,-1.07 -0.1,-1.77 0,-0.78 0.07,-1.69 0.21,-2.76 0.14,-1.07 0.31,-1.99 0.52,-2.75l5.74 -22.25c0.2,-0.9 0.38,-1.63 0.52,-2.18 0.14,-0.55 0.24,-1.04 0.31,-1.45 0.07,-0.42 0.12,-0.79 0.16,-1.14 0.04,-0.34 0.05,-0.72 0.05,-1.14 0,-1.81 -0.34,-3.58 -1.03,-5.3 -0.69,-1.73 -1.65,-3.25 -2.82,-4.58 -1.32,-1.38 -2.75,-2.35 -4.27,-2.9 -1.52,-0.55 -3.41,-0.83 -5.62,-0.83l-18.2 0c-2.21,0 -3.84,0.33 -4.87,1 -1.04,0.66 -2.01,1.97 -2.91,3.93 -0.76,-1.95 -1.61,-3.27 -2.54,-3.93 -0.94,-0.67 -2.58,-1 -4.93,-1l-25.1 0c-1.38,0 -2.54,0.05 -3.47,0.16 -0.94,0.1 -1.75,0.35 -2.44,0.72 -0.69,0.38 -1.3,0.88 -1.81,1.5 -0.52,0.62 -1.09,1.45 -1.71,2.49l1.25 -4.87zm73.64 69.29l27.28 0c-0.35,-0.76 -0.55,-1.4 -0.62,-1.92 -0.07,-0.52 -0.11,-1.12 -0.11,-1.81 0,-0.78 0.07,-1.69 0.21,-2.76 0.14,-1.07 0.31,-1.95 0.52,-2.64l3.63 -14.24c0.83,1.95 1.83,3.28 3.01,3.98 1.18,0.71 2.97,1.05 5.4,1.05l18.26 0c4.7,0 8.37,-0.97 10.99,-2.9 2.63,-1.94 4.5,-5.01 5.6,-9.23l5.18 -20.23c0.28,-1.04 0.5,-1.87 0.67,-2.49 0.17,-0.62 0.3,-1.14 0.36,-1.56 0.07,-0.42 0.1,-0.79 0.1,-1.14 0,-0.35 0,-0.79 0,-1.35 0,-3.18 -1.21,-5.91 -3.63,-8.19 -1.52,-1.38 -3.13,-2.35 -4.82,-2.91 -1.69,-0.55 -4.06,-0.83 -7.11,-0.83l-14.11 0c-1.24,0 -2.33,0.07 -3.27,0.21 -0.94,0.14 -1.75,0.36 -2.44,0.67 -0.69,0.31 -1.31,0.74 -1.87,1.3 -0.55,0.55 -1.11,1.28 -1.66,2.18l0 -4.36 -26.14 0c0.35,0.76 0.55,1.38 0.62,1.87 0.07,0.48 0.1,1.07 0.1,1.76 0,0.76 -0.07,1.71 -0.21,2.85 -0.14,1.14 -0.31,2.02 -0.52,2.64l-15.45 60.06zm50.72 -59.43c1.8,0 3.09,0.21 3.89,0.62 0.79,0.42 1.19,1.11 1.19,2.08 0,0.76 -0.14,1.52 -0.41,2.28l-0.52 1.66 -4.57 17.74c-0.41,1.52 -0.78,2.73 -1.09,3.63 -0.31,0.9 -0.69,1.57 -1.14,2.02 -0.45,0.45 -0.99,0.75 -1.61,0.88 -0.62,0.14 -1.45,0.2 -2.49,0.2l-5.91 0c-3.11,0 -4.67,-1.07 -4.67,-3.21 0,-0.42 0.07,-1.04 0.21,-1.87 0.14,-0.83 0.28,-1.55 0.41,-2.18l4.98 -19.29c0.49,-1.87 1.11,-3.1 1.87,-3.68 0.76,-0.59 2.14,-0.88 4.15,-0.88l5.71 0zm95.84 30.08c-1.31,0.41 -2.6,0.69 -3.82,0.83 -1.25,0.14 -2.97,0.2 -5.19,0.2l-24.41 0c-0.97,0 -1.73,-0.02 -2.28,-0.05 -0.55,-0.04 -0.97,-0.05 -1.23,-0.05 -0.28,0 -0.48,-0.02 -0.62,-0.05 -0.14,-0.03 -0.28,-0.08 -0.41,-0.16 -0.55,-0.14 -1.04,-0.48 -1.45,-1.02 -0.42,-0.55 -0.62,-1.14 -0.62,-1.74 0,-0.28 0.04,-0.69 0.11,-1.25 0.07,-0.53 0.17,-1.05 0.31,-1.54l1.24 -4.62 41.7 0 3.21 -12.71c0.48,-1.66 0.73,-3.35 0.73,-5.08 0,-3.68 -1.31,-6.74 -3.94,-9.16 -1.38,-1.4 -3.06,-2.33 -5.03,-2.82 -1.97,-0.48 -4.86,-0.72 -8.66,-0.72l-31.84 0c-4.49,0 -8.05,0.93 -10.68,2.8 -2.63,1.88 -4.46,4.79 -5.5,8.73l-5.81 22.46c-0.35,1.52 -0.52,2.9 -0.52,4.15 0,3.47 1.42,6.51 4.25,9.16 2.49,2.42 6.39,3.63 11.72,3.63l44.29 0 4.46 -10.99zm-35.89 -19.4l1.45 -5.76c0.28,-1.02 0.55,-1.85 0.83,-2.45 0.28,-0.62 0.62,-1.12 1.04,-1.5 0.42,-0.36 0.94,-0.6 1.56,-0.71 0.62,-0.11 1.42,-0.16 2.38,-0.16l7.78 0c2.49,0 3.74,0.83 3.74,2.47 0,0.19 -0.04,0.5 -0.11,0.91 -0.07,0.42 -0.17,0.9 -0.31,1.43l-1.55 5.76 -16.8 0zm103.52 -20.54l-20.12 0 2.91 -11.2 -25.2 1.56 -2.6 9.65 -10.37 0 -2.6 9.96 10.48 0 -6.33 24.17c-0.35,1.52 -0.52,2.9 -0.52,4.15 0,1.59 0.28,3.09 0.83,4.51 0.55,1.42 1.31,2.66 2.28,3.74 0.97,1.07 2.11,1.95 3.42,2.64 1.31,0.69 2.76,1.14 4.36,1.35 1.18,0.14 2.56,0.24 4.15,0.31 1.59,0.07 2.87,0.1 3.84,0.1l25.31 0 2.91 -11.51c-1.59,0.55 -3.01,0.95 -4.25,1.19 -1.24,0.24 -2.7,0.36 -4.35,0.36l-6.64 0c-2.49,0 -4.27,-0.31 -5.34,-0.93 -1.07,-0.62 -1.61,-1.62 -1.61,-2.99 0,-0.42 0.07,-0.9 0.21,-1.45l6.64 -25.64 20.12 0 2.49 -9.96zm37.34 -18.26l-24.89 0 -3.53 13.48 24.89 0 3.52 -13.48zm-4.77 18.36l-27.28 0c0.35,0.76 0.55,1.4 0.62,1.92 0.07,0.52 0.1,1.09 0.1,1.71 0,0.76 -0.07,1.69 -0.2,2.8 -0.14,1.11 -0.31,2.01 -0.52,2.7l-7.68 29.87c-0.41,1.59 -0.79,2.92 -1.14,3.99 -0.35,1.07 -0.69,2.02 -1.04,2.85 -0.34,0.83 -0.76,1.65 -1.24,2.44 -0.48,0.79 -1.04,1.64 -1.66,2.54l29.25 0c-0.28,-0.76 -0.45,-1.38 -0.52,-1.86 -0.07,-0.49 -0.1,-1.07 -0.1,-1.77 0,-0.76 0.07,-1.73 0.21,-2.9 0.14,-1.18 0.28,-2.04 0.41,-2.6l10.79 -41.69zm59.64 -0.1l-20.12 0 2.91 -11.2 -25.21 1.56 -2.59 9.65 -10.37 0 -2.59 9.96 10.48 0 -6.33 24.17c-0.35,1.52 -0.52,2.9 -0.52,4.15 0,1.59 0.28,3.09 0.83,4.51 0.55,1.42 1.31,2.66 2.28,3.74 0.96,1.07 2.11,1.95 3.42,2.64 1.31,0.69 2.76,1.14 4.35,1.35 1.18,0.14 2.56,0.24 4.15,0.31 1.59,0.07 2.87,0.1 3.83,0.1l25.31 0 2.91 -11.51c-1.59,0.55 -3.01,0.95 -4.25,1.19 -1.24,0.24 -2.7,0.36 -4.36,0.36l-6.64 0c-2.49,0 -4.27,-0.31 -5.34,-0.93 -1.07,-0.62 -1.61,-1.62 -1.61,-2.99 0,-0.42 0.07,-0.9 0.21,-1.45l6.64 -25.64 20.12 0 2.49 -9.96zm37.34 -18.26l-24.89 0 -3.53 13.48 24.89 0 3.52 -13.48zm-4.77 18.36l-27.28 0c0.35,0.76 0.55,1.4 0.62,1.92 0.07,0.52 0.1,1.09 0.1,1.71 0,0.76 -0.07,1.69 -0.2,2.8 -0.14,1.11 -0.31,2.01 -0.52,2.7l-7.68 29.87c-0.41,1.59 -0.79,2.92 -1.14,3.99 -0.35,1.07 -0.69,2.02 -1.04,2.85 -0.35,0.83 -0.76,1.65 -1.24,2.44 -0.48,0.79 -1.04,1.64 -1.66,2.54l29.25 0c-0.28,-0.76 -0.45,-1.38 -0.52,-1.86 -0.07,-0.49 -0.1,-1.07 -0.1,-1.77 0,-0.76 0.07,-1.73 0.21,-2.9 0.14,-1.18 0.28,-2.04 0.41,-2.6l10.79 -41.69zm34.33 41.07l-3.84 -29.77c-0.21,-1.52 -0.31,-3.08 -0.31,-4.67 0,-1.38 0.1,-2.54 0.31,-3.47 0.21,-0.93 0.62,-1.99 1.24,-3.16l-28.21 0c0.28,0.69 0.54,1.31 0.78,1.87 0.24,0.55 0.45,1.16 0.62,1.81 0.17,0.66 0.33,1.42 0.47,2.28 0.14,0.87 0.31,1.95 0.52,3.27l6.02 41.59 27.17 0 29.15 -43.25c0.76,-1.18 1.4,-2.14 1.92,-2.9 0.52,-0.76 0.99,-1.4 1.4,-1.92 0.42,-0.52 0.83,-0.97 1.25,-1.35 0.41,-0.38 0.9,-0.85 1.45,-1.4l-15.04 0c-0.21,2.76 -1.25,5.5 -3.11,8.2l-21.78 32.88zm95.42 -1.24c-1.31,0.41 -2.59,0.69 -3.82,0.83 -1.25,0.14 -2.98,0.2 -5.19,0.2l-24.41 0c-0.97,0 -1.73,-0.02 -2.28,-0.05 -0.55,-0.04 -0.97,-0.05 -1.23,-0.05 -0.28,0 -0.48,-0.02 -0.62,-0.05 -0.14,-0.03 -0.28,-0.08 -0.42,-0.16 -0.55,-0.14 -1.03,-0.48 -1.45,-1.02 -0.41,-0.55 -0.62,-1.14 -0.62,-1.74 0,-0.28 0.04,-0.69 0.1,-1.25 0.07,-0.53 0.17,-1.05 0.31,-1.54l1.25 -4.62 41.69 0 3.22 -12.71c0.48,-1.66 0.73,-3.35 0.73,-5.08 0,-3.68 -1.32,-6.74 -3.94,-9.16 -1.38,-1.4 -3.06,-2.33 -5.03,-2.82 -1.97,-0.48 -4.86,-0.72 -8.66,-0.72l-31.84 0c-4.5,0 -8.05,0.93 -10.68,2.8 -2.63,1.88 -4.46,4.79 -5.5,8.73l-5.81 22.46c-0.35,1.52 -0.52,2.9 -0.52,4.15 0,3.47 1.42,6.51 4.25,9.16 2.49,2.42 6.4,3.63 11.72,3.63l44.29 0 4.46 -10.99zm-35.89 -19.4l1.45 -5.76c0.28,-1.02 0.55,-1.85 0.83,-2.45 0.28,-0.62 0.62,-1.12 1.04,-1.5 0.41,-0.36 0.93,-0.6 1.55,-0.71 0.62,-0.11 1.42,-0.16 2.39,-0.16l7.78 0c2.49,0 3.74,0.83 3.74,2.47 0,0.19 -0.04,0.5 -0.11,0.91 -0.07,0.42 -0.17,0.9 -0.31,1.43l-1.56 5.76 -16.8 0zm102.06 5.91l28.11 0c2.28,0 4.17,-0.04 5.65,-0.1 1.49,-0.07 2.77,-0.21 3.84,-0.42 1.07,-0.2 2.01,-0.52 2.8,-0.93 0.79,-0.42 1.64,-0.97 2.54,-1.66 0.9,-0.64 1.68,-1.31 2.33,-2.04 0.66,-0.72 1.25,-1.54 1.76,-2.44 0.52,-0.9 1,-1.97 1.45,-3.22 0.45,-1.26 0.88,-2.71 1.3,-4.37l3.11 -12.27c0.35,-1.25 0.57,-2.18 0.67,-2.8 0.1,-0.62 0.16,-1.28 0.16,-1.97 0,-1.74 -0.36,-3.42 -1.09,-5.05 -0.72,-1.62 -1.71,-3.03 -2.95,-4.22 -0.76,-0.62 -1.51,-1.16 -2.23,-1.61 -0.73,-0.45 -1.59,-0.79 -2.59,-1.04 -1.01,-0.24 -2.15,-0.41 -3.43,-0.52 -1.28,-0.11 -2.78,-0.16 -4.51,-0.16l-54.35 0c0.28,0.76 0.45,1.4 0.52,1.92 0.07,0.52 0.11,1.09 0.11,1.71 0,0.69 -0.07,1.65 -0.21,2.87 -0.14,1.21 -0.28,2.09 -0.42,2.64l-12.45 48.3c-0.41,1.52 -0.79,2.82 -1.14,3.89 -0.35,1.07 -0.69,2.04 -1.04,2.92 -0.34,0.86 -0.76,1.69 -1.24,2.49 -0.48,0.79 -1.04,1.64 -1.66,2.54l31.01 0c-0.35,-0.76 -0.55,-1.38 -0.62,-1.86 -0.07,-0.49 -0.1,-1.07 -0.1,-1.77 0,-0.76 0.07,-1.69 0.2,-2.8 0.14,-1.11 0.31,-2.01 0.52,-2.7l3.94 -15.35zm3.01 -11.51l5.6 -21.78 12.86 0c2.01,0 3.39,0.24 4.15,0.73 0.76,0.48 1.14,1.36 1.14,2.68 0,0.69 -0.1,1.38 -0.31,2.06l-2.49 9.92c-0.35,1.37 -0.71,2.47 -1.09,3.3 -0.38,0.83 -0.88,1.47 -1.5,1.96 -0.62,0.48 -1.4,0.79 -2.33,0.93 -0.94,0.14 -2.13,0.21 -3.58,0.21l-12.45 0zm78.62 -14.83l-23.34 0c0.35,0.76 0.55,1.4 0.62,1.92 0.07,0.52 0.1,1.09 0.1,1.71 0,0.76 -0.07,1.69 -0.21,2.8 -0.14,1.11 -0.31,2.01 -0.52,2.7l-7.67 29.87c-0.42,1.52 -0.79,2.82 -1.14,3.89 -0.35,1.07 -0.69,2.04 -1.04,2.91 -0.35,0.86 -0.76,1.69 -1.24,2.49 -0.49,0.79 -1.04,1.64 -1.66,2.54l29.25 0c-0.28,-0.76 -0.45,-1.38 -0.52,-1.86 -0.07,-0.49 -0.1,-1.07 -0.1,-1.77 0,-0.76 0.07,-1.73 0.2,-2.9 0.14,-1.18 0.28,-2.04 0.42,-2.6l6.01 -23.34c0.49,-1.66 1.21,-2.8 2.18,-3.42 0.97,-0.62 2.56,-0.94 4.77,-0.94l8.71 0c1.87,0 3.48,0.21 4.82,0.62 1.35,0.41 2.58,1.07 3.68,1.97l4.36 -16.6 -14.11 0c-1.87,0 -3.49,0.14 -4.88,0.42 -1.38,0.28 -2.61,0.74 -3.68,1.4 -1.07,0.66 -2.06,1.54 -2.96,2.64 -0.9,1.11 -1.8,2.49 -2.69,4.15l0.31 -2.7 0.11 -3.52 0.21 -2.39zm62.02 -18.36l-24.89 0 -3.53 13.48 24.89 0 3.52 -13.48zm-4.77 18.36l-27.28 0c0.35,0.76 0.55,1.4 0.62,1.92 0.07,0.52 0.1,1.09 0.1,1.71 0,0.76 -0.07,1.69 -0.2,2.8 -0.14,1.11 -0.31,2.01 -0.52,2.7l-7.68 29.87c-0.41,1.59 -0.79,2.92 -1.14,3.99 -0.35,1.07 -0.69,2.02 -1.04,2.85 -0.34,0.83 -0.76,1.65 -1.24,2.44 -0.48,0.79 -1.04,1.64 -1.66,2.54l29.25 0c-0.28,-0.76 -0.45,-1.38 -0.52,-1.86 -0.07,-0.49 -0.1,-1.07 -0.1,-1.77 0,-0.76 0.07,-1.73 0.21,-2.9 0.14,-1.18 0.28,-2.04 0.41,-2.6l10.79 -41.69zm63.48 -0.1l-38.79 0c-1.73,0 -3.2,0.04 -4.41,0.1 -1.21,0.07 -2.27,0.17 -3.16,0.31 -0.9,0.14 -1.71,0.36 -2.44,0.67 -0.73,0.31 -1.44,0.67 -2.13,1.09 -3.11,1.94 -5.29,5.2 -6.53,9.77l-5.5 21.21c-0.35,1.45 -0.59,2.57 -0.73,3.37 -0.14,0.79 -0.2,1.61 -0.2,2.45 0,3.46 1.49,6.4 4.46,8.83 1.38,1.18 2.99,1.99 4.82,2.44 1.83,0.45 4.34,0.67 7.52,0.67l33.81 0 4.57 -11.2c-1.18,0.48 -2.4,0.81 -3.68,0.99 -1.28,0.17 -3.03,0.26 -5.24,0.26l-14.42 0c-2.49,0 -4.27,-0.26 -5.34,-0.78 -1.07,-0.52 -1.61,-1.37 -1.61,-2.52 0,-0.35 0.04,-0.69 0.11,-1.04 0.07,-0.34 0.21,-0.9 0.41,-1.66l5.08 -19.85c0.28,-1.11 0.57,-1.98 0.88,-2.63 0.31,-0.66 0.73,-1.18 1.25,-1.55 0.52,-0.38 1.18,-0.64 1.97,-0.78 0.79,-0.14 1.78,-0.2 2.96,-0.2l17.01 0c1.8,0 3.34,0.14 4.62,0.41 1.28,0.28 2.4,0.69 3.37,1.24l1.35 -11.61zm38.38 -18.26l-24.89 0 -3.53 13.48 24.89 0 3.53 -13.48zm-4.77 18.36l-27.28 0c0.35,0.76 0.55,1.4 0.62,1.92 0.07,0.52 0.1,1.09 0.1,1.71 0,0.76 -0.07,1.69 -0.2,2.8 -0.14,1.11 -0.31,2.01 -0.52,2.7l-7.68 29.87c-0.41,1.59 -0.79,2.92 -1.14,3.99 -0.35,1.07 -0.69,2.02 -1.04,2.85 -0.34,0.83 -0.76,1.65 -1.24,2.44 -0.48,0.79 -1.04,1.64 -1.66,2.54l29.25 0c-0.28,-0.76 -0.45,-1.38 -0.52,-1.86 -0.07,-0.49 -0.11,-1.07 -0.11,-1.77 0,-0.76 0.07,-1.73 0.21,-2.9 0.14,-1.18 0.28,-2.04 0.42,-2.6l10.78 -41.69zm35.16 -0.1l-26.24 0c0.35,0.76 0.55,1.4 0.62,1.92 0.07,0.52 0.1,1.09 0.1,1.71 0,0.78 -0.07,1.71 -0.21,2.82 -0.14,1.11 -0.31,2.01 -0.52,2.69l-7.68 29.94c-0.42,1.59 -0.79,2.92 -1.14,3.99 -0.35,1.07 -0.69,2.02 -1.04,2.85 -0.35,0.83 -0.76,1.66 -1.24,2.46 -0.48,0.79 -1.04,1.64 -1.66,2.54l29.25 0c-0.28,-0.76 -0.45,-1.38 -0.52,-1.86 -0.07,-0.49 -0.1,-1.07 -0.1,-1.77 0,-0.76 0.07,-1.73 0.21,-2.9 0.14,-1.18 0.28,-2.04 0.41,-2.6l6.95 -26.97c0.55,-2.01 1.23,-3.32 2.02,-3.94 0.79,-0.62 2.2,-0.93 4.2,-0.93l5.91 0c0.9,0 1.49,0 1.76,0 0.28,0 0.52,0.04 0.73,0.1 1.59,0.35 2.39,1.18 2.39,2.49 0,0.14 0,0.28 0,0.41 0,0.14 -0.04,0.33 -0.11,0.57 -0.07,0.24 -0.16,0.6 -0.26,1.09 -0.11,0.49 -0.26,1.14 -0.47,1.97l-5.81 22.51c-0.41,1.59 -0.79,2.92 -1.14,3.99 -0.34,1.07 -0.69,2.02 -1.03,2.85 -0.35,0.83 -0.76,1.65 -1.25,2.44 -0.48,0.79 -1.04,1.64 -1.66,2.54l29.25 0c-0.28,-0.76 -0.45,-1.38 -0.52,-1.86 -0.07,-0.49 -0.1,-1.07 -0.1,-1.77 0,-0.78 0.07,-1.74 0.2,-2.92 0.14,-1.18 0.28,-2.04 0.42,-2.59l5.29 -20.57c0.35,-1.33 0.64,-2.77 0.88,-4.32 0.24,-1.56 0.36,-2.82 0.36,-3.8 0,-1.52 -0.29,-3.06 -0.88,-4.62 -0.59,-1.55 -1.37,-2.92 -2.33,-4.11 -2.49,-2.91 -6.15,-4.36 -11,-4.36l-16.8 0c-1.31,0 -2.39,0.05 -3.22,0.16 -0.83,0.1 -1.56,0.33 -2.18,0.67 -0.62,0.35 -1.16,0.81 -1.61,1.4 -0.45,0.59 -0.95,1.4 -1.5,2.44l1.24 -4.66zm92.94 0l-1.35 4.93c-0.48,-1.95 -1.25,-3.27 -2.28,-3.93 -1.04,-0.67 -2.77,-1 -5.19,-1l-17.32 0c-5.47,0 -9.54,0.9 -12.24,2.69 -0.9,0.55 -1.69,1.16 -2.38,1.81 -0.69,0.66 -1.3,1.42 -1.81,2.28 -0.52,0.86 -0.99,1.86 -1.4,3 -0.42,1.14 -0.83,2.51 -1.25,4.1l-4.98 19.09c-0.21,0.83 -0.38,1.74 -0.52,2.75 -0.14,1 -0.21,1.85 -0.21,2.54 0,1.94 0.48,3.8 1.45,5.6 0.97,1.8 2.25,3.28 3.84,4.46 1.31,0.97 2.9,1.62 4.77,1.97 1.87,0.35 4.46,0.52 7.78,0.52l10.58 0c2.9,0 5.06,-0.23 6.48,-0.67 1.42,-0.45 2.64,-1.3 3.68,-2.54l-1.76 6.64c-0.28,0.97 -0.48,1.75 -0.62,2.33 -0.14,0.59 -0.28,1.04 -0.42,1.35 -0.14,0.31 -0.29,0.55 -0.47,0.73 -0.17,0.17 -0.4,0.36 -0.67,0.57 -0.62,0.48 -1.33,0.8 -2.13,0.94 -0.79,0.14 -2.2,0.2 -4.2,0.2l-21.89 0c-3.04,0 -5.44,-0.14 -7.21,-0.41 -1.76,-0.28 -3.4,-0.79 -4.93,-1.56l-0.83 11.93 47.4 0c4.15,0 7.46,-0.28 9.95,-0.83 2.49,-0.55 4.39,-1.49 5.71,-2.8 0.62,-0.62 1.12,-1.16 1.5,-1.61 0.38,-0.45 0.76,-1.16 1.14,-2.09 0.38,-0.93 0.79,-2.23 1.25,-3.89 0.45,-1.66 1.09,-4.01 1.92,-7.07l10.37 -40.19c0.42,-1.52 0.8,-2.82 1.14,-3.89 0.35,-1.07 0.69,-2.04 1.04,-2.92 0.35,-0.87 0.76,-1.68 1.25,-2.44 0.48,-0.76 1.04,-1.62 1.66,-2.59l-26.86 0zm-21.47 41.07c-1.8,0 -3.04,-0.24 -3.73,-0.73 -0.69,-0.48 -1.04,-1.38 -1.04,-2.69 0,-0.42 0.02,-0.76 0.05,-1.04 0.04,-0.28 0.22,-1 0.57,-2.18l4.87 -18.88c0.55,-2.01 1.3,-3.44 2.23,-4.3 0.93,-0.87 2.26,-1.3 3.99,-1.3l5.4 0c3.46,0 5.18,1.14 5.18,3.42 0,0.21 0,0.42 0,0.62 0,0.14 -0.03,0.36 -0.1,0.67 -0.07,0.31 -0.17,0.74 -0.31,1.3 -0.14,0.55 -0.31,1.35 -0.52,2.39l-4.15 16.08c-0.41,1.45 -0.78,2.63 -1.09,3.53 -0.31,0.9 -0.71,1.57 -1.19,2.02 -0.48,0.45 -1.06,0.74 -1.71,0.88 -0.66,0.14 -1.54,0.21 -2.64,0.21l-5.81 0zm72.4 -22.09l-3.21 12.34 36.51 0 3.21 -12.34 -36.51 0zm115.03 31.95c0.69,0 1.49,-0.02 2.38,-0.05 0.9,-0.04 1.83,-0.09 2.8,-0.16 1.31,-0.07 2.46,-0.17 3.43,-0.31 0.97,-0.14 1.81,-0.34 2.54,-0.62 0.72,-0.28 1.42,-0.64 2.07,-1.09 0.66,-0.45 1.4,-1.06 2.23,-1.81 0.9,-0.83 1.68,-1.62 2.33,-2.35 0.66,-0.73 1.23,-1.59 1.71,-2.59 0.48,-1 0.93,-2.18 1.35,-3.53 0.41,-1.35 0.87,-3.03 1.35,-5.05l8.4 -32.39c0.21,-0.76 0.38,-1.75 0.52,-2.97 0.14,-1.21 0.21,-2.23 0.21,-3.06 0,-2.07 -0.5,-4.08 -1.5,-6.01 -1,-1.96 -2.37,-3.55 -4.1,-4.79 -0.76,-0.48 -1.5,-0.9 -2.23,-1.24 -0.73,-0.35 -1.59,-0.61 -2.6,-0.78 -1,-0.17 -2.21,-0.29 -3.63,-0.36 -1.42,-0.07 -3.2,-0.11 -5.34,-0.11l-51.45 0c0.28,0.76 0.45,1.4 0.52,1.92 0.07,0.52 0.1,1.09 0.1,1.71 0,0.69 -0.07,1.65 -0.2,2.87 -0.14,1.21 -0.28,2.09 -0.42,2.64l-12.45 48.3c-0.41,1.52 -0.79,2.82 -1.14,3.89 -0.35,1.07 -0.69,2.04 -1.04,2.92 -0.34,0.86 -0.76,1.69 -1.24,2.49 -0.48,0.79 -1.04,1.64 -1.66,2.54l57.05 0zm-25.41 -11.51l11.93 -46.26 13.38 0c1.94,0 3.27,0.23 3.99,0.67 0.73,0.45 1.09,1.26 1.09,2.44 0,0.35 -0.04,0.69 -0.11,1.07 -0.07,0.38 -0.21,0.95 -0.41,1.71l-8.3 32.29c-0.55,1.94 -1,3.46 -1.35,4.54 -0.35,1.11 -0.79,1.92 -1.35,2.44 -0.55,0.52 -1.28,0.83 -2.18,0.94 -0.9,0.1 -2.11,0.16 -3.63,0.16l-13.07 0zm119.59 0.52c-1.31,0.41 -2.6,0.69 -3.82,0.83 -1.25,0.14 -2.97,0.2 -5.19,0.2l-24.41 0c-0.97,0 -1.73,-0.02 -2.28,-0.05 -0.55,-0.04 -0.97,-0.05 -1.23,-0.05 -0.28,0 -0.48,-0.02 -0.62,-0.05 -0.14,-0.03 -0.28,-0.08 -0.41,-0.16 -0.55,-0.14 -1.04,-0.48 -1.45,-1.02 -0.42,-0.55 -0.62,-1.14 -0.62,-1.74 0,-0.28 0.04,-0.69 0.11,-1.25 0.07,-0.53 0.17,-1.05 0.31,-1.54l1.24 -4.62 41.7 0 3.21 -12.71c0.49,-1.66 0.73,-3.35 0.73,-5.08 0,-3.68 -1.31,-6.74 -3.94,-9.16 -1.38,-1.4 -3.06,-2.33 -5.03,-2.82 -1.97,-0.48 -4.86,-0.72 -8.66,-0.72l-31.84 0c-4.5,0 -8.06,0.93 -10.68,2.8 -2.63,1.88 -4.46,4.79 -5.5,8.73l-5.81 22.46c-0.35,1.52 -0.52,2.9 -0.52,4.15 0,3.47 1.42,6.51 4.25,9.16 2.49,2.42 6.39,3.63 11.72,3.63l44.29 0 4.46 -10.99zm-35.89 -19.4l1.45 -5.76c0.28,-1.02 0.55,-1.85 0.83,-2.45 0.28,-0.62 0.62,-1.12 1.03,-1.5 0.42,-0.36 0.94,-0.6 1.56,-0.71 0.62,-0.11 1.42,-0.16 2.39,-0.16l7.78 0c2.49,0 3.73,0.83 3.73,2.47 0,0.19 -0.04,0.5 -0.1,0.91 -0.07,0.42 -0.17,0.9 -0.31,1.43l-1.55 5.76 -16.8 0zm85.26 -38.79l-27.28 0c0.28,0.76 0.45,1.4 0.52,1.92 0.07,0.52 0.11,1.09 0.11,1.71 0,0.69 -0.07,1.64 -0.21,2.85 -0.14,1.21 -0.28,2.09 -0.42,2.64l-12.44 48.23c-0.42,1.59 -0.8,2.92 -1.14,3.99 -0.35,1.07 -0.69,2.02 -1.03,2.85 -0.35,0.83 -0.76,1.65 -1.25,2.44 -0.48,0.79 -1.04,1.64 -1.66,2.54l29.25 0c-0.28,-0.76 -0.45,-1.38 -0.52,-1.86 -0.07,-0.49 -0.11,-1.07 -0.11,-1.77 0,-0.76 0.07,-1.73 0.21,-2.9 0.14,-1.18 0.28,-2.04 0.42,-2.6l15.56 -60.05zm35.68 0l-24.89 0 -3.53 13.48 24.89 0 3.53 -13.48zm-4.77 18.36l-27.28 0c0.35,0.76 0.55,1.4 0.62,1.92 0.07,0.52 0.1,1.09 0.1,1.71 0,0.76 -0.07,1.69 -0.21,2.8 -0.14,1.11 -0.31,2.01 -0.52,2.7l-7.68 29.87c-0.41,1.59 -0.79,2.92 -1.14,3.99 -0.35,1.07 -0.69,2.02 -1.04,2.85 -0.34,0.83 -0.76,1.65 -1.24,2.44 -0.48,0.79 -1.04,1.64 -1.66,2.54l29.25 0c-0.28,-0.76 -0.45,-1.38 -0.52,-1.86 -0.07,-0.49 -0.11,-1.07 -0.11,-1.77 0,-0.76 0.07,-1.73 0.21,-2.9 0.14,-1.18 0.28,-2.04 0.42,-2.6l10.78 -41.69z"/>
    <path class="fil1" d="M2686.91 1284.35l-1.35 4.93c-0.49,-1.95 -1.25,-3.27 -2.28,-3.93 -1.03,-0.67 -2.76,-1 -5.18,-1l-17.32 0c-5.46,0 -9.54,0.9 -12.24,2.69 -0.9,0.55 -1.69,1.16 -2.39,1.81 -0.69,0.66 -1.3,1.42 -1.81,2.28 -0.52,0.86 -0.99,1.86 -1.4,3 -0.42,1.14 -0.83,2.51 -1.25,4.1l-4.98 19.09c-0.21,0.83 -0.38,1.74 -0.52,2.75 -0.14,1 -0.2,1.85 -0.2,2.54 0,1.94 0.48,3.8 1.45,5.6 0.97,1.8 2.25,3.28 3.84,4.46 1.31,0.97 2.9,1.62 4.77,1.97 1.87,0.35 4.46,0.52 7.78,0.52l10.58 0c2.91,0 5.07,-0.23 6.48,-0.67 1.42,-0.45 2.64,-1.3 3.68,-2.54l-1.77 6.64c-0.28,0.97 -0.48,1.75 -0.62,2.33 -0.14,0.59 -0.28,1.04 -0.41,1.35 -0.14,0.31 -0.3,0.55 -0.47,0.73 -0.17,0.17 -0.4,0.36 -0.67,0.57 -0.62,0.48 -1.33,0.8 -2.13,0.94 -0.8,0.14 -2.2,0.2 -4.2,0.2l-21.89 0c-3.04,0 -5.44,-0.14 -7.21,-0.41 -1.76,-0.28 -3.4,-0.79 -4.93,-1.56l-0.83 11.93 47.4 0c4.15,0 7.47,-0.28 9.96,-0.83 2.49,-0.55 4.39,-1.49 5.71,-2.8 0.62,-0.62 1.12,-1.16 1.5,-1.61 0.38,-0.45 0.76,-1.16 1.14,-2.09 0.38,-0.93 0.8,-2.23 1.25,-3.89 0.45,-1.66 1.09,-4.01 1.92,-7.07l10.37 -40.19c0.41,-1.52 0.79,-2.82 1.14,-3.89 0.35,-1.07 0.69,-2.04 1.04,-2.92 0.35,-0.87 0.76,-1.68 1.24,-2.44 0.48,-0.76 1.04,-1.62 1.66,-2.59l-26.86 0zm-21.47 41.07c-1.8,0 -3.04,-0.24 -3.73,-0.73 -0.69,-0.48 -1.04,-1.38 -1.04,-2.69 0,-0.42 0.02,-0.76 0.05,-1.04 0.04,-0.28 0.23,-1 0.57,-2.18l4.88 -18.88c0.55,-2.01 1.3,-3.44 2.23,-4.3 0.93,-0.87 2.26,-1.3 3.99,-1.3l5.39 0c3.46,0 5.19,1.14 5.19,3.42 0,0.21 0,0.42 0,0.62 0,0.14 -0.04,0.36 -0.1,0.67 -0.07,0.31 -0.17,0.74 -0.31,1.3 -0.14,0.55 -0.31,1.35 -0.52,2.39l-4.15 16.08c-0.42,1.45 -0.78,2.63 -1.09,3.53 -0.31,0.9 -0.71,1.57 -1.19,2.02 -0.49,0.45 -1.06,0.74 -1.71,0.88 -0.66,0.14 -1.54,0.21 -2.64,0.21l-5.81 0zm86.09 -59.33l-27.28 0c0.28,0.76 0.45,1.4 0.52,1.92 0.07,0.52 0.1,1.09 0.1,1.71 0,0.76 -0.07,1.73 -0.2,2.9 -0.14,1.18 -0.28,2.04 -0.42,2.6l-12.45 48.23c-0.42,1.52 -0.79,2.82 -1.14,3.89 -0.35,1.07 -0.69,2.04 -1.04,2.91 -0.35,0.86 -0.76,1.69 -1.24,2.49 -0.48,0.79 -1.04,1.64 -1.66,2.54l29.25 0c-0.28,-0.76 -0.45,-1.38 -0.52,-1.86 -0.07,-0.49 -0.11,-1.07 -0.11,-1.77 0,-0.76 0.07,-1.73 0.21,-2.9 0.14,-1.18 0.28,-2.04 0.41,-2.6l6.74 -25.93c0.28,-1.25 0.59,-2.25 0.93,-3.01 0.35,-0.76 0.76,-1.35 1.25,-1.76 0.48,-0.42 1.09,-0.71 1.81,-0.88 0.73,-0.17 1.64,-0.26 2.75,-0.26l4.98 0c3.46,0 5.19,1.17 5.19,3.52 0,0.69 -0.17,1.8 -0.52,3.32l-5.81 22.3c-0.42,1.59 -0.79,2.92 -1.14,3.99 -0.35,1.07 -0.69,2.02 -1.04,2.85 -0.35,0.83 -0.76,1.65 -1.24,2.44 -0.48,0.79 -1.04,1.64 -1.66,2.54l29.25 0c-0.28,-0.76 -0.45,-1.4 -0.52,-1.92 -0.07,-0.52 -0.1,-1.09 -0.1,-1.71 0,-0.76 0.07,-1.73 0.21,-2.9 0.14,-1.18 0.28,-2.04 0.41,-2.6l5.91 -22.82c0.62,-2.28 0.93,-4.18 0.93,-5.7 0,-1.73 -0.38,-3.46 -1.14,-5.19 -0.76,-1.73 -1.83,-3.25 -3.22,-4.57 -0.76,-0.69 -1.5,-1.24 -2.23,-1.66 -0.73,-0.42 -1.56,-0.76 -2.49,-1.04 -0.94,-0.28 -2.01,-0.47 -3.22,-0.57 -1.21,-0.1 -2.64,-0.16 -4.3,-0.16l-13.07 0c-2.28,0 -3.98,0.19 -5.08,0.57 -1.11,0.38 -2.28,1.16 -3.53,2.33l5.5 -21.26zm96.04 18.26l-20.12 0 2.9 -11.2 -25.2 1.56 -2.59 9.65 -10.37 0 -2.59 9.96 10.48 0 -6.33 24.17c-0.35,1.52 -0.52,2.9 -0.52,4.15 0,1.59 0.28,3.09 0.83,4.51 0.55,1.42 1.31,2.66 2.28,3.74 0.97,1.07 2.11,1.95 3.43,2.64 1.31,0.69 2.76,1.14 4.35,1.35 1.18,0.14 2.56,0.24 4.15,0.31 1.59,0.07 2.87,0.1 3.84,0.1l25.31 0 2.91 -11.51c-1.59,0.55 -3.01,0.95 -4.25,1.19 -1.24,0.24 -2.69,0.36 -4.35,0.36l-6.64 0c-2.49,0 -4.27,-0.31 -5.34,-0.93 -1.07,-0.62 -1.61,-1.62 -1.61,-2.99 0,-0.42 0.07,-0.9 0.21,-1.45l6.64 -25.64 20.12 0 2.49 -9.96zm59.95 39.93c-1.31,0.41 -2.6,0.69 -3.82,0.83 -1.25,0.14 -2.97,0.2 -5.19,0.2l-24.41 0c-0.97,0 -1.73,-0.02 -2.28,-0.05 -0.55,-0.04 -0.97,-0.05 -1.23,-0.05 -0.28,0 -0.48,-0.02 -0.62,-0.05 -0.14,-0.03 -0.28,-0.08 -0.41,-0.16 -0.55,-0.14 -1.04,-0.48 -1.45,-1.02 -0.42,-0.55 -0.62,-1.14 -0.62,-1.74 0,-0.28 0.04,-0.69 0.11,-1.25 0.07,-0.53 0.17,-1.05 0.31,-1.54l1.24 -4.62 41.7 0 3.21 -12.71c0.49,-1.66 0.73,-3.35 0.73,-5.08 0,-3.68 -1.31,-6.74 -3.94,-9.16 -1.38,-1.4 -3.06,-2.33 -5.03,-2.82 -1.97,-0.48 -4.86,-0.72 -8.66,-0.72l-31.84 0c-4.49,0 -8.05,0.93 -10.68,2.8 -2.63,1.88 -4.46,4.79 -5.5,8.73l-5.81 22.46c-0.35,1.52 -0.52,2.9 -0.52,4.15 0,3.47 1.42,6.51 4.25,9.16 2.49,2.42 6.39,3.63 11.72,3.63l44.29 0 4.46 -10.99zm-35.89 -19.4l1.45 -5.76c0.28,-1.02 0.55,-1.85 0.83,-2.45 0.28,-0.62 0.62,-1.12 1.03,-1.5 0.42,-0.36 0.94,-0.6 1.56,-0.71 0.62,-0.11 1.42,-0.16 2.39,-0.16l7.78 0c2.49,0 3.74,0.83 3.74,2.47 0,0.19 -0.04,0.5 -0.1,0.91 -0.07,0.42 -0.17,0.9 -0.31,1.43l-1.55 5.76 -16.8 0zm124.88 -38.84l-27.28 0c0.34,0.76 0.55,1.4 0.62,1.92 0.07,0.52 0.1,1.09 0.1,1.71 0,0.69 -0.07,1.63 -0.21,2.8 -0.14,1.18 -0.31,2.08 -0.52,2.7l-3.63 14.21c-0.76,-1.95 -1.74,-3.28 -2.96,-3.98 -1.21,-0.71 -3.03,-1.05 -5.44,-1.05l-18.26 0c-4.7,0 -8.37,0.97 -11,2.9 -2.63,1.95 -4.49,5.03 -5.6,9.25l-5.18 20.28c-0.28,1.04 -0.5,1.87 -0.67,2.49 -0.18,0.62 -0.3,1.14 -0.36,1.56 -0.07,0.41 -0.11,0.79 -0.11,1.14 0,0.35 0,0.78 0,1.26 0,3.32 1.21,6.08 3.63,8.32 1.52,1.38 3.13,2.35 4.82,2.9 1.69,0.55 4.06,0.83 7.11,0.83l14.1 0c1.25,0 2.33,-0.07 3.27,-0.2 0.93,-0.14 1.74,-0.36 2.44,-0.67 0.69,-0.31 1.31,-0.75 1.87,-1.3 0.55,-0.55 1.11,-1.28 1.66,-2.18l0 4.35 26.14 0c-0.35,-0.76 -0.55,-1.4 -0.62,-1.92 -0.07,-0.52 -0.11,-1.09 -0.11,-1.71 0,-0.69 0.07,-1.64 0.21,-2.85 0.14,-1.23 0.28,-2.11 0.42,-2.66l15.56 -60.09zm-50.72 59.38c-1.8,0 -3.1,-0.21 -3.89,-0.62 -0.79,-0.41 -1.19,-1.11 -1.19,-2.07 0,-0.76 0.14,-1.52 0.42,-2.28l0.52 -1.66 4.56 -17.74c0.42,-1.52 0.78,-2.72 1.09,-3.58 0.31,-0.87 0.67,-1.54 1.09,-2.02 0.41,-0.48 0.95,-0.8 1.61,-0.94 0.66,-0.14 1.5,-0.2 2.54,-0.2l5.91 0c3.11,0 4.67,1.03 4.67,3.11 0,0.41 -0.07,1.07 -0.21,1.97 -0.14,0.9 -0.28,1.62 -0.42,2.18l-4.98 19.29c-0.48,1.87 -1.11,3.1 -1.87,3.68 -0.76,0.59 -2.14,0.88 -4.15,0.88l-5.7 0zm146.04 -59.43l-39.1 0c-3.67,-0.14 -6.86,0.02 -9.59,0.47 -2.73,0.45 -5.07,1.24 -7,2.38 -1.94,1.14 -3.53,2.64 -4.77,4.53 -1.25,1.87 -2.21,4.15 -2.91,6.85l-9.44 36.45c-0.48,1.81 -0.79,3.11 -0.93,3.91 -0.14,0.79 -0.21,1.61 -0.21,2.44 0,2.28 0.6,4.39 1.81,6.33 1.21,1.95 2.82,3.41 4.82,4.37 0.69,0.35 1.31,0.6 1.87,0.78 0.55,0.17 1.28,0.31 2.18,0.42 0.9,0.1 2.13,0.17 3.68,0.2 1.56,0.04 3.68,0.09 6.38,0.16l35.58 0 5.6 -13.9c-3.18,1.59 -6.71,2.39 -10.58,2.39l-17.63 0c-1.59,0 -2.58,-0.02 -2.96,-0.05 -0.38,-0.04 -0.85,-0.12 -1.4,-0.26 -1.59,-0.48 -2.39,-1.45 -2.39,-2.91 0,-0.35 0.04,-0.72 0.11,-1.12 0.07,-0.42 0.24,-1.07 0.52,-1.97l8.92 -34.78c0.28,-1.11 0.59,-1.99 0.93,-2.68 0.35,-0.69 0.81,-1.23 1.4,-1.61 0.59,-0.38 1.35,-0.62 2.28,-0.73 0.93,-0.1 2.2,-0.16 3.79,-0.16l18.26 0c1.04,0 1.94,0.02 2.7,0.05 0.76,0.04 1.47,0.14 2.13,0.31 0.66,0.17 1.33,0.4 2.02,0.67 0.69,0.28 1.52,0.62 2.49,1.03l1.45 -13.59zm71.36 18.36l-27.28 0c0.28,0.83 0.45,1.49 0.52,1.97 0.07,0.48 0.1,1.04 0.1,1.66 0,0.76 -0.07,1.73 -0.2,2.9 -0.14,1.18 -0.28,2.04 -0.42,2.59l-7.16 27.59c-0.41,1.66 -1,2.78 -1.76,3.37 -0.76,0.59 -2.01,0.88 -3.74,0.88l-6.84 0c-2.7,0 -4.05,-0.97 -4.05,-2.9 0,-0.35 0.02,-0.59 0.05,-0.73 0.04,-0.14 0.12,-0.52 0.26,-1.14l9.34 -36.2 -27.28 0c0.35,0.76 0.55,1.4 0.62,1.92 0.07,0.52 0.1,1.09 0.1,1.71 0,0.76 -0.07,1.73 -0.21,2.9 -0.14,1.18 -0.28,2.04 -0.41,2.59l-6.43 24.58c-0.14,0.76 -0.29,1.66 -0.47,2.7 -0.17,1.04 -0.26,1.8 -0.26,2.28 0,1.8 0.47,3.58 1.4,5.32 0.93,1.75 2.19,3.22 3.79,4.39 1.18,0.91 2.56,1.55 4.15,1.95 1.59,0.38 3.56,0.57 5.91,0.57l18.88 0c2.01,0 3.55,-0.29 4.62,-0.9 1.07,-0.59 1.99,-1.66 2.75,-3.18l0.31 4.08 22.92 0c-0.34,-0.76 -0.55,-1.4 -0.62,-1.88 -0.07,-0.48 -0.1,-1.09 -0.1,-1.78 0,-0.78 0.07,-1.69 0.21,-2.78 0.14,-1.09 0.31,-2.01 0.52,-2.78l10.79 -41.69zm67.11 0l-45.02 0c-4.84,0 -8.4,0.69 -10.68,2.07 -1.38,0.76 -2.64,2.01 -3.79,3.74 -1.14,1.73 -1.98,3.59 -2.54,5.6l-2.59 10.37c-0.28,0.83 -0.42,1.83 -0.42,3.01 0,3.8 1.42,6.71 4.25,8.71 1.11,0.83 2.47,1.4 4.1,1.71 1.62,0.31 4.06,0.47 7.31,0.47l15.04 0c1.04,0 1.73,0.11 2.07,0.31 0.35,0.21 0.52,0.66 0.52,1.35 0,2.42 -1.24,3.63 -3.73,3.63l-20.02 0 -4.35 -0.1 -4.25 -0.21c-0.76,-0.07 -1.53,-0.19 -2.28,-0.36 -0.76,-0.17 -1.76,-0.47 -3.01,-0.88l-1.14 11.51 43.05 0c2.01,0 3.71,-0.05 5.13,-0.16 1.42,-0.1 2.68,-0.28 3.79,-0.52 1.11,-0.24 2.09,-0.59 2.96,-1.03 0.87,-0.45 1.71,-0.99 2.54,-1.61 1.52,-1.11 2.71,-2.4 3.58,-3.89 0.87,-1.49 1.64,-3.55 2.33,-6.17l2.08 -7.88c0.2,-0.83 0.38,-1.73 0.52,-2.7 0.14,-0.97 0.21,-1.76 0.21,-2.39 0,-1.24 -0.29,-2.52 -0.88,-3.83 -0.59,-1.31 -1.36,-2.46 -2.33,-3.43 -1.04,-1.03 -2.18,-1.78 -3.43,-2.23 -1.24,-0.45 -2.87,-0.67 -4.87,-0.67l-18.05 0c-1.66,0 -2.73,-0.11 -3.22,-0.31 -0.48,-0.2 -0.73,-0.69 -0.73,-1.45 0,-1.8 1.18,-2.69 3.53,-2.69l21.37 0c1.66,0 3.08,0.04 4.25,0.1 1.18,0.05 2.23,0.16 3.16,0.29 0.94,0.12 1.8,0.31 2.6,0.54 0.79,0.23 1.61,0.5 2.44,0.83l0.52 -11.72zm59.02 0l-20.12 0 2.9 -11.2 -25.2 1.56 -2.59 9.65 -10.37 0 -2.59 9.96 10.48 0 -6.33 24.17c-0.35,1.52 -0.52,2.9 -0.52,4.15 0,1.59 0.28,3.09 0.83,4.51 0.55,1.42 1.31,2.66 2.28,3.74 0.97,1.07 2.11,1.95 3.42,2.64 1.32,0.69 2.77,1.14 4.36,1.35 1.18,0.14 2.56,0.24 4.15,0.31 1.59,0.07 2.87,0.1 3.84,0.1l25.31 0 2.91 -11.51c-1.59,0.55 -3.01,0.95 -4.25,1.19 -1.24,0.24 -2.69,0.36 -4.35,0.36l-6.64 0c-2.49,0 -4.27,-0.31 -5.34,-0.93 -1.07,-0.62 -1.61,-1.62 -1.61,-2.99 0,-0.42 0.07,-0.9 0.2,-1.45l6.64 -25.64 20.12 0 2.49 -9.96zm22.61 0c-3.46,0 -6.17,0.12 -8.14,0.36 -1.97,0.24 -3.72,0.71 -5.24,1.4 -1.86,0.83 -3.47,2.11 -4.82,3.86 -1.35,1.73 -2.3,3.7 -2.85,5.91l-5.81 22.35c-0.21,0.97 -0.36,1.75 -0.47,2.33 -0.11,0.59 -0.16,1.26 -0.16,2.02 0,2.02 0.38,3.87 1.14,5.56 0.76,1.69 1.9,3.18 3.42,4.43 0.69,0.62 1.35,1.11 1.97,1.45 0.62,0.35 1.37,0.6 2.23,0.78 0.87,0.17 1.94,0.29 3.22,0.36 1.28,0.07 2.92,0.1 4.93,0.1l30.7 0c2.01,0 3.74,-0.05 5.19,-0.16 1.45,-0.1 2.75,-0.28 3.89,-0.52 1.14,-0.24 2.13,-0.55 2.96,-0.93 0.83,-0.38 1.62,-0.85 2.38,-1.4 0.83,-0.62 1.52,-1.26 2.08,-1.88 0.55,-0.62 1.06,-1.31 1.5,-2.08 0.45,-0.76 0.87,-1.64 1.24,-2.64 0.38,-1 0.75,-2.2 1.09,-3.59l4.77 -18.7c0.35,-1.25 0.59,-2.32 0.73,-3.22 0.14,-0.9 0.21,-1.73 0.21,-2.49 0,-1.61 -0.24,-3.13 -0.73,-4.58 -0.48,-1.45 -1.14,-2.73 -1.97,-3.84 -1.38,-1.81 -3.03,-3.08 -4.93,-3.8 -1.9,-0.73 -4.48,-1.09 -7.73,-1.09l-30.8 0zm3.09 14.4c0.21,-0.9 0.47,-1.64 0.76,-2.21 0.31,-0.59 0.72,-1.04 1.24,-1.35 0.52,-0.31 1.18,-0.54 1.97,-0.67 0.78,-0.14 1.77,-0.2 2.94,-0.2l6.19 0c1.87,0 3.22,0.28 4.03,0.83 0.83,0.55 1.24,1.42 1.24,2.57 0,0.42 -0.04,0.85 -0.1,1.3 -0.07,0.45 -0.28,1.23 -0.62,2.33l-5.07 19.64c-0.2,0.97 -0.45,1.73 -0.71,2.27 -0.28,0.55 -0.66,0.99 -1.14,1.3 -0.48,0.31 -1.09,0.52 -1.81,0.62 -0.72,0.11 -1.62,0.16 -2.73,0.16l-7.33 0c-3.16,0 -4.75,-0.93 -4.75,-2.78 0,-0.21 0.02,-0.47 0.05,-0.78 0.03,-0.31 0.19,-1.06 0.47,-2.23l5.37 -20.78zm80.19 -14.4l-26.35 0c0.35,0.76 0.55,1.4 0.62,1.92 0.07,0.52 0.1,1.09 0.1,1.71 0,0.78 -0.07,1.71 -0.21,2.82 -0.14,1.11 -0.31,2.01 -0.52,2.69l-7.68 29.94c-0.41,1.59 -0.79,2.92 -1.14,3.99 -0.35,1.07 -0.69,2.02 -1.03,2.85 -0.35,0.83 -0.76,1.66 -1.25,2.46 -0.48,0.79 -1.04,1.64 -1.66,2.54l29.25 0c-0.28,-0.76 -0.45,-1.38 -0.52,-1.86 -0.07,-0.49 -0.11,-1.07 -0.11,-1.77 0,-0.76 0.07,-1.73 0.21,-2.9 0.14,-1.18 0.28,-2.04 0.42,-2.6l6.84 -26.35c0.55,-2.35 1.26,-3.85 2.13,-4.51 0.87,-0.66 2.44,-0.99 4.72,-0.99l6.23 0c1.24,0 2.25,0.28 3,0.83 0.76,0.55 1.14,1.31 1.14,2.28 0,0.14 0,0.28 0,0.41 0,0.14 -0.03,0.33 -0.1,0.57 -0.07,0.24 -0.14,0.57 -0.21,0.99 -0.07,0.41 -0.2,1.04 -0.41,1.87l-5.81 22.2c-0.42,1.59 -0.79,2.92 -1.14,3.99 -0.35,1.07 -0.69,2.02 -1.04,2.85 -0.35,0.83 -0.76,1.65 -1.24,2.44 -0.48,0.79 -1.04,1.64 -1.66,2.54l29.35 0c-0.35,-0.76 -0.55,-1.38 -0.62,-1.86 -0.07,-0.49 -0.11,-1.07 -0.11,-1.77 0,-0.76 0.07,-1.69 0.21,-2.8 0.14,-1.11 0.31,-2.01 0.52,-2.7l6.84 -26.76c0.55,-2.08 1.21,-3.44 1.97,-4.1 0.76,-0.66 2.11,-0.99 4.04,-0.99l6.12 0c3.25,0 4.88,1.11 4.88,3.32 0,0.41 -0.05,0.88 -0.16,1.4 -0.11,0.52 -0.23,1.12 -0.36,1.81l-5.81 22.61c-0.42,1.52 -0.79,2.82 -1.14,3.89 -0.35,1.07 -0.71,2.04 -1.09,2.91 -0.38,0.86 -0.79,1.69 -1.24,2.49 -0.45,0.79 -0.99,1.64 -1.61,2.54l29.32 0c-0.35,-0.76 -0.55,-1.38 -0.62,-1.86 -0.07,-0.49 -0.1,-1.07 -0.1,-1.77 0,-0.78 0.07,-1.69 0.21,-2.76 0.14,-1.07 0.31,-1.99 0.52,-2.75l5.74 -22.25c0.21,-0.9 0.38,-1.63 0.52,-2.18 0.14,-0.55 0.24,-1.04 0.31,-1.45 0.07,-0.42 0.12,-0.79 0.16,-1.14 0.04,-0.34 0.05,-0.72 0.05,-1.14 0,-1.81 -0.35,-3.58 -1.04,-5.3 -0.69,-1.73 -1.64,-3.25 -2.82,-4.58 -1.31,-1.38 -2.75,-2.35 -4.27,-2.9 -1.52,-0.55 -3.41,-0.83 -5.62,-0.83l-18.2 0c-2.21,0 -3.84,0.33 -4.88,1 -1.04,0.66 -2.01,1.97 -2.9,3.93 -0.76,-1.95 -1.61,-3.27 -2.54,-3.93 -0.94,-0.67 -2.58,-1 -4.93,-1l-25.1 0c-1.38,0 -2.54,0.05 -3.47,0.16 -0.94,0.1 -1.75,0.35 -2.44,0.72 -0.69,0.38 -1.3,0.88 -1.81,1.5 -0.52,0.62 -1.09,1.45 -1.71,2.49l1.24 -4.87zm148.64 39.93c-1.31,0.41 -2.59,0.69 -3.82,0.83 -1.24,0.14 -2.97,0.2 -5.19,0.2l-24.41 0c-0.97,0 -1.73,-0.02 -2.28,-0.05 -0.55,-0.04 -0.97,-0.05 -1.23,-0.05 -0.28,0 -0.48,-0.02 -0.62,-0.05 -0.14,-0.03 -0.28,-0.08 -0.41,-0.16 -0.55,-0.14 -1.04,-0.48 -1.45,-1.02 -0.42,-0.55 -0.62,-1.14 -0.62,-1.74 0,-0.28 0.04,-0.69 0.11,-1.25 0.07,-0.53 0.17,-1.05 0.31,-1.54l1.24 -4.62 41.7 0 3.22 -12.71c0.48,-1.66 0.72,-3.35 0.72,-5.08 0,-3.68 -1.31,-6.74 -3.94,-9.16 -1.38,-1.4 -3.06,-2.33 -5.03,-2.82 -1.97,-0.48 -4.86,-0.72 -8.66,-0.72l-31.84 0c-4.49,0 -8.05,0.93 -10.68,2.8 -2.63,1.88 -4.46,4.79 -5.5,8.73l-5.81 22.46c-0.35,1.52 -0.52,2.9 -0.52,4.15 0,3.47 1.42,6.51 4.25,9.16 2.49,2.42 6.39,3.63 11.72,3.63l44.29 0 4.46 -10.99zm-35.89 -19.4l1.45 -5.76c0.28,-1.02 0.55,-1.85 0.83,-2.45 0.28,-0.62 0.62,-1.12 1.03,-1.5 0.42,-0.36 0.94,-0.6 1.56,-0.71 0.62,-0.11 1.42,-0.16 2.39,-0.16l7.78 0c2.49,0 3.74,0.83 3.74,2.47 0,0.19 -0.04,0.5 -0.1,0.91 -0.07,0.42 -0.17,0.9 -0.31,1.43l-1.55 5.76 -16.8 0zm77.06 -20.43l-23.34 0c0.35,0.76 0.55,1.4 0.62,1.92 0.07,0.52 0.1,1.09 0.1,1.71 0,0.76 -0.07,1.69 -0.21,2.8 -0.14,1.11 -0.31,2.01 -0.52,2.7l-7.68 29.87c-0.41,1.52 -0.79,2.82 -1.14,3.89 -0.34,1.07 -0.69,2.04 -1.03,2.91 -0.35,0.86 -0.76,1.69 -1.25,2.49 -0.48,0.79 -1.04,1.64 -1.66,2.54l29.25 0c-0.28,-0.76 -0.45,-1.38 -0.52,-1.86 -0.07,-0.49 -0.1,-1.07 -0.1,-1.77 0,-0.76 0.07,-1.73 0.2,-2.9 0.14,-1.18 0.28,-2.04 0.42,-2.6l6.01 -23.34c0.48,-1.66 1.21,-2.8 2.18,-3.42 0.97,-0.62 2.56,-0.94 4.77,-0.94l8.71 0c1.87,0 3.47,0.21 4.82,0.62 1.35,0.41 2.57,1.07 3.68,1.97l4.35 -16.6 -14.1 0c-1.87,0 -3.5,0.14 -4.88,0.42 -1.38,0.28 -2.61,0.74 -3.68,1.4 -1.07,0.66 -2.06,1.54 -2.96,2.64 -0.9,1.11 -1.8,2.49 -2.7,4.15l0.31 -2.7 0.11 -3.52 0.2 -2.39zm88.89 -0.1l-45.01 0c-4.84,0 -8.4,0.69 -10.68,2.07 -1.38,0.76 -2.64,2.01 -3.79,3.74 -1.14,1.73 -1.99,3.59 -2.54,5.6l-2.59 10.37c-0.28,0.83 -0.42,1.83 -0.42,3.01 0,3.8 1.42,6.71 4.25,8.71 1.11,0.83 2.47,1.4 4.1,1.71 1.62,0.31 4.06,0.47 7.31,0.47l15.04 0c1.04,0 1.73,0.11 2.07,0.31 0.35,0.21 0.52,0.66 0.52,1.35 0,2.42 -1.24,3.63 -3.73,3.63l-20.02 0 -4.36 -0.1 -4.25 -0.21c-0.76,-0.07 -1.52,-0.19 -2.28,-0.36 -0.76,-0.17 -1.77,-0.47 -3.01,-0.88l-1.14 11.51 43.04 0c2.01,0 3.71,-0.05 5.13,-0.16 1.42,-0.1 2.68,-0.28 3.79,-0.52 1.11,-0.24 2.09,-0.59 2.96,-1.03 0.87,-0.45 1.71,-0.99 2.54,-1.61 1.52,-1.11 2.72,-2.4 3.58,-3.89 0.87,-1.49 1.65,-3.55 2.33,-6.17l2.08 -7.88c0.21,-0.83 0.38,-1.73 0.52,-2.7 0.14,-0.97 0.21,-1.76 0.21,-2.39 0,-1.24 -0.3,-2.52 -0.88,-3.83 -0.59,-1.31 -1.37,-2.46 -2.33,-3.43 -1.04,-1.03 -2.18,-1.78 -3.42,-2.23 -1.25,-0.45 -2.87,-0.67 -4.88,-0.67l-18.05 0c-1.66,0 -2.73,-0.11 -3.22,-0.31 -0.48,-0.2 -0.73,-0.69 -0.73,-1.45 0,-1.8 1.18,-2.69 3.53,-2.69l21.37 0c1.66,0 3.08,0.04 4.25,0.1 1.18,0.05 2.23,0.16 3.16,0.29 0.93,0.12 1.8,0.31 2.59,0.54 0.79,0.23 1.61,0.5 2.44,0.83l0.52 -11.72z"/>
   </g>
  </g>
 </g>
</svg>
