<svg width="118" height="100" viewBox="0 0 118 100" fill="none" xmlns="http://www.w3.org/2000/svg">
<g clip-path="url(#clip0_1392_596)">
<g clip-path="url(#clip1_1392_596)">
<path d="M100.922 80.0466L101.11 79.8129C101.097 79.931 100.922 82.1069 100.3 82.8065C99.7519 83.4247 98.1584 83.1944 97.2464 83.1867C96.2454 83.1764 93.0805 83.2184 92.2396 83.0266C91.82 82.9298 91.3825 82.6412 91.0049 82.696L90.8713 85.5509C93.7887 85.5561 96.6967 85.527 99.5987 85.5141C102.645 85.5038 105.062 85.8472 106.178 83.4436C106.726 82.261 108.024 74.9919 108.462 72.7895C108.682 71.6729 109.094 70.1341 109.167 69.0304H102.776C103.148 70.886 102.291 73.6313 101.911 75.5339C101.769 76.2395 101.538 78.2733 101.08 78.5516C100.553 78.8769 98.0445 78.7005 97.6146 78.4282C97.3757 77.2149 99.1431 70.8654 99.2895 69.0304H92.744C93.179 71.13 92.7389 72.1079 92.3458 74.1056C92.0658 75.534 91.397 77.8674 91.8766 79.2434C92.4743 80.9629 93.9505 81.0185 95.9637 81.016C96.9544 81.016 97.9743 81.04 98.9624 81.0134C100.169 80.9792 100.36 80.7197 100.923 80.0458L100.922 80.0466ZM72.1329 81.0057L79.253 81.016C79.1665 79.7863 78.9276 79.7761 79.2059 78.2947L80.254 73.0336C80.6239 71.1745 80.6265 71.3852 83.4472 71.3852C85.0039 71.3852 84.5792 72.0745 84.3172 73.3641C83.9943 74.9525 83.5807 77.3202 83.2262 78.7802C82.8589 80.2933 82.411 80.4294 82.2115 80.998L89.3993 81.0168C89.2503 79.7478 89.0773 79.8112 89.3445 78.3666C89.4969 77.5326 89.6699 76.7208 89.8377 75.8653C90.1314 74.3814 90.7916 72.1456 90.2624 70.6907C89.6459 68.9995 87.9607 69.0312 85.9056 69.0312C84.9072 69.0312 83.9079 69.0235 82.9094 69.0261C81.4914 69.0286 81.5727 69.545 80.8748 70.117L81.9264 64.6513L75.3389 64.6487C75.7978 66.4109 75.4442 67.2698 75.1111 68.9533C74.8362 70.3354 74.5502 71.7637 74.2745 73.1346C74.0304 74.3403 73.2966 78.3144 72.9746 79.3428C72.7306 80.1314 72.3324 80.4594 72.1329 81.0074V81.0057ZM15.2858 73.9121C15.469 73.4223 18.2691 69.146 18.7332 68.5508C18.9687 68.8625 19.8576 73.162 19.9518 73.9224L15.2858 73.9121ZM7.11242 80.998L11.5164 81.0143C11.1413 78.6783 12.6278 78.4188 13.3643 76.6446L20.3397 76.6343C20.7618 76.9066 20.9399 78.3015 21.0084 78.7973C21.184 80.0192 20.838 80.2676 20.4921 80.9911L28.4454 81.0203C28.3615 80.5955 27.8974 79.9482 27.7064 79.3342C27.4024 78.3512 26.6343 74.2726 26.38 73.0772C26.0966 71.7268 24.9012 65.4228 24.6186 64.6966L17.3366 64.647C17.8213 65.8638 18.0842 65.171 16.9564 66.8459L12.8274 72.9933C11.435 75.0647 9.46124 78.2202 7.9199 80.0638C7.61335 80.4337 7.29139 80.6246 7.11242 80.9997V80.998ZM48.7071 75.2574C48.6934 75.957 48.3004 77.9735 47.9365 78.3614C47.5665 78.7571 45.055 78.8435 44.5832 78.5087C44.072 78.144 44.7219 75.7061 45.0627 75.4911C45.5928 75.1555 47.915 75.2582 48.7071 75.2582V75.2574ZM40.3676 71.2961L40.2495 71.8647C40.5218 71.7568 40.58 71.6575 40.8292 71.5607C40.9628 71.5085 41.0022 71.529 41.1306 71.5059C43.2962 71.3672 45.2357 71.3852 47.3978 71.3852C47.7541 71.3826 48.124 71.3749 48.4785 71.3826C50.1217 71.4169 49.2175 72.7219 48.8321 72.8426C48.41 72.9736 43.5967 72.9 42.9074 72.9025C40.0183 72.9291 39.1928 74.0063 38.6473 76.5752C37.6018 81.5041 39.1217 81.0836 45.3658 81.016C47.5837 80.9903 47.3533 80.5964 48.1291 79.7761L48.2028 80.9792L54.1378 81.016C54.0616 80.4208 53.8783 80.3369 53.952 79.5611C54.2328 76.6771 56.4215 71.1985 54.5 69.652C53.3594 68.7341 49.9017 69.0304 48.148 69.0304C45.8805 69.0304 43.4426 68.9439 41.1957 69.0406C40.8968 69.4234 40.4644 70.7627 40.3668 71.2953L40.3676 71.2961ZM56.073 78.1696L55.9317 81.0091C58.6265 81.0956 61.4163 81.0168 64.0871 81.0168C67.1124 81.0168 69.1752 81.4022 70.607 79.3179C71.3648 78.2142 72.4942 73.7974 70.9007 72.9368C69.3516 72.1002 64.2712 73.049 63.1777 72.4256C62.9157 70.7926 64.7456 71.2276 67.4035 71.2276C68.3283 71.2276 69.165 71.2174 70.0718 71.309C71.2175 71.422 71.4222 71.6763 72.1611 71.9015L72.2502 69.0312C70.3732 69.0209 62.5749 68.9396 61.3033 69.0655C59.7328 69.2179 58.4826 70.0716 57.932 71.1343C57.5467 71.8707 56.9618 74.6862 57.1091 75.617C57.408 77.5094 58.9887 77.2979 60.8786 77.2979L64.9494 77.2954C65.5188 77.321 65.673 77.3998 65.5916 78.0266C65.458 79.0362 64.5983 78.823 63.6572 78.8179C62.7316 78.8179 61.8068 78.8179 60.8786 78.8179C59.9949 78.8179 59.0803 78.8333 58.1992 78.7682C57.1639 78.6894 56.8805 78.4428 56.073 78.1705V78.1696ZM23.4463 82.5265L23.2733 85.5492C25.9047 85.5467 28.5319 85.5389 31.1427 85.5073C34.037 85.473 34.889 84.5979 35.5158 82.1018C35.6648 81.5118 38.0325 69.9406 38.1113 69.0415L31.5572 69.0312C31.9476 71.1994 31.5991 71.9829 31.1881 74.0123L29.723 81.3499C29.5397 82.2251 29.4481 82.8759 28.6089 83.1139C28.132 83.2501 25.0202 83.2424 24.4508 83.0197C23.9995 82.8416 23.9764 82.6524 23.4463 82.5265ZM17.8204 96.2838C17.7785 95.7854 18.2323 93.649 18.4284 93.2405C19.1597 93.2037 19.3275 93.1463 20.004 93.2568C20.0699 93.8545 19.855 94.5172 19.7394 95.0918C19.4902 96.3155 19.7206 96.5467 17.8204 96.2846V96.2838ZM19.2462 97.1435C19.2564 97.1641 19.2462 97.1435 19.2564 97.3319C19.1674 98.517 18.669 98.3723 17.5575 98.3569C15.7465 98.3303 15.6309 98.1788 15.0178 98.1522L15.0041 99.4392H19.9689C20.5931 99.3784 21.1771 99.2192 21.6018 98.3483C22.1781 97.1658 22.2963 93.8159 23.1954 92.1693C20.4792 92.159 20.9151 91.9441 20.3354 92.6068C20.0571 91.9963 19.5724 92.1564 18.8386 92.1616C16.7989 92.1667 16.0051 91.9278 15.5093 94.3819C15.3046 95.3804 14.7883 96.8643 15.7559 97.2814C16.351 97.5383 19.0826 97.5066 19.2453 97.1426L19.2462 97.1435ZM70.708 96.3334C70.6506 95.7563 71.0565 93.762 71.3006 93.2816C71.8015 93.1377 72.3624 93.1814 72.8813 93.2294C72.9387 93.7988 72.5251 95.8505 72.2862 96.2992C71.7801 96.4276 71.2243 96.4011 70.708 96.3334ZM67.9764 98.124L67.8685 99.3562L73.133 99.2851C74.3387 99.2723 74.6401 98.1214 74.8713 96.9654C75.1308 95.6681 75.3431 94.0874 75.755 92.8757L76.0744 92.1658H73.4661L73.2957 92.6214C73.0859 92.391 73.0466 92.2335 72.6407 92.1761C72.3863 92.1367 71.9513 92.1607 71.6808 92.1633C69.4133 92.1684 68.855 91.9954 68.3386 94.62C67.7486 97.5982 68.1734 97.3987 70.7191 97.4141C71.3776 97.4167 71.846 97.5083 72.174 97.0185C72.198 98.3055 71.8075 98.3766 70.6147 98.3603C69.4895 98.344 69.0237 98.3997 67.9773 98.124H67.9764ZM80.2506 97.385C81.5847 97.5083 83.454 97.4218 84.8378 97.4141C86.547 97.4013 86.9195 96.8609 87.2371 95.3196C87.5565 93.7594 88.1046 92.5615 86.1256 92.4801C83.7143 92.3833 83.6484 92.7319 83.6587 92.0785C83.6792 91.1503 84.9671 91.4337 86.5478 91.4363C87.1327 91.4363 87.5052 91.5887 87.8956 91.5913L87.9136 90.2494C81.3655 90.1732 81.4751 89.7648 80.7832 93.4683C80.3328 95.8719 82.0077 94.8546 84.5843 95.1697L84.4268 96.163C83.3521 96.247 82.7125 96.2238 81.6267 96.2204C81.1549 96.2204 80.5597 96.0337 80.2977 96.0629L80.2506 97.3841V97.385ZM6.8444 93.2696L6.85981 93.0024L6.58751 93.029L3.75658 93.1412L4.07684 91.4346C5.35615 91.4243 6.29979 91.4791 7.45836 91.5784L7.51573 90.2546L1.42061 90.2443C1.45743 91.676 0.479527 96.038 0 97.409L6.22358 97.4115L6.70054 96.0825C5.5334 96.2821 4.31746 96.2581 3.13491 96.2136L3.48086 94.3443C4.56836 94.203 5.60961 94.3734 6.64487 94.4547L6.8444 93.2696ZM92.0761 96.2975C90.6555 96.6203 90.1571 96.2923 90.8516 94.9659C91.683 94.8872 91.6693 94.8794 92.4794 94.9163L92.0761 96.2975ZM88.8153 93.1069L88.7365 93.3064C89.4627 93.1943 91.9999 93.0658 92.6977 93.291C92.7817 93.9855 92.3544 93.8673 91.6882 93.8622C91.1187 93.857 90.5322 93.8468 89.9662 93.8596C88.7314 93.8861 88.3246 94.2475 88.0575 95.3907C87.7346 96.7539 87.7458 97.3696 89.2186 97.4115C90.241 97.4406 91.6591 97.6188 92.1574 96.9217C92.3432 97.5323 91.6745 97.415 94.8154 97.4064C94.5405 95.9541 96.0185 93.1018 94.8864 92.3782C94.2887 91.998 90.1186 92.1316 89.1116 92.1787L88.8153 93.1069ZM45.6236 94.3288C45.6681 93.8408 45.7178 93.5873 45.8933 93.2328L46.6512 93.1857L47.558 93.2482L47.409 94.3229L45.6236 94.328V94.3288ZM49.435 96.4234L49.5454 96.2418C48.6206 96.3574 47.7318 96.3754 46.759 96.3805C45.4772 96.3831 45.1732 96.6503 45.3693 95.3633L49.7552 95.3555C49.8888 94.7656 50.2091 93.5017 50.1329 92.9356C50.007 91.992 48.9109 92.1598 48.0435 92.1624C43.1232 92.1727 43.5008 91.7086 42.7379 95.5182C42.5597 96.4122 42.4099 97.2403 43.4589 97.385C44.4213 97.516 48.0803 97.4843 49.0925 97.3824L49.4358 96.4234H49.435ZM37.8296 94.3263C37.8715 93.9144 37.9683 93.5291 38.0993 93.2439L38.7338 93.1968L39.1637 93.1917L39.7665 93.2388L39.6175 94.3246L37.8296 94.3271V94.3263ZM41.6461 96.4439L41.754 96.229C40.8574 96.3471 38.4692 96.5013 37.5829 96.3C37.4673 95.9806 37.5204 95.7811 37.5778 95.3984L41.9612 95.3564C42.9708 91.5476 42.147 92.171 37.9871 92.1633C36.5348 92.1581 35.7145 92.1504 35.3609 93.5C34.1997 97.9219 34.9096 97.409 37.8801 97.4107C38.9761 97.4132 40.2289 97.4715 41.3044 97.3901L41.6478 96.4439H41.6461ZM7.80859 92.1684C8.0809 93.3535 7.28967 96.473 6.79131 97.4064L9.88769 97.409C9.76181 96.5989 10.1814 93.7577 10.5796 93.3116C10.9521 93.1309 11.6936 93.1386 12.1577 93.2876C12.2442 93.7757 11.9402 94.8863 11.8323 95.4292C11.638 96.4148 11.5909 96.5801 11.2158 97.4081L14.3062 97.4107C14.1358 95.9378 15.1008 93.8065 14.6752 92.7944C14.3978 92.1307 13.6211 92.1598 12.7434 92.1598C11.8238 92.1624 10.9632 91.9578 10.5933 92.5923L10.5256 92.4458C10.5128 92.4244 10.4597 92.338 10.4443 92.3174C10.2114 92.0006 8.35234 92.1624 7.80688 92.1684H7.80859ZM102.585 94.3237C102.625 93.941 102.709 93.5505 102.847 93.2593C103.71 93.1703 103.637 93.1514 104.483 93.267C104.632 94.6191 104.226 94.3391 102.585 94.3237ZM106.73 95.3359C107.412 92.2112 107.338 92.159 104.947 92.1641C100.052 92.1718 100.472 91.6949 99.7091 95.4857C99.5259 96.3848 99.3606 97.2052 100.375 97.3781C101.566 97.5802 104.67 97.4149 106.053 97.4124L106.436 96.2221C105.456 96.39 104.895 96.3771 103.878 96.3823C102.645 96.3823 102.105 96.7179 102.331 95.4283C103.199 95.1929 105.616 95.4386 106.73 95.3367V95.3359ZM29.556 97.4115C29.4327 96.6015 29.7923 94.5309 30.0544 93.637C30.2513 92.9579 30.8824 93.1549 31.8286 93.2936C31.9913 94.316 31.2284 96.5861 30.8876 97.409C31.8963 97.4141 33.0086 97.4663 33.9968 97.3747C33.787 96.3103 34.2091 95.2091 34.4035 94.1345C34.6784 92.6248 34.1911 92.1607 32.744 92.1633C31.5169 92.1633 30.6444 91.9715 30.2642 92.5752C30.1383 92.3936 30.1648 92.6145 30.1537 92.1795L27.4769 92.1607C27.6653 93.172 27.3562 94.0797 27.1678 95.0336C26.9426 96.1639 26.8689 96.4782 26.4648 97.4064L29.5551 97.4115H29.556ZM60.6833 92.1924C61.0087 93.4058 60.1087 96.4028 59.6772 97.4141L62.7701 97.3773C62.5869 96.4859 63.1006 93.9273 63.4517 93.2122L65.0299 93.2568C65.1266 93.8313 64.8252 94.8503 64.7071 95.4455C64.5101 96.4679 64.4476 96.6015 64.0888 97.409L67.2032 97.4012C66.9514 95.9567 68.0321 93.7937 67.5337 92.7798C67.222 92.1402 66.4008 92.1616 65.5831 92.1616C64.582 92.1641 63.9056 91.9697 63.4569 92.6103C63.444 92.5837 63.4303 92.5478 63.4226 92.534L63.2308 92.1616L60.6825 92.1932L60.6833 92.1924ZM107.917 95.5191C108.871 96.0303 110.732 95.4797 111.487 95.907C111.461 96.4319 111.371 96.4422 110.839 96.4576L108.37 96.4319C107.927 96.4002 107.709 96.2564 107.329 96.2375L107.28 97.4064C108.462 97.4304 109.652 97.4141 110.829 97.4141C112.163 97.4115 112.981 97.5948 113.66 96.7085C114.032 96.229 114.507 94.3571 113.885 93.9195C113.267 93.482 111.321 93.9093 110.504 93.6601C110.425 92.9391 110.701 93.1335 112.218 93.1309C113.188 93.1309 113.505 93.1232 114.381 93.3929L114.42 92.1607C113.127 92.1658 110.614 92.0194 109.471 92.2027C108.055 92.4304 107.533 94.1139 107.916 95.5182L107.917 95.5191ZM98.5925 97.3679C98.2671 95.7452 99.6937 92.0956 99.7143 90.2426L96.9227 90.2503C97.028 91.7103 96.0604 96.0826 95.5021 97.415L98.5925 97.3679ZM32.4708 67.805L38.3091 67.8101L38.9539 64.6615L33.0814 64.6513L32.4708 67.805ZM50.1628 97.4038L53.2584 97.4064C53.0957 96.497 53.3551 95.2939 53.6017 94.4153C53.922 93.2722 55.4762 93.5924 56.1449 93.8545L56.4986 92.1872C54.923 92.0716 54.5608 92.0511 53.7276 92.8971L53.7516 92.1684L51.175 92.171C51.4242 93.3895 50.6638 96.1322 50.1637 97.403L50.1628 97.4038ZM26.6146 92.1607L23.7572 92.1761C23.9301 93.2011 23.4737 95.0413 23.2117 96.2136C23.091 96.7513 22.9257 96.9423 22.7527 97.4115H25.8328C25.623 95.9361 26.4125 93.7312 26.6138 92.1607H26.6146ZM59.0212 97.4115C58.8748 95.6869 59.6266 93.8699 59.8262 92.1633H56.9713C57.2102 93.6472 56.4575 96.2367 55.954 97.409L59.0212 97.4115ZM57.6349 90.3445L57.3729 91.5895L59.9161 91.6315L60.1884 90.2529C59.4254 90.2452 58.2095 90.0585 57.6349 90.3445ZM24.1562 91.6187L26.7362 91.6289L26.9854 90.2503H24.4396L24.1562 91.6187Z" fill="#212529"/>
<path d="M23.7764 53.0323L65.4344 9.64706L63.387 0L23.7764 53.0323Z" fill="#D12427"/>
<path d="M82.7269 60.2463L92.3662 61.9898L64.7617 1.92383L82.7269 60.2463Z" fill="#373272"/>
<path d="M24.083 54.716L30.4222 47.4751L90.3725 62.8234L24.083 54.716Z" fill="#FEC900"/>
<path d="M114.417 66.0039C115.251 66.0039 116.008 66.3421 116.556 66.8902C117.104 67.4382 117.445 68.196 117.445 69.0318C117.445 69.8684 117.104 70.6253 116.556 71.1734C116.008 71.7214 115.251 72.0597 114.417 72.0597C113.581 72.0597 112.823 71.7214 112.276 71.1708C111.728 70.6228 111.387 69.865 111.387 69.0318C111.387 68.1952 111.728 67.4382 112.276 66.8902C112.824 66.3421 113.581 66.0039 114.417 66.0039ZM116.155 67.2909C115.71 66.8457 115.096 66.5699 114.417 66.5699C113.736 66.5699 113.122 66.8448 112.676 67.2909C112.231 67.7362 111.955 68.3502 111.955 69.0318C111.955 69.7108 112.23 70.3265 112.674 70.7701C113.122 71.2153 113.736 71.4911 114.417 71.4911C115.096 71.4911 115.709 71.2162 116.155 70.7726C116.601 70.3274 116.876 69.7108 116.876 69.0318C116.876 68.3527 116.602 67.7371 116.155 67.2909Z" fill="#212529"/>
<path d="M113.925 69.3357V70.4891H113.139V67.4424H114.339C114.74 67.4424 115.034 67.5083 115.22 67.6445C115.409 67.7781 115.504 67.9904 115.504 68.2816C115.504 68.4836 115.454 68.6489 115.356 68.7799C115.26 68.9084 115.112 69.0026 114.916 69.0634C115.023 69.089 115.121 69.1447 115.205 69.2312C115.291 69.3177 115.378 69.4487 115.464 69.6242L115.892 70.4891H115.052L114.683 69.7313C114.606 69.5789 114.53 69.4744 114.455 69.4196C114.379 69.3639 114.277 69.3357 114.148 69.3357H113.926H113.925ZM114.255 68.7928C114.421 68.7928 114.539 68.7611 114.609 68.7011C114.68 68.6412 114.716 68.5384 114.716 68.3997C114.716 68.261 114.679 68.1608 114.609 68.1009C114.538 68.0409 114.421 68.0118 114.255 68.0118H113.925V68.7928H114.255Z" fill="#212529"/>
</g>
</g>
<defs>
<clipPath id="clip0_1392_596">
<rect width="117.6" height="100" fill="white"/>
</clipPath>
<clipPath id="clip1_1392_596">
<rect width="117.6" height="100" fill="white"/>
</clipPath>
</defs>
</svg>
