<svg xmlns="http://www.w3.org/2000/svg" xmlns:xlink="http://www.w3.org/1999/xlink" viewBox="0 0 2988.99 2104.24"><defs><linearGradient id="a" x1="-4961.01" x2="-4967.69" y1="1240.03" y2="2891.08" gradientTransform="matrix(-1 .03 .03 1 -2358.7 107.57)" gradientUnits="userSpaceOnUse"><stop offset="0" stop-color="#bda5f5"/><stop offset=".45" stop-color="#dccbf6"/><stop offset="1" stop-color="#fff6f7"/></linearGradient><linearGradient id="i" x1="-4659.42" x2="-4666.34" y1="1168.6" y2="2875.69" xlink:href="#a"/><linearGradient id="j" x1="-4780.98" x2="-4787.66" y1="1240.76" y2="2891.8" xlink:href="#a"/><linearGradient id="b" x1="-1111.64" x2="-1067.7" y1="1008.01" y2="1075.24" gradientTransform="matrix(-1 0 0 1 1626.19 0)" gradientUnits="userSpaceOnUse"><stop offset=".04" stop-color="#d29560"/><stop offset="1" stop-color="#c17c3f"/></linearGradient><linearGradient id="k" x1="-894.12" x2="-883.4" y1="508.25" y2="459.47" gradientTransform="matrix(1 0 0 -1 3417.2 1029.07)" xlink:href="#b"/><linearGradient id="l" x1="1641.66" x2="1772.62" y1="999.69" y2="1050.01" gradientTransform="matrix(-1 0 0 1 4062.04 0)" gradientUnits="userSpaceOnUse"><stop offset="0" stop-color="#c17c3f"/><stop offset=".96" stop-color="#d29560"/></linearGradient><linearGradient id="m" x1="-1285.07" x2="-586.83" y1="943.35" y2="855.24" gradientTransform="matrix(-1 0 0 1 1626.19 0)" gradientUnits="userSpaceOnUse"><stop offset="0" stop-color="#ff307c"/><stop offset=".17" stop-color="#ff5f6c"/><stop offset=".32" stop-color="#ff8261"/><stop offset=".44" stop-color="#ff975a"/><stop offset=".52" stop-color="#ff9f57"/><stop offset="1" stop-color="#ffe263"/></linearGradient><linearGradient id="c" x1="6668.63" x2="6704.18" y1="1318.5" y2="1355.45" gradientTransform="matrix(.8 -.09 -.01 .89 -2892.26 -259.96)" gradientUnits="userSpaceOnUse"><stop offset=".01" stop-color="#3b0037"/><stop offset="1" stop-color="#72005a"/></linearGradient><linearGradient id="n" x1="6707.71" x2="6745.41" y1="1411.26" y2="1450.44" gradientTransform="matrix(.82 -.13 .06 .9 -3054.63 -43.4)" xlink:href="#c"/><linearGradient id="d" x1="-4783.83" x2="-4203.54" y1="1008.01" y2="1008.01" gradientTransform="matrix(-.99 -.11 -.11 .99 -2133.4 -362.72)" gradientUnits="userSpaceOnUse"><stop offset="0" stop-color="#75649c"/><stop offset="1" stop-color="#9d97de"/></linearGradient><linearGradient id="o" x1="-4485.98" x2="-4061.38" y1="843.46" y2="843.46" xlink:href="#d"/><linearGradient id="e" x1="2357.93" x2="2427.04" y1="-49.34" y2="-49.34" gradientTransform="rotate(-23.46 2394.495 3699.299)" gradientUnits="userSpaceOnUse"><stop offset="0" stop-color="#f6b98a"/><stop offset="1" stop-color="#ffd3b0"/></linearGradient><linearGradient id="r" x1="2091" x2="2237.95" y1="55.38" y2="94.57" xlink:href="#e"/><linearGradient id="t" x1="2463.01" x2="2707.34" y1="1039.57" y2="1039.57" gradientTransform="translate(-1310.53)" xlink:href="#e"/><linearGradient id="h" x1="2050.75" x2="2416.04" y1="-170.6" y2="-170.6" gradientTransform="rotate(-23.46 2394.495 3699.299)" gradientUnits="userSpaceOnUse"><stop offset="0" stop-color="#be3e00"/><stop offset=".98" stop-color="#d87209"/></linearGradient><linearGradient id="x" x1="2351.41" x2="2406.26" y1="-180.61" y2="-180.61" xlink:href="#h"/><linearGradient id="y" x1="-2281.25" x2="-2287.93" y1="1221.72" y2="2872.59" gradientTransform="rotate(-9.01 -1007.502 -15809.919)" xlink:href="#a"/><linearGradient id="z" x1="-2393.18" x2="-2400.45" y1="1198.7" y2="2994.85" gradientTransform="rotate(6.23 -1508.976 26356.845)" xlink:href="#a"/><linearGradient id="A" x1="-1830.51" x2="-1837.42" y1="1186.92" y2="2894.01" gradientTransform="rotate(1.74 -2164.283 90770.07)" xlink:href="#a"/><linearGradient id="B" x1="-2132.29" x2="-2138.97" y1="1203.36" y2="2854.36" gradientTransform="rotate(-16.44 -1028.38 -7980.194)" xlink:href="#a"/><linearGradient id="C" x1="4037.06" x2="3855.96" y1="1285.34" y2="2882.86" gradientTransform="translate(-1310.53)" xlink:href="#a"/><linearGradient id="D" x1="-1669.96" x2="-1851.06" y1="1285.34" y2="2882.86" gradientTransform="matrix(-1 0 0 1 -308.73 0)" gradientUnits="userSpaceOnUse"><stop offset="0" stop-color="#d6beff"/><stop offset=".32" stop-color="#e4d4ff"/><stop offset="1" stop-color="#fff"/></linearGradient><linearGradient id="E" x1="2321.05" x2="4299.52" y1="1192.24" y2="1192.24" gradientTransform="translate(-1310.53)" gradientUnits="userSpaceOnUse"><stop offset="0" stop-color="#fff6f7"/><stop offset=".55" stop-color="#dccbf6"/><stop offset="1" stop-color="#bda5f5"/></linearGradient><radialGradient id="p" cx="-4065.05" cy="690.98" r="11.94" gradientTransform="matrix(-1.74 -.19 -.19 1.74 -4913.01 -1047.3)" gradientUnits="userSpaceOnUse"><stop offset=".06" stop-color="#b7cdce"/><stop offset="1" stop-color="#cbdfe0"/></radialGradient><radialGradient id="q" cx="2533.42" cy="271.3" r="55.59" gradientTransform="matrix(1.61 -.7 .7 1.61 -3409.7 1791.54)" xlink:href="#e"/><radialGradient id="g" cx="2502.95" cy="925.5" r="79.85" gradientTransform="matrix(1.75 0 0 1.75 -3473.3 -411.15)" gradientUnits="userSpaceOnUse"><stop offset="0" stop-color="#4d3581"/><stop offset="1" stop-color="#5a53a2"/></radialGradient><radialGradient id="s" cx="5766.95" cy="-7216.05" r="44.82" gradientTransform="matrix(1.31 1.16 -2.92 3.31 -27486.73 18132.36)" gradientUnits="userSpaceOnUse"><stop offset="0" stop-color="#ffd3b0"/><stop offset="1" stop-color="#f6b98a"/></radialGradient><radialGradient id="f" cx="2496.1" cy="819.42" r="155.28" gradientTransform="matrix(1.75 0 0 1.75 -3473.3 -411.15)" gradientUnits="userSpaceOnUse"><stop offset=".02" stop-color="#b42d34"/><stop offset="1" stop-color="#d34259"/></radialGradient><radialGradient id="u" cx="2898.43" cy="1147.19" r="27.92" gradientTransform="matrix(1.68 .5 -.5 1.68 -2809.08 -1444.12)" xlink:href="#f"/><radialGradient id="v" cx="2612.21" cy="1215.88" r="158.57" gradientTransform="rotate(-13.1 148.32 16533.679) scale(1.75)" xlink:href="#g"/><radialGradient id="w" cx="-9635.32" cy="-9659.61" r="36.19" gradientTransform="matrix(-1.44 .99 -4.76 -6.96 -59042.28 -56338.12)" xlink:href="#g"/></defs><g data-name="Layer 2"><g data-name="Layer 1"><ellipse cx="1478.7" cy="2041.93" fill="#f2f2f2" rx="1478.7" ry="62.31"/><polygon fill="url(#a)" points="2578.01 1297.67 2789.57 2024.91 2779.36 2024.33 2517.01 1282.6 2578.01 1297.67"/><polygon fill="url(#i)" points="2405.51 1233.23 2232.82 1997.06 2243.33 1995.82 2467.52 1213.85 2405.51 1233.23"/><polygon fill="url(#j)" points="2446.49 1282.78 2557.68 2031.96 2547.63 2029.99 2388.1 1259.59 2446.49 1282.78"/><path fill="#9d94e6" d="M2690.21,678C2539,650.84,2449,843.66,2392.43,1054.73c-55.77,208.24-430.61,210.19-275,380.5,54.44,59.58,509.7,74.82,660.05-42C2957.57,1253.2,2876,711.3,2690.21,678Z"/><path fill="#362032" d="M2692.09,102.43c36.91-24.63,100.9,17.6,100,78.25,135.38,77,6.95,340.06-45.22,265.74,21.67,63.72-82.54,100.05-89,36.78-30.53,35.48-75,61.48-121.69-34.38-48.34-58.14-33.55-144.21-46.67-213.71-6.52-34.57-1.05-46.5-6-83.44C2471.88,64,2558.39,43.29,2569,69.34,2606.15,11.05,2689.32,57.39,2692.09,102.43Z"/><path fill="url(#b)" d="M2757.3,967.92s20.34,118.62,8.9,144.29c-9.76,21.91-85.63-43.23-85.63-43.23l-15.52-97.43Z"/><rect width="70.56" height="132.07" x="2486.41" y="448.5" fill="url(#k)" transform="rotate(180 2521.695 514.535)"/><polygon fill="#d29560" points="2553.54 1059.53 2655.31 614.3 2516.78 514.06 2432.35 571.54 2468.6 1038.93 2553.54 1059.53"/><path fill="#c95e49" d="M1935.09,1952.78c15.41,10.4,31.33,21.54,17.35,31.36-14.51,10.21-6.77.24-27.51,13-13.08,8-34.75,56.25-63.62,49.88-6.07-1.33,20.55-22.51,25.69-39.61,6.5-21.69,15.4-29.66,22.1-39.66C1914.3,1960,1935.09,1952.78,1935.09,1952.78Z"/><path fill="#c95e49" d="M2166.42,1947.12c15.41,10.4,31.32,21.53,17.35,31.35-14.52,10.21-6.77.24-27.52,13-13.08,8-34.74,56.24-63.62,49.88-6.06-1.34,20.56-22.51,25.69-39.62,6.51-21.69,15.4-29.66,22.1-39.66C2145.63,1954.32,2166.42,1947.12,2166.42,1947.12Z"/><path fill="#333c56" d="M2525,1309.78c-7.32,20.58-19.13,46.31-45.8,52.74-136,32.83-269.32,75.34-396.21,84.74,76.18,120-97.7,255.32-141.63,510.7-2.06,12-12,27.46-24.93,19.62,58.13-328.5,56.36-494.11,67.64-552.1,14.23-73.19,388.06-292.44,530.2-220.31C2533.82,1234.4,2534.63,1282.78,2525,1309.78Z"/><path fill="url(#l)" d="M2313,944.63s-17.71,63.87-31.15,95.65-107.07-1.88-124.09,31.68,39.72,73.44,39.72,73.44l130.84-14,76.15-123.89Z"/><path fill="url(#m)" d="M2580.86,555.44s-20.1,61.15-102.52,61.15c-46,0-42.41-53.31-42.41-53.31s-59,47.47-71.37,69c-40.34,70.15-46.16,187.51-71.88,315.62,22.22,9.68,55.22,26.36,63.91,48.06,5.09,12.71,14.91,83.37-29.16,214.74,40.48-2.67,67,7.56,108.23,17.21,98.89,23.15,234.86-3.49,226.54-23.76-88.45-215.35-13.39-215.35,2.85-178.31,28.32,8.4,104.31-35.22,104.31-35.22s-20.46-278.43-70-353.74C2679.59,606.85,2580.86,555.44,2580.86,555.44Z"/><path fill="#3e4766" d="M2674.57,1308.13c-7.33,20.58-19.14,46.31-45.8,52.75-136.05,32.82-269.32,75.33-396.22,84.73,114,83.62-22.32,261.24-66.25,516.61-2.07,12-20.6,20.33-23.51,11.09,58.13-328.5-20.43-491.48-9.16-549.47,14.24-73.19,388.06-292.45,530.21-220.32C2683.37,1232.75,2684.17,1281.13,2674.57,1308.13Z"/><path fill="#d29560" d="M2416.47,295c-10.43,13-24,11.11-28.32,24-19.83,59.62,29,149.49,53.76,158.11,22.38,7.77,87.17,1,132.68-37.92,15.82-13.52,34.91-31.78,41.54-50.07,23.15-37.22,33.95-89.62,30.36-126.08-4.89-49.5-139.43-104.87-148-97.85-18.73,15.4-64.44,55.81-75.06,74.72C2419.37,247.2,2419.57,274.31,2416.47,295Z"/><path fill="#ba7a4f" d="M2486.73,293c-26.38,83.87-79.52,41-54.48,72.55a36.67,36.67,0,0,0,19.8,11.63c-14.49-8.51-19.84-24.1-20.33-21.26C2428.3,357.12,2477,357.44,2486.73,293Z"/><path fill="#261425" d="M2521.66,199.39c-10.08-6.21-32-24.25-37.61-20.21-14.16,10.26-34.45,30-38.74,34.5s5.15-31,38.23-62c35.85-33.6,52.17-22.73,61.08-18.36s105.11,31.44,118.34,41.14,44.56,91.45,38.43,109.11c-3.27,9.4-21.23,46.78-44.68,82.67-20.59,31.51-17.44-3.62-24-11.23-9.61-11.21-22.74-89.13-25.84-129.55C2605.29,204.41,2529.11,204,2521.66,199.39Z"/><path fill="#d29560" d="M2644,344.29c23.64-13.73,29.45,6.22,25.73,15.12s-54.79,54-53.55,29.7S2644,344.29,2644,344.29Z"/><path fill="#261425" d="M2882.22,309.85a13.49,13.49,0,0,0,10.74-8.74c7.75-20.09-15.71-39-28.31-49.14C2828,222.5,2786.59,204.29,2725.07,203c-7.15-.14-17.38-1.86-25.69,4.85-6.47,5.22-8.84,22.36,20.66,21.83,39.3-.69,98.4,28.69,126.15,59C2855.19,298.51,2867.16,311.77,2882.22,309.85Z"/><path fill="#261425" d="M2824.57,436.13c12.73-62.83-6.36-113.88-50.88-160.11-14.74-15.31-36-36.06-56.27-29.34a9.72,9.72,0,0,0-6.92,8.17c-1.25,11.16,17.13,16.84,27.06,24.79,41.3,33.09,60.45,94.26,47.65,152.21-1.94,8.8-5.78,19.75-3.47,30.52C2785.15,478.22,2814.12,487.69,2824.57,436.13Z"/><path fill="#261425" d="M2677.48,167.64c4.16-11.27,12.08-22,22.9-31,6.6-5.5,13.62-7.17,25-6,31.76,3.37,36.5,15.08,51.61,20.33,9.91,3.44,17-.89,19.11-8.38,9.91-35.1-38-51.27-73.27-50.91-39.74.39-66,37.4-67.56,71.46C2654.72,176.1,2673,179.86,2677.48,167.64Z"/><path fill="#261425" d="M2598.87,137a11.81,11.81,0,0,0,2.27-12.79c-16.38-39.28,9.17-67,34.32-60.48,11,2.87,19.27,13.71,27.22,16.47,14.24,5,27.37-9.85,22.26-24.24-12.16-34.2-74.56-48.72-104.76-7.46-16.32,22.29-16.56,53.53-.66,85.72a11.79,11.79,0,0,0,6.68,6C2583.52,139.26,2592.45,143.8,2598.87,137Z"/><path fill="#261425" d="M2651.14,533.71c49.74-29.81,83.92-120.09,79.51-210-.67-13.44-21.19-13.4-20.91.34,1.57,77-39.94,152.46-69.23,175.15-20.61,16-33,7.94-48.83,9.79-14.78,1.73-19.78,25.08,5.85,34C2614,548.71,2636.18,542.67,2651.14,533.71Z"/><path fill="#785a72" d="M2578.51,162.35c88.76,11.07,84,27.41,97.95,113.08C2654.21,206.57,2658.58,180,2578.51,162.35Z"/><path fill="#785a72" d="M2577.23,174.31c63.59,15.33,63,22.65,82.17,85.69C2639.7,213.69,2637.65,193.9,2577.23,174.31Z"/><path fill="#785a72" d="M2565,156.78c-51.29-31.08-55.61-20.53-98.54,18.75C2506.77,148.57,2515.5,132.79,2565,156.78Z"/><path fill="#785a72" d="M2559.77,166.17c-36.39-17.84-44-20.09-77.95,8.34C2511.44,158.34,2519.85,151.35,2559.77,166.17Z"/><path fill="#94728d" d="M2579.82,123.6c-7.75-80.84,55-113,94.19-73.49C2637-1.81,2559.12,45.49,2579.82,123.6Z"/><path fill="#94728d" d="M2659.83,165.87c5.68-26.53,23.39-52.8,48.91-60.49,26.76-8.52,52.66,1.06,78.9,12.78C2709.09,67,2662.1,119,2659.83,165.87Z"/><path fill="#94728d" d="M2703,213.62c40.52-4.14,125.76,21,164.51,52.32,14,11.05,18.91,19.35,21.85,23.85C2862,232.87,2749.45,202.67,2703,213.62Z"/><path fill="#94728d" d="M2727.4,249.93c62,28.27,108.64,116.67,94.6,196.64C2844.42,371.51,2797,272.39,2727.4,249.93Z"/><path fill="#94728d" d="M2730.65,323.72c.61,60.88-14.22,126-44.37,175.64C2719.44,461.56,2741.24,381.1,2730.65,323.72Z"/><path fill="#fff" d="M2464.38,320.34c-30,11.33-45.39,2.3-52.55-10.24-5.13-9,.86-34.52,12.48-34.57C2447.76,275.42,2457.87,297.47,2464.38,320.34Z"/><path fill="url(#c)" d="M2443.2,304.83c-4.66,11.53-15.88,17.87-25.07,14.16s-12.86-16.06-8.21-27.59,15.88-17.86,25.06-14.16S2447.85,293.3,2443.2,304.83Z"/><path fill="#fff" d="M2430.08,310.7c-6.43-3.85-.23-14.21,6.2-10.35S2436.51,314.56,2430.08,310.7Z"/><path fill="#fff" d="M2429.71,296.41c-4.85-2.91-.17-10.72,4.68-7.81S2434.56,299.32,2429.71,296.41Z"/><path fill="#071d49" d="M2403.6,258.77c-3.53,12.06,6.91,23,12.38,22.59,23.24-1.87,35.32,7.25,48.4,39,3.17-23.56-18.73-50.71-45.68-46.61C2414.73,272.16,2405.78,266.3,2403.6,258.77Z"/><path fill="#fff" d="M2569.94,357.72c-31,13.91-47.91,5.33-56.29-7.48-6-9.18-1.29-36.6,11-37.39C2549.47,311.24,2561.58,333.93,2569.94,357.72Z"/><path fill="url(#n)" d="M2548,343.12c-4.19,12.52-16,19.86-26.38,16.38s-15.39-16.45-11.2-29,16-19.86,26.39-16.38S2552.23,330.6,2548,343.12Z"/><path fill="#fff" d="M2533,349.71c-7.05-3.67-1.15-15,5.91-11.35S2540.06,353.38,2533,349.71Z"/><path fill="#fff" d="M2531.71,334.6c-5.32-2.76-.87-11.33,4.45-8.56S2537,337.37,2531.71,334.6Z"/><path fill="#071d49" d="M2501.66,296.44c-3,13,8.79,23.92,14.55,23.11,24.49-3.47,37.86,5.42,53.73,38.17,1.19-27.59-26.79-52.59-51.34-46.42C2514.3,309.9,2504.45,304.26,2501.66,296.44Z"/><path fill="#fffef0" d="M2510.82,412.15s-56.12,7.73-84.49-17.62c-2.72,11.13,21.86,32.9,26.91,33.52C2467.17,429.76,2498.65,420.36,2510.82,412.15Z"/><path fill="#071d49" d="M2471.64,263.54c-9.54-14.9-22.06-24.59-41.25-24.41l-.47-5.2c21.49-2.29,37.26,7.06,50.23,23.57Z"/><path fill="#071d49" d="M2523.25,269.18c18.57-2.49,37.23-1,56.83,14.11,4.75,3.54,10.47,9.22,12.91,12.72l-4.26,3a59,59,0,0,0-8-7.37c-18.91-13.94-34.63-16.54-55.73-12.18Z"/><path fill="#d29560" d="M2650.72,1040.28c-72.49,0-112,39-242.61,73.12,154.75,3.42,251.93,18.08,272.46,19.36,27.54,1.72,82-8.39,85.63-20.55C2776,1079.5,2695.3,1040.29,2650.72,1040.28Z"/><path fill="#d29560" d="M2477.59,1092.32c-49-4.9-91-55.86-114.63-21.31-10.47,15.31-14.49,23.92-14.4,28.72.07,4.2,7.65,6.57,15,3.9,3.24-1.17,11-11.08,13.58-11.13,4.1-.08-1.77,8.32,3.63,9.39s10.78-24.62,21.31-16c18.05,14.71,42.31,41,56.78,26.49S2477.59,1092.32,2477.59,1092.32Z"/><polygon fill="url(#d)" points="1930.88 1122.72 1934.43 1159.68 2188.2 1170.27 2510.83 1158.21 2506.83 1113.37 2129.6 1088.84 1930.88 1122.72"/><polygon fill="url(#o)" points="2214.21 1130.54 2169.1 776.87 1837.69 737.64 1829.47 748.96 1931.53 1129.41 2189.73 1140.21 2214.21 1130.54"/><polygon fill="url(#p)" points="2026.2 944.05 2019.64 927.68 2015.58 927.23 2014.95 932.91 2010.35 933.56 2006.12 926.18 2005.26 933.9 1998.17 933.11 1995.35 928.33 1994.56 935.42 1991.51 937 1990.91 942.36 1997.06 943.04 1996.66 938.05 2000.62 941.2 2007.48 941.96 2007.98 937.4 2011.25 944.62 2017.67 945.34 2018.37 939.04 2026.2 944.05"/><polygon fill="#a1aba9" points="2214.5 1133.6 2506.98 1114.9 2506.68 1111.83 2214.21 1130.54 2214.5 1133.6"/><path fill="#a1aba9" d="M2190.26,1139.11a1.7,1.7,0,0,0,.39,0,1.54,1.54,0,0,0,1.31-1.74L2157,790.1,1836.82,746a1.59,1.59,0,0,0-1.74,1.31,1.54,1.54,0,0,0,1.31,1.74l317.86,43.82,34.66,344.95A1.55,1.55,0,0,0,2190.26,1139.11Z"/><path fill="#a1aba9" d="M2189,1140.37a1.54,1.54,0,0,0,.43-3l-255-9.26a1.5,1.5,0,0,0-1.78,1.25,1.54,1.54,0,0,0,1.26,1.78l255,9.27Z"/><path fill="url(#e)" d="M890.28,229.19c8.71,5,18.41,8,27.31,12.65S935,253.2,938.36,262.65c3.2,8.9,1.35,19-2.86,27.46s-10.61,15.63-16.92,22.67a15.08,15.08,0,0,1-4.25,3.68,12.05,12.05,0,0,1-6.58.8c-10.11-1.07-19.11-7.39-25.38-15.39s-10.15-17.58-13.49-27.19a319.32,319.32,0,0,1-10.23-36.32C850.8,202.37,873.82,219.78,890.28,229.19Z"/><path fill="#4d1618" d="M878.1,234.66c-4.91-5-30.35-34.14-24.87-43.38,5.8-9.78,36.65-18.45,46-20.87l4.58-1.2,1.24,4.57c15.47,57.39,9.26,69.45,2.13,73.54a11.12,11.12,0,0,1-5.62,1.47C895.21,248.79,887.36,244.06,878.1,234.66ZM862,195.45c1.75,7.39,22.62,37.23,36.62,43.06,1.36.57,3.17,1.09,4,.35,1.31-1.15,7-9.28-5.62-58C881.79,185.21,865.74,191.47,862,195.45Z"/><path fill="url(#q)" d="M791.15,65s63.08,68.07,62.08,92.19c-.83,19.92,20.16,77.51,30.55,88.91,14.13,15.5,35.35,17.46,53.93,82.18,16.51,57.51,4.49,129.49-9,141.42-32.75,28.92-91.94,10.06-108.91,2C793.49,459.2,679.56,391.81,650.92,367,582,307.44,551.16,210.24,587,128.43,630,30.61,758.49,38.05,791.15,65Z"/><path fill="url(#r)" d="M867.38,603.87c-20.83,49.91-214.32,54.4-201.77,25.24,31.12-72.31,15.62-150.34-13-287.3C639.33,278,787.36,253.4,802.35,365.07,816,467,872.91,590.63,867.38,603.87Z"/><path fill="url(#g)" d="M1122.59,1330.36c-15-66.1-313-195.69-372.7-164.14s130.24,204,233.21,220.59S1122.59,1330.36,1122.59,1330.36Z"/><path fill="url(#s)" d="M1316.09,758.71c-13.56,14.74-21.73,185.47-92.22,284.08-58.66,82.06-134.49,108.49-194.26,93.58-10.95-2.73-45.73-79.93-2.31-139.73,69.89-96.25,206.13-138.31,267.74-250,4.65-8.41-.54-17.42,3.69-27.89,6.41-15.89,22-33.44,28.41-43.67,3.59-5.74,4.17-14.21,6.63-12.75,22.31,13.27-9.83,36.25-5.4,42.9,1.6,2.38,4.38,3.67,7.1,4.55,18.75,6.12,125.33-8.51,125.33-2.82C1460.8,720.86,1345.24,727,1316.09,758.71Z"/><path fill="url(#t)" d="M886.83,947.06s71.39,187,142.78,189.31,122.61-47.63,93-132.35S886.83,947.06,886.83,947.06Z"/><path fill="url(#f)" d="M474.11,815.12c21.33,100.74,110,485.76,230.06,529.12,42.46,15.34,144.59-123,157.39-172.81C907.2,994,1025.65,905.73,1071.2,794.58c-41-106.3-105-200-218.14-242.63-48.47,33.41-174.87,25.93-170.88-32.08C476.62,534.18,463,762.7,474.11,815.12Z"/><path fill="url(#u)" d="M1533.73,1878.15c1.57,43.9-58.2,86.42-94.2,75.53-9.4-2.84-21.3-19.24-13.19-30.09C1447.85,1894.81,1533,1858.1,1533.73,1878.15Z"/><path fill="#d34259" d="M1568.93,1970.48s-56.46-3.3-81.27-15.62c-13.24-6.57-21.11-15.19-29.22-20.44-6.17,7.49-21.91,11.78-31.52,10.71-2.5,13.3,3.42,30.32,11.69,29.85C1510.14,1970.88,1568.94,1981.7,1568.93,1970.48Z"/><path fill="#d34259" d="M897.39,677.72c-134.31,50.33-10.56,327.93,34,389.42,9.86,13.61,163.91-43.57,176.52-98.27C1124.93,895.08,1038.38,624.89,897.39,677.72Z"/><path fill="url(#v)" d="M1223.06,1705.88c21.46,26.66,173.33,220.14,203.86,239.25,18.43,7.6,52.18-25.17,47.33-30-77.86-77.34-252.67-469.57-271.87-502s-161.11-121.58-182.25-90.41C956.66,1416.34,1170.42,1640.46,1223.06,1705.88Z"/><path fill="url(#w)" d="M1296.11,1370.76c30,44.15,161.87,531,156.73,518.78-57.93-81.89-290.7-355.42-294.83-420-.71-11.1-221.53-14.3-287.82-32.9-161.1-45.23-159.63-204.43,14.45-206.81C1057.85,1227.43,1265,1325,1296.11,1370.76Z"/><path fill="url(#h)" d="M779.47,59.32c-16.3,11.88-27.1,87.23-13.14,124.73s46.39,106.87,31.81,94.61-42.81-34.86-53.56-19.38c-22.45,32.32,31.84,54.42,38.08,60.41s-42.54,84.53-67.1,104.58c-7,5.74-42.65,21.57-65.64-12.65S532.29,303.21,524.21,247.2C517.52,200.84,574,49.84,616.78,36.34c64.64-20.4,120.46-47.27,172-31.68,35.68,10.79-16.58,3.81-36.68,12.07,42.44,1.2,81.69,23.39,80.6,30.94C831.73,54.43,797.58,46.11,779.47,59.32Z"/><rect width="125.93" height="9.55" x="787.46" y="208.56" fill="#4d1618" transform="rotate(-37.48 850.358 213.338)"/><path fill="url(#x)" d="M848.18,119.19c-16-.28-29.77,56.89-29.77,56.89s39.46-17.17,42.78-29.76C863.11,139,855.7,119.32,848.18,119.19Z"/><polygon fill="url(#y)" points="482.12 1292.14 405.29 2094.92 415.86 2092.28 542.94 1264.26 482.12 1292.14"/><polygon fill="url(#z)" points="415.01 1226.96 114.43 2049.72 125.69 2049.97 483.26 1215.69 415.01 1226.96"/><polygon fill="url(#A)" points="816.95 1236.53 1000.82 2049.84 989.63 2048.52 750.93 1215.89 816.95 1236.53"/><polygon fill="url(#B)" points="572.32 1295.1 708.72 2089.93 718.23 2084.61 623.69 1252.24 572.32 1295.1"/><path fill="#9d94e6" d="M420,640.6C581,611.71,676.85,817,737.05,1041.76c59.38,221.73,458.5,223.81,292.79,405.15-58,63.44-542.72,79.67-702.81-44.78C135.3,1253.09,222.18,676.09,420,640.6Z"/><polygon fill="url(#C)" points="2572.54 1186.38 2744.54 2051.63 2804.86 2051.63 2678.73 1201.99 2572.54 1186.38"/><polygon fill="url(#D)" points="1515.21 1186.38 1343.21 2051.63 1282.89 2051.63 1409.02 1201.99 1515.21 1186.38"/><rect width="1978.48" height="111.82" x="1010.51" y="1136.33" fill="url(#E)"/></g></g></svg>