<svg width="123" height="103" viewBox="0 0 123 103" fill="none" xmlns="http://www.w3.org/2000/svg">
<path d="M105.367 82.8069L105.562 82.5651C105.549 82.6873 105.367 84.9382 104.724 85.6619C104.157 86.3015 102.509 86.0632 101.565 86.0552C100.53 86.0446 97.2558 86.088 96.3859 85.8896C95.9519 85.7895 95.4992 85.4909 95.1086 85.5476L94.9704 88.501C97.9884 88.5063 100.997 88.4762 103.999 88.4629C107.15 88.4522 109.65 88.8075 110.805 86.3209C111.372 85.0976 112.714 77.5779 113.168 75.2995C113.396 74.1444 113.822 72.5526 113.897 71.4108H107.285C107.67 73.3303 106.784 76.1703 106.39 78.1386C106.244 78.8685 106.005 80.9723 105.531 81.2602C104.986 81.5968 102.391 81.4144 101.946 81.1327C101.699 79.8775 103.527 73.3091 103.679 71.4108H96.9077C97.3577 73.5828 96.9024 74.5944 96.4958 76.661C96.2061 78.1386 95.5143 80.5525 96.0103 81.976C96.6287 83.7547 98.1558 83.8123 100.238 83.8096C101.263 83.8096 102.318 83.8344 103.341 83.807C104.589 83.7715 104.786 83.5031 105.369 82.806L105.367 82.8069ZM75.5859 83.799L82.9515 83.8096C82.8621 82.5376 82.6149 82.527 82.9028 80.9945L83.9871 75.552C84.3697 73.6289 84.3724 73.8468 87.2903 73.8468C88.9007 73.8468 88.4614 74.5599 88.1903 75.8939C87.8563 77.5371 87.4285 79.9864 87.0617 81.4968C86.6817 83.062 86.2184 83.2028 86.012 83.791L93.4477 83.8105C93.2935 82.4977 93.1146 82.5633 93.391 81.0689C93.5486 80.2061 93.7276 79.3663 93.9012 78.4814C94.205 76.9463 94.888 74.6334 94.3406 73.1284C93.7028 71.3789 91.9595 71.4116 89.8335 71.4116C88.8006 71.4116 87.7669 71.4037 86.734 71.4063C85.2671 71.409 85.3512 71.9431 84.6293 72.5349L85.7171 66.8806L78.9024 66.878C79.3772 68.701 79.0114 69.5895 78.6668 71.331C78.3824 72.7607 78.0866 74.2383 77.8013 75.6565C77.5489 76.9038 76.7897 81.0149 76.4567 82.0787C76.2042 82.8946 75.7923 83.2339 75.5859 83.8008V83.799ZM16.7787 76.4608C16.9682 75.9541 19.8649 71.5303 20.345 70.9147C20.5886 71.2371 21.5081 75.6849 21.6055 76.4715L16.7787 76.4608ZM8.32348 83.791L12.8793 83.8079C12.4913 81.3913 14.0291 81.1229 14.7909 79.2875L22.0068 79.2769C22.4435 79.5586 22.6278 81.0016 22.6986 81.5145C22.8802 82.7785 22.5224 83.0354 22.1645 83.7839L30.392 83.8141C30.3052 83.3747 29.8251 82.705 29.6276 82.0699C29.3131 81.0529 28.5185 76.8338 28.2554 75.5972C27.9622 74.2002 26.7256 67.6788 26.4333 66.9276L18.9002 66.8762C19.4016 68.135 19.6735 67.4183 18.5069 69.151L14.2355 75.5103C12.7951 77.6532 10.7533 80.9174 9.15881 82.8246C8.84168 83.2073 8.50862 83.4048 8.32348 83.7928V83.791ZM51.3524 77.8525C51.3382 78.5762 50.9316 80.6623 50.5552 81.0636C50.1725 81.4728 47.5744 81.5623 47.0863 81.2159C46.5574 80.8386 47.2298 78.3166 47.5823 78.0943C48.1307 77.7471 50.533 77.8534 51.3524 77.8534V77.8525ZM42.7254 73.7546L42.6031 74.3428C42.8848 74.2312 42.945 74.1285 43.2028 74.0284C43.341 73.9743 43.3818 73.9956 43.5146 73.9717C45.7549 73.8282 47.7613 73.8468 49.998 73.8468C50.3665 73.8441 50.7491 73.8361 51.1159 73.8441C52.8158 73.8795 51.8803 75.2295 51.4817 75.3544C51.045 75.49 46.0658 75.4138 45.3527 75.4165C42.3639 75.4439 41.51 76.5583 40.9457 79.2158C39.8641 84.3146 41.4365 83.8796 47.8959 83.8096C50.1902 83.7831 49.9519 83.3756 50.7545 82.527L50.8306 83.7715L56.9703 83.8096C56.8915 83.194 56.7019 83.1072 56.7781 82.3046C57.0686 79.3212 59.3328 73.6537 57.345 72.0539C56.1651 71.1043 52.5881 71.4108 50.774 71.4108C48.4283 71.4108 45.9064 71.3213 43.582 71.4214C43.2728 71.8173 42.8255 73.2028 42.7245 73.7538L42.7254 73.7546ZM58.9723 80.8652L58.8261 83.8025C61.6138 83.892 64.4998 83.8105 67.2627 83.8105C70.3923 83.8105 72.5263 84.2091 74.0074 82.053C74.7913 80.9112 75.9597 76.3421 74.3112 75.4519C72.7087 74.5864 67.4531 75.5679 66.3219 74.923C66.0509 73.2338 67.9439 73.6838 70.6935 73.6838C71.6502 73.6838 72.5156 73.6731 73.4537 73.7679C74.6389 73.8849 74.8507 74.148 75.6151 74.3809L75.7072 71.4116C73.7655 71.401 65.6983 71.3169 64.3829 71.4471C62.7583 71.6047 61.465 72.4879 60.8954 73.5872C60.4968 74.349 59.8917 77.2616 60.0441 78.2245C60.3533 80.1822 61.9885 79.9634 63.9435 79.9634L68.1547 79.9607C68.7438 79.9873 68.9032 80.0688 68.8191 80.7172C68.6809 81.7616 67.7915 81.541 66.818 81.5357C65.8604 81.5357 64.9037 81.5357 63.9435 81.5357C63.0293 81.5357 62.0833 81.5517 61.1718 81.4843C60.1008 81.4029 59.8076 81.1477 58.9723 80.866V80.8652ZM25.2206 85.3722L25.0416 88.4992C27.7638 88.4965 30.4815 88.4886 33.1824 88.4558C36.1765 88.4204 37.0578 87.515 37.7063 84.9329C37.8604 84.3225 40.3097 72.3524 40.3912 71.4223L33.6111 71.4116C34.015 73.6545 33.6545 74.4651 33.2293 76.5645L31.7137 84.1551C31.5241 85.0604 31.4293 85.7336 30.5612 85.9799C30.0678 86.1208 26.8487 86.1128 26.2597 85.8825C25.7928 85.6982 25.7689 85.5024 25.2206 85.3722ZM19.4007 99.6039C19.3573 99.0883 19.8268 96.8782 20.0297 96.4557C20.7861 96.4176 20.9598 96.3582 21.6596 96.4725C21.7278 97.0908 21.5054 97.7764 21.3858 98.3708C21.1281 99.6367 21.3664 99.8758 19.4007 99.6048V99.6039ZM20.8756 100.493C20.8862 100.515 20.8756 100.493 20.8862 100.688C20.7941 101.914 20.2786 101.764 19.1288 101.748C17.2552 101.721 17.1357 101.564 16.5014 101.537L16.4872 102.868H21.6233C22.269 102.805 22.8731 102.64 23.3125 101.74C23.9087 100.516 24.0309 97.0509 24.961 95.3475C22.1512 95.3369 22.6021 95.1145 22.0024 95.8002C21.7145 95.1686 21.2131 95.3342 20.454 95.3395C18.3439 95.3448 17.5228 95.0977 17.0099 97.6365C16.7982 98.6693 16.264 100.204 17.265 100.636C17.8806 100.902 20.7064 100.869 20.8747 100.492L20.8756 100.493ZM74.1119 99.6553C74.0525 99.0582 74.4724 96.9951 74.7249 96.4982C75.2431 96.3494 75.8233 96.3945 76.3601 96.4441C76.4195 97.0332 75.9916 99.1557 75.7445 99.6198C75.2209 99.7527 74.646 99.7252 74.1119 99.6553ZM71.2861 101.508L71.1745 102.782L76.6205 102.709C77.8678 102.695 78.1796 101.505 78.4188 100.309C78.6872 98.967 78.9069 97.3317 79.3329 96.0783L79.6633 95.344H76.9651L76.7888 95.8152C76.5718 95.5769 76.5311 95.4139 76.1112 95.3546C75.8481 95.3138 75.3981 95.3386 75.1182 95.3413C72.7725 95.3466 72.195 95.1677 71.6608 97.8827C71.0505 100.964 71.4898 100.757 74.1234 100.773C74.8046 100.776 75.2891 100.871 75.6284 100.364C75.6532 101.695 75.2493 101.769 74.0153 101.752C72.8514 101.735 72.3695 101.793 71.287 101.508H71.2861ZM83.9835 100.743C85.3636 100.871 87.2974 100.781 88.7289 100.773C90.497 100.76 90.8823 100.201 91.211 98.6064C91.5414 96.9925 92.1083 95.7532 90.0611 95.6691C87.5667 95.569 87.4985 95.9295 87.5091 95.2536C87.5304 94.2934 88.8626 94.5866 90.4979 94.5892C91.1029 94.5892 91.4882 94.7469 91.8922 94.7496L91.9108 93.3615C85.1369 93.2826 85.2502 92.8601 84.5345 96.6913C84.0685 99.1778 85.8012 98.1254 88.4667 98.4514L88.3037 99.479C87.192 99.5658 86.5303 99.5419 85.407 99.5383C84.9189 99.5383 84.3033 99.3452 84.0322 99.3753L83.9835 100.742V100.743ZM8.04622 96.4858L8.06216 96.2094L7.78047 96.2369L4.85193 96.3529L5.18323 94.5875C6.50665 94.5768 7.48283 94.6335 8.68135 94.7363L8.7407 93.3668L2.43541 93.3562C2.4735 94.8373 1.46188 99.3497 0.96582 100.768L7.404 100.771L7.8974 99.3957C6.69002 99.6021 5.43215 99.5773 4.20882 99.5312L4.5667 97.5975C5.6917 97.4513 6.76885 97.6276 7.83982 97.7118L8.04622 96.4858ZM96.2168 99.6181C94.7472 99.952 94.2316 99.6127 94.95 98.2406C95.8102 98.1591 95.796 98.1511 96.634 98.1892L96.2168 99.6181ZM92.8435 96.3175L92.762 96.5239C93.5132 96.4078 96.1379 96.275 96.8598 96.5079C96.9467 97.2263 96.5046 97.1041 95.8155 97.0988C95.2264 97.0935 94.6196 97.0828 94.0341 97.0961C92.7567 97.1236 92.3359 97.4974 92.0596 98.68C91.7256 100.09 91.7371 100.727 93.2607 100.771C94.3184 100.801 95.7854 100.985 96.3009 100.264C96.4931 100.895 95.8013 100.774 99.0505 100.765C98.7662 99.2628 100.295 96.3122 99.124 95.5636C98.5057 95.1703 94.1917 95.3085 93.15 95.3572L92.8435 96.3175ZM48.1625 97.5815C48.2086 97.0766 48.26 96.8144 48.4416 96.4477L49.2255 96.399L50.1636 96.4636L50.0095 97.5753L48.1625 97.5807V97.5815ZM52.1054 99.7483L52.2196 99.5605C51.2629 99.6801 50.3434 99.6987 49.3371 99.704C48.0111 99.7066 47.6966 99.983 47.8995 98.6516L52.4366 98.6436C52.5748 98.0333 52.9061 96.7258 52.8273 96.1403C52.6971 95.1641 51.5632 95.3378 50.6659 95.3404C45.5759 95.351 45.9666 94.8709 45.1773 98.812C44.9931 99.7368 44.838 100.593 45.9232 100.743C46.9188 100.879 50.704 100.846 51.751 100.74L52.1062 99.7483H52.1054ZM40.0998 97.5789C40.1432 97.1528 40.2433 96.7542 40.3788 96.4592L41.0352 96.4105L41.4799 96.4052L42.1035 96.4539L41.9494 97.5771L40.0998 97.5798V97.5789ZM44.0479 99.7695L44.1595 99.5472C43.232 99.6694 40.7615 99.8289 39.8447 99.6207C39.7251 99.2903 39.78 99.0839 39.8393 98.6879L44.3739 98.6445C45.4183 94.7044 44.5661 95.3493 40.2628 95.3413C38.7604 95.336 37.9118 95.328 37.5459 96.7241C36.3448 101.298 37.0791 100.768 40.152 100.77C41.2859 100.772 42.5818 100.833 43.6944 100.748L44.0497 99.7695H44.0479ZM9.04366 95.3466C9.32535 96.5726 8.50685 99.7997 7.9913 100.765L11.1944 100.768C11.0642 99.9299 11.4983 96.9907 11.9102 96.5292C12.2955 96.3423 13.0626 96.3503 13.5428 96.5044C13.6322 97.0093 13.3178 98.1582 13.2061 98.7198C13.0051 99.7394 12.9563 99.9104 12.5683 100.767L15.7653 100.77C15.589 99.246 16.5873 97.0412 16.1471 95.9942C15.8601 95.3076 15.0566 95.3378 14.1487 95.3378C13.1973 95.3404 12.307 95.1287 11.9244 95.7851L11.8544 95.6336C11.8411 95.6115 11.7862 95.522 11.7702 95.5007C11.5293 95.173 9.60615 95.3404 9.04188 95.3466H9.04366ZM107.088 97.5762C107.129 97.1803 107.216 96.7763 107.36 96.4752C108.252 96.383 108.176 96.3635 109.051 96.4831C109.206 97.8818 108.786 97.5922 107.088 97.5762ZM111.376 98.6233C112.081 95.3909 112.005 95.3369 109.532 95.3422C104.468 95.3502 104.902 94.8567 104.113 98.7783C103.923 99.7084 103.752 100.557 104.802 100.736C106.033 100.945 109.245 100.774 110.676 100.771L111.072 99.5401C110.058 99.7137 109.478 99.7004 108.425 99.7057C107.15 99.7057 106.592 100.053 106.825 98.719C107.723 98.4753 110.223 98.7296 111.376 98.6242V98.6233ZM31.5409 100.771C31.4134 99.9325 31.7854 97.7906 32.0565 96.8658C32.2602 96.1633 32.9131 96.3671 33.8919 96.5106C34.0602 97.5683 33.271 99.9166 32.9184 100.768C33.9619 100.773 35.1126 100.827 36.1348 100.732C35.9178 99.6313 36.3545 98.4922 36.5556 97.3805C36.8399 95.8188 36.3359 95.3386 34.8389 95.3413C33.5695 95.3413 32.6668 95.1429 32.2735 95.7674C32.1433 95.5796 32.1708 95.8081 32.1592 95.3581L29.3902 95.3386C29.585 96.3848 29.2653 97.3238 29.0704 98.3106C28.8374 99.4799 28.7612 99.805 28.3431 100.765L31.54 100.771H31.5409ZM63.7415 95.3714C64.0782 96.6266 63.1471 99.727 62.7007 100.773L65.9003 100.735C65.7107 99.8129 66.2422 97.1661 66.6054 96.4264L68.238 96.4725C68.3381 97.0669 68.0263 98.121 67.904 98.7367C67.7003 99.7943 67.6356 99.9325 67.2645 100.768L70.4862 100.76C70.2258 99.2655 71.3437 97.0279 70.8281 95.9791C70.5057 95.3174 69.6562 95.3395 68.8102 95.3395C67.7747 95.3422 67.0749 95.1411 66.6107 95.8037C66.5974 95.7762 66.5833 95.739 66.5753 95.7249L66.3769 95.3395L63.7407 95.3723L63.7415 95.3714ZM112.604 98.8128C113.59 99.3417 115.516 98.7721 116.297 99.2141C116.27 99.7571 116.177 99.7678 115.627 99.7837L113.072 99.7571C112.614 99.7244 112.388 99.5755 111.996 99.5561L111.945 100.765C113.168 100.79 114.398 100.773 115.616 100.773C116.996 100.771 117.842 100.96 118.545 100.043C118.93 99.5472 119.421 97.6108 118.778 97.1581C118.138 96.7055 116.126 97.1475 115.28 96.8897C115.198 96.1439 115.483 96.3449 117.053 96.3423C118.057 96.3423 118.385 96.3343 119.291 96.6133L119.331 95.3386C117.994 95.344 115.394 95.1925 114.211 95.382C112.747 95.6177 112.207 97.3592 112.603 98.812L112.604 98.8128ZM102.958 100.725C102.621 99.0467 104.097 95.2713 104.118 93.3544L101.231 93.3624C101.339 94.8727 100.338 99.3957 99.7609 100.774L102.958 100.725ZM34.5563 70.1431L40.5958 70.1485L41.2629 66.8913L35.1879 66.8806L34.5563 70.1431ZM52.8583 100.763L56.0606 100.765C55.8923 99.8245 56.1607 98.5799 56.4158 97.671C56.7471 96.4884 58.3548 96.8197 59.0467 97.0908L59.4125 95.3661C57.7826 95.2465 57.4079 95.2253 56.546 96.1004L56.5708 95.3466L53.9053 95.3493C54.1631 96.6098 53.3765 99.4471 52.8592 100.762L52.8583 100.763ZM28.4981 95.3386L25.5421 95.3546C25.7211 96.4149 25.2489 98.3186 24.9779 99.5312C24.853 100.088 24.682 100.285 24.5031 100.771H27.6894C27.4723 99.2442 28.2891 96.9632 28.4972 95.3386H28.4981ZM62.0221 100.771C61.8707 98.9865 62.6484 97.1068 62.8548 95.3413H59.9015C60.1486 96.8764 59.37 99.5552 58.8491 100.768L62.0221 100.771ZM60.588 93.4598L60.3169 94.7478L62.9478 94.7912L63.2295 93.365C62.4403 93.3571 61.1824 93.1639 60.588 93.4598ZM25.9549 94.7779L28.6239 94.7885L28.8817 93.3624H26.2481L25.9549 94.7779Z" fill="#252523"/>
<path d="M25.5625 54.8609L68.657 9.9797L66.539 0L25.5625 54.8609Z" fill="#D12427"/>
<path d="M86.5445 62.324L96.5163 64.1275L67.96 1.99048L86.5445 62.324Z" fill="#373272"/>
<path d="M25.8799 56.6023L32.4376 49.1118L94.4551 64.9893L25.8799 56.6023Z" fill="#FEC900"/>
<path d="M119.328 68.2793C120.191 68.2793 120.974 68.6292 121.541 69.1961C122.108 69.7631 122.461 70.547 122.461 71.4116C122.461 72.277 122.108 73.0601 121.541 73.627C120.974 74.1939 120.191 74.5438 119.328 74.5438C118.463 74.5438 117.679 74.1939 117.113 73.6244C116.546 73.0574 116.193 72.2735 116.193 71.4116C116.193 70.5461 116.546 69.7631 117.113 69.1961C117.68 68.6292 118.464 68.2793 119.328 68.2793ZM121.127 69.6107C120.666 69.1501 120.031 68.8648 119.328 68.8648C118.623 68.8648 117.989 69.1492 117.527 69.6107C117.067 70.0713 116.782 70.7065 116.782 71.4116C116.782 72.114 117.066 72.7509 117.525 73.2098C117.989 73.6704 118.623 73.9557 119.328 73.9557C120.031 73.9557 120.665 73.6713 121.127 73.2125C121.587 72.7518 121.872 72.114 121.872 71.4116C121.872 70.7091 121.588 70.0722 121.127 69.6107Z" fill="#252523"/>
<path d="M118.819 71.7261V72.9193H118.006V69.7676H119.248C119.662 69.7676 119.966 69.8358 120.159 69.9766C120.354 70.1148 120.452 70.3345 120.452 70.6357C120.452 70.8447 120.401 71.0157 120.3 71.1512C120.2 71.2841 120.048 71.3816 119.845 71.4444C119.956 71.471 120.057 71.5286 120.143 71.6181C120.233 71.7075 120.322 71.8431 120.412 72.0247L120.854 72.9193H119.986L119.603 72.1354C119.524 71.9777 119.445 71.8696 119.367 71.8129C119.289 71.7554 119.183 71.7261 119.05 71.7261H118.82H118.819ZM119.161 71.1645C119.332 71.1645 119.454 71.1317 119.527 71.0697C119.6 71.0077 119.638 70.9014 119.638 70.7579C119.638 70.6144 119.599 70.5108 119.527 70.4488C119.453 70.3868 119.332 70.3567 119.161 70.3567H118.819V71.1645H119.161Z" fill="#252523"/>
</svg>
