<svg width="48" height="48" viewBox="0 0 48 48" fill="none" xmlns="http://www.w3.org/2000/svg">
<rect x="1" y="1" width="46" height="46" rx="7" fill="white"/>
<rect x="1" y="1" width="46" height="46" rx="7" stroke="#DEE2E6" stroke-width="2"/>
<path d="M27.5583 15.8333C28.6979 16.0556 29.7451 16.613 30.5661 17.4339C31.387 18.2549 31.9443 19.3021 32.1667 20.4417M27.5583 11.1667C29.9258 11.4297 32.1335 12.4899 33.819 14.1732C35.5044 15.8565 36.5673 18.0628 36.8333 20.43M35.6667 29.74V33.24C35.668 33.5649 35.6014 33.8865 35.4713 34.1842C35.3411 34.4819 35.1502 34.7492 34.9108 34.9688C34.6713 35.1885 34.3887 35.3557 34.0809 35.4598C33.7731 35.5639 33.4469 35.6026 33.1233 35.5733C29.5333 35.1832 26.0848 33.9565 23.055 31.9917C20.2361 30.2004 17.8462 27.8105 16.055 24.9917C14.0833 21.9481 12.8563 18.4828 12.4733 14.8767C12.4442 14.554 12.4825 14.2289 12.5859 13.9219C12.6893 13.6149 12.8555 13.3328 13.0739 13.0935C13.2923 12.8543 13.5581 12.6632 13.8544 12.5323C14.1507 12.4014 14.4711 12.3336 14.795 12.3333H18.295C18.8612 12.3278 19.4101 12.5282 19.8394 12.8974C20.2687 13.2666 20.5491 13.7793 20.6283 14.34C20.7761 15.4601 21.05 16.5598 21.445 17.6183C21.602 18.0359 21.6359 18.4897 21.5429 18.926C21.4498 19.3623 21.2337 19.7628 20.92 20.08L19.4383 21.5617C21.0992 24.4825 23.5175 26.9008 26.4383 28.5617L27.92 27.08C28.2372 26.7663 28.6377 26.5501 29.074 26.4571C29.5103 26.364 29.9641 26.398 30.3817 26.555C31.4402 26.95 32.5399 27.2239 33.66 27.3717C34.2267 27.4516 34.7443 27.7371 35.1143 28.1737C35.4843 28.6104 35.6809 29.1678 35.6667 29.74Z" stroke="#373272" stroke-width="2" stroke-linecap="round" stroke-linejoin="round"/>
</svg>
